<svg id="Layer_1" data-name="Layer 1" xmlns="http://www.w3.org/2000/svg" viewBox="0 0 400 400"><defs><style>.cls-1{fill:#474747;}.cls-17,.cls-2{fill:#2b2b2b;}.cls-2{fill-opacity:0.1;}.cls-3{fill:#f4c9b2;}.cls-4{fill:#846400;}.cls-5{fill:#755800;}.cls-6{fill:#e4c728;}.cls-7{fill:#be8e00;}.cls-8{fill:#fce3d4;}.cls-9{fill:#9d7700;}.cls-10{fill:#cbac14;}.cls-11{fill:#6f7173;}.cls-12{fill:#4f5253;}.cls-13{fill:#b48a00;}.cls-14{fill:#c1907d;}.cls-15{fill:#f3d65d;}.cls-16{fill:#ffefe7;}.cls-18{fill:#ebebea;}</style></defs><title>explorers_ISTP_famous_fictional_lisbeth_salander_the_girl_with_the_dragon_tattoo</title><g id="Layer_1-2" data-name="Layer_1"><polygon class="cls-1" points="149.77 301.49 131.91 309 133.98 313.66 151.84 305.64 151.58 302.53 149.77 301.49"/><polygon class="cls-2" points="122.07 385.38 215.28 372.44 287.51 385.64 214.76 399.88 122.07 385.38"/><path class="cls-1" d="M154.69,389l-.78-12.69,18.39-4.66H185l9.84,3.63L193,389Z"/><polygon class="cls-3" points="233.92 268.09 235.73 278.71 244.53 284.41 256.18 268.09 252.3 262.14 243.76 260.07 233.92 268.09"/><polygon class="cls-4" points="153.65 233.14 161.42 196.89 173.33 231.85 165.05 257.22 157.02 253.85 153.65 233.14"/><polygon class="cls-5" points="140.71 273.79 153.65 233.14 164.01 241.43 168.93 261.62 165.56 266.8 155.47 280.26 140.71 273.79"/><polygon class="cls-6" points="178.51 268.09 186.28 269.13 211.91 269.13 219.16 268.09 235.47 226.41 217.35 209.84 199.22 204.66 184.47 210.36 172.81 238.84 178.51 268.09"/><path class="cls-7" d="M185.24,231.33l-3.88-13.72,4.14-1.56,3.11,8,2.33-.78-.78-8,3.63-.26,1.29,7.25,3.63-.78.77-7,5.44,1.55-2.07,6.73,2.33,1.82,3.62-6.22,4.66,3.11-4.4,5.7,3.37,3.1,3.36-2.33,1,9.84-3.11,11.65,6,9.84-12.17-5.7.78-6.47,4.4-10.87-14.24-10.36Zm2.33,1.81,9.84-3.62,9.32,5.69.26,8.55-2.33,5.43-5.44-.51,1.82,6.47-6,3.88-4.66-3.88-.52-1.81h1.81l.78,1.29.52-1.29,1.55-.26,1.82.77.25-1.81L194,248.68l-4.66.25.26-2.07-1,1.3-1.3-.78.52-1.81-1.29,1.29-1-.77,2.07-4.66,3.63.77,2.07,1.82,4.66-6.74-4.14.26-3.11,3.63h-1.81Z"/><polygon class="cls-8" points="186.02 183.17 183.43 185.76 181.36 196.12 184.47 210.36 217.35 209.84 221.49 199.48 224.85 180.06 200 187.57 186.02 183.17"/><polygon class="cls-9" points="161.42 196.89 165.56 266.8 171 278.97 178.51 277.93 180.06 263.18 185.76 246.6 182.39 190.94 179.03 187.05 171.78 190.94 170.22 193.27 170.22 194.04 169.19 192.49 161.42 196.89"/><polygon class="cls-10" points="165.56 266.8 171.78 275.08 170.74 281.04 166.34 280.52 165.56 266.8"/><polygon class="cls-9" points="248.16 190.68 250.49 211.91 245.57 230.29 244.27 252.3 225.37 282.85 217.61 271.46 215.79 262.4 208.28 247.12 214.5 227.44 218.64 212.43 225.37 181.62 228.22 181.62 235.47 184.98 237.02 188.35 239.87 186.79 248.16 190.68"/><polygon class="cls-4" points="281.56 231.59 248.16 190.68 245.57 230.29 252.04 235.73 258.26 238.84 281.56 231.59"/><polygon class="cls-5" points="263.18 261.88 281.56 231.59 252.04 235.73 245.83 254.11 252.3 262.14 263.18 261.88"/><polygon class="cls-10" points="271.72 270.42 260.07 270.68 258.77 264.73 263.18 261.88 271.98 264.47 271.72 270.42"/><polygon class="cls-6" points="245.83 254.11 263.18 261.88 260.07 270.68 243.76 260.07 245.83 254.11"/><polygon class="cls-5" points="204.92 297.87 180.32 287.25 171.78 275.08 178.51 268.09 181.62 264.47 189.38 261.88 193.53 261.88 197.93 263.69 203.11 262.14 207.51 262.14 212.95 263.43 215.79 262.4 220.97 272.75 224.85 277.68 219.16 293.99 204.92 297.87"/><polygon class="cls-4" points="204.92 297.87 200 330.75 183.43 337.74 170.48 329.46 166.34 280.52 170.74 281.04 171.78 275.08 204.92 297.87"/><polygon class="cls-11" points="190.94 330.49 193.53 337.48 189.64 365.45 180.32 368.04 173.07 361.3 172.56 355.87 175.14 353.02 172.04 349.65 171.52 343.44 175.66 340.59 171 336.19 170.48 329.46 190.94 330.49"/><polygon class="cls-1" points="200 330.75 194.56 366.74 186.79 368.81 186.79 364.67 190.94 330.49 200 330.75"/><path class="cls-12" d="M196.63,352l-1,7.51-23-3.62-.51-6.22Zm2.08-14-1,7.77-26.15-2.33-.52-7.25Z"/><polygon class="cls-4" points="204.92 297.87 210.88 331.27 226.67 350.69 241.43 326.87 244.53 284.41 233.66 268.09 222.78 275.08 218.9 284.15 204.92 297.87"/><polygon class="cls-13" points="225.11 246.35 240.13 255.67 242.98 255.41 244.27 252.3 229 242.98 225.11 246.35"/><polygon class="cls-10" points="219.94 270.94 244.27 252.3 243.76 260.07 225.11 278.19 221.49 277.42 219.94 270.94"/><polygon class="cls-11" points="220.97 329.98 218.64 337.23 224.08 367.26 231.33 369.85 238.58 363.63 239.35 356.39 235.99 353.28 239.87 348.88 240.39 341.37 237.28 338.52 240.91 334.12 241.43 326.87 220.97 329.98"/><polygon class="cls-1" points="210.88 331.27 212.17 338.26 218.38 341.88 213.46 345.25 214.76 352.76 219.68 356.13 216.05 359.49 217.35 366.74 224.08 369.33 225.89 365.45 220.97 329.98 210.88 331.27"/><path class="cls-12" d="M214.76,352.76l1.29,6.73,23.31-3.1.51-7.51Zm-2.59-14.5,1.29,7,26.93-3.88.52-7.25Z"/><polygon class="cls-12" points="153.91 376.32 173.07 361.3 194.56 366.74 194.82 375.29 153.91 376.32"/><polygon class="cls-12" points="217.35 366.74 214.5 380.46 231.33 385.38 244.27 380.2 238.58 363.63 217.35 366.74"/><polygon class="cls-1" points="216.05 393.93 214.5 380.46 244.27 380.2 243.5 393.93 216.05 393.93"/><polygon class="cls-3" points="237.54 323.5 215.02 320.65 220.71 325.83 237.54 323.5"/><polygon class="cls-3" points="213.98 315.22 231.59 318.58 239.87 312.89 213.98 315.22"/><polygon class="cls-3" points="211.91 309.26 232.62 310.04 238.84 302.79 211.91 309.26"/><polygon class="cls-4" points="249.71 256.96 246.86 258 248.42 261.62 252.3 259.81 249.71 256.96"/><polygon class="cls-4" points="258 261.36 254.37 262.14 255.41 266.02 259.81 264.21 258 261.36"/><polygon class="cls-3" points="226.15 168.93 231.85 138.38 235.21 120.25 222.52 92.55 210.1 78.05 194.3 163.49 196.89 181.36 216.57 174.88 226.15 168.93"/><polygon class="cls-8" points="134.49 83.49 142.26 145.89 162.72 167.38 194.3 163.49 215.28 136.82 208.54 61.22 164.01 51.9 134.49 83.49"/><polygon class="cls-3" points="140.19 105.5 152.88 111.97 165.05 128.54 169.45 129.32 174.11 126.21 177.73 123.88 186.54 105.5 199.74 95.4 191.2 92.81 178.77 100.83 169.19 107.83 167.38 110.16 164.79 109.12 159.35 104.46 146.92 101.61 140.19 105.5"/><polygon class="cls-1" points="154.69 67.18 135.01 87.63 131.39 78.31 140.71 57.08 150.03 58.11 154.69 67.18"/><polygon class="cls-12" points="166.08 65.11 154.69 67.18 112.49 36.88 132.94 33 150.03 42.84 166.08 65.11"/><polygon class="cls-1" points="187.31 62.26 166.08 65.11 132.94 33 122.58 18.24 142.52 21.61 166.34 32.22 187.57 53.71 187.31 62.26"/><polygon class="cls-12" points="137.86 3.48 142.52 21.61 187.31 62.26 194.56 66.66 180.06 22.9 137.86 3.48"/><polygon class="cls-1" points="173.33 15.91 137.86 3.48 169.71 27.04 187.31 62.26 192.75 61.48 201.81 55.78 194.56 21.87 169.71 0.12 173.33 15.91"/><polygon class="cls-12" points="169.71 0.12 188.09 21.87 195.08 56.56 201.81 55.78 207.25 49.83 203.11 26.53 196.63 14.88 169.71 0.12"/><polygon class="cls-1" points="203.88 2.96 196.63 14.88 203.88 50.09 209.06 49.57 214.24 46.72 210.62 24.2 203.88 2.96"/><polygon class="cls-12" points="203.88 2.96 210.35 45.43 219.68 30.93 217.87 20.83 203.88 2.96"/><polygon class="cls-1" points="231.59 15.39 217.87 20.83 210.35 45.43 212.95 49.05 221.23 50.09 230.03 41.28 229.78 31.19 231.59 15.39"/><polygon class="cls-12" points="206.21 78.57 187.31 62.26 200.26 52.68 210.35 45.43 218.12 47.76 234.44 47.5 247.38 56.82 232.36 72.1 206.21 78.57"/><polygon class="cls-12" points="244.53 30.15 237.8 42.06 237.8 48.53 231.85 52.16 218.12 47.76 229.78 31.19 244.53 30.15"/><polygon class="cls-1" points="253.34 42.06 237.8 42.06 231.85 52.16 247.38 56.82 253.34 42.06"/><polygon class="cls-1" points="222.52 92.55 219.16 93.33 216.31 87.11 206.21 78.57 247.38 56.82 251.52 68.21 241.43 85.04 222.52 92.55"/><polygon class="cls-12" points="257.48 83.75 251.52 68.21 222.52 92.55 231.33 96.69 240.13 94.62 247.64 95.92 257.48 83.75"/><polygon class="cls-1" points="241.43 128.54 257.48 83.75 240.13 94.62 228.74 106.53 233.4 129.57 231.85 138.38 241.69 137.34 241.43 128.54"/><polygon class="cls-12" points="255.92 151.32 241.43 128.54 231.85 138.38 255.92 151.32"/><polygon class="cls-8" points="222.52 92.55 220.97 118.96 228.74 121.55 235.21 120.25 240.13 94.62 222.52 92.55"/><polygon class="cls-14" points="227.96 108.34 227.7 99.02 234.95 99.28 227.96 108.34"/><polygon class="cls-14" points="220.97 118.96 233.4 129.57 235.21 120.25 220.97 118.96"/><polygon class="cls-14" points="212.17 161.16 194.3 163.49 174.11 166.08 181.88 174.88 196.89 181.36 200.52 176.96 212.17 161.16"/><polygon class="cls-15" points="183.17 184.72 181.88 174.88 199.22 177.47 200.78 183.95 197.15 188.35 183.17 184.72"/><polygon class="cls-6" points="224.85 180.06 197.15 188.35 199.22 177.47 226.15 168.93 224.85 180.06"/><polygon class="cls-12" points="216.31 87.11 218.9 166.86 221.23 171.26 226.15 168.93 222.52 92.55 216.31 87.11"/><polygon class="cls-1" points="214.24 182.91 218.9 166.86 226.15 168.93 214.24 182.91"/><polygon class="cls-16" points="164.79 109.12 165.05 128.54 175.14 126.47 169.19 107.83 164.79 109.12"/><polygon class="cls-14" points="171 132.42 165.05 128.54 175.14 126.47 171 132.42"/><polygon class="cls-5" points="161.68 143.81 172.04 138.9 185.5 139.41 173.07 143.56 161.68 143.81"/><polygon class="cls-4" points="173.33 146.15 161.68 143.81 185.5 139.41 173.33 146.15"/><polygon class="cls-9" points="175.14 126.47 178.25 124.4 180.58 126.99 178.25 130.35 174.11 127.76 173.07 129.57 178.77 131.91 182.65 127.25 178.77 122.33 174.63 124.92 175.14 126.47"/><polygon class="cls-1" points="160.13 101.09 159.35 104.46 145.63 102.91 140.19 105.5 145.63 99.54 160.13 101.09"/><polygon class="cls-1" points="177.22 97.73 178.77 100.83 191.97 94.62 199.74 95.4 190.68 91.25 177.22 97.73"/><path class="cls-17" d="M152.88,108.6A3.21,3.21,0,0,1,156,112a3.42,3.42,0,0,1-3.36,3.36,3.21,3.21,0,0,1-3.11-3.36A3.43,3.43,0,0,1,152.88,108.6Z"/><path class="cls-17" d="M186.54,102.39a3,3,0,0,1,3.1,3.11,3.26,3.26,0,0,1-3.36,3.36,3.06,3.06,0,0,1-3.11-3.36A3.21,3.21,0,0,1,186.54,102.39Z"/><polygon class="cls-4" points="177.47 180.58 182.13 177.22 182.91 182.91 177.47 180.58"/><polygon class="cls-4" points="191.2 177.99 186.79 181.36 190.42 184.98 194.3 181.88 191.2 177.99"/><polygon class="cls-4" points="206.99 177.22 203.11 181.1 207.25 183.95 210.88 180.06 206.99 177.22"/><polygon class="cls-4" points="225.63 172.56 231.85 175.14 224.85 178.25 225.63 172.56"/><polygon class="cls-1" points="198.96 276.12 200 278.71 201.29 278.19 203.37 280 198.96 282.08 195.34 274.82 202.85 271.72 206.47 278.71 203.37 280 201.29 278.19 202.85 277.68 201.55 274.82 198.96 276.12"/><polygon class="cls-1" points="205.44 284.67 201.03 279.75 203.11 278.71 207.77 283.89 205.44 284.67"/><path class="cls-1" d="M206,286.22l2.08,1.29.77-1,2.85,1-2.33,3.63-6.73-4.92,2.33-3.11,2.07,1.81Zm2.85.26,1-1.56-2.07-1-.78,1-2.07-1.81,2.33-3.11,6.21,5.44-1.81,2.07Z"/><path class="cls-1" d="M216.05,293l2.59,1.3.52-1,2.59,1.29-1.81,3.63L212.69,294l1.81-3.63,2.33,1.56Zm3.11.26.78-1.55-2.33-1.3-.78,1.56L215,289.84l1.81-3.62,6.73,4.14-1.81,4.14Z"/><path class="cls-1" d="M228.48,299.16l2.85,1,.52-1,2.84,1-2.33,4.14-7.51-4.4,1.3-3.11,2.85,1.3Zm3.37,0,.77-1.81-2.84-1-.78,1.81-2.85-1.3,2.07-4.66,8.29,4.41-1.82,3.62Z"/><polygon class="cls-1" points="241.69 303.82 245.05 304.86 246.09 301.75 242.46 300.98 241.94 302.53 239.1 301.49 239.62 297.35 248.94 299.68 247.38 307.97 238.06 306.15 239.1 301.49 241.94 302.53 241.69 303.82"/><polygon class="cls-1" points="216.31 291.92 209.32 288.03 210.35 285.96 217.61 290.36 216.31 291.92"/><polygon class="cls-1" points="226.93 298.39 221.23 294.25 220.97 291.92 227.96 295.54 226.93 298.39"/><polygon class="cls-1" points="240.39 303.31 233.14 300.72 233.4 298.65 240.65 300.46 240.39 303.31"/><polygon class="cls-1" points="181.88 268.09 186.02 268.09 186.02 267.06 188.87 266.54 188.61 271.2 178.51 270.68 178.51 268.09 180.58 261.62 189.38 261.88 188.87 266.54 186.02 267.06 186.02 264.73 182.39 264.73 181.88 268.09"/><path class="cls-1" d="M196.38,268.09h4.14v-.77l2.59-.78v4.14h-9.32l-.26-4.14h2.85Zm4.14-.77-.26-2.59h-3.63l-.25,1.81h-2.85v-4.66l9.58.26v4.4Z"/><polygon class="cls-1" points="210.1 268.09 214.24 268.35 214.24 264.99 210.35 265.25 210.1 267.32 207.25 266.8 207.51 262.14 215.79 262.4 217.87 266.8 217.61 271.46 206.99 270.94 207.25 266.8 210.1 267.32 210.1 268.09"/><polygon class="cls-1" points="196.38 268.09 186.79 268.09 187.05 265.76 196.38 265.51 196.38 268.09"/><polygon class="cls-1" points="208.8 268.09 200.78 268.09 201.03 265.76 210.1 265.76 208.8 268.09"/><polygon class="cls-1" points="198.45 274.82 196.38 269.13 199.48 269.13 200.78 274.05 198.45 274.82"/><polygon class="cls-10" points="132.16 273.27 136.56 281.04 139.67 277.16 140.71 273.79 135.27 270.42 132.16 273.27"/><polygon class="cls-6" points="155.47 280.26 140.71 273.79 136.56 281.04 138.64 281.56 141.48 286.22 151.84 285.44 155.47 280.26"/><polygon class="cls-4" points="150.81 279.75 151.58 282.59 148.48 283.37 147.96 280.52 150.81 279.75"/><polygon class="cls-4" points="143.56 276.9 144.33 279.75 141.23 280.52 140.71 277.68 143.56 276.9"/><polygon class="cls-5" points="133.2 298.65 136.82 306.93 142.52 306.67 144.59 303.56 147.44 296.83 145.37 283.37 138.64 281.56 133.2 298.65"/><polygon class="cls-3" points="146.15 314.18 136.82 306.93 144.59 303.56 150.81 313.66 146.15 314.18"/><polygon class="cls-3" points="151.84 285.44 155.21 304.08 151.84 305.64 143.56 289.32 145.37 283.37 151.84 285.44"/><polygon class="cls-18" points="130.09 306.93 130.87 294.5 122.33 289.58 119.22 277.16 123.36 266.28 116.11 275.6 117.41 293.99 127.25 296.32 130.09 306.93"/><polygon class="cls-10" points="169.19 202.07 176.7 203.11 168.67 210.88 181.36 231.33 179.03 187.05 183.17 184.72 183.43 186.28 185.76 246.6 163.23 210.1 168.67 205.95 163.49 205.18 169.19 192.49 173.07 190.42 169.19 202.07"/><polygon class="cls-10" points="236.77 197.67 235.47 184.98 239.87 186.79 242.46 200.52 235.99 202.85 242.2 207.51 208.28 247.12 224.34 181.36 224.85 180.06 228.22 181.62 217.09 229.26 235.21 208.03 226.15 201.81 236.77 197.67"/><polygon class="cls-13" points="173.59 247.64 165.05 259.55 165.56 266.8 176.96 251.78 173.59 247.64"/><polygon class="cls-6" points="233.66 178.51 229.52 182.39 231.07 184.98 235.47 184.98 233.66 178.51"/><polygon class="cls-6" points="175.14 183.69 179.03 187.05 177.22 190.16 174.37 189.64 175.14 183.69"/><polygon class="cls-6" points="215.28 280.52 219.94 270.94 225.11 278.19 218.9 284.15 215.28 280.52"/><polygon class="cls-6" points="177.22 288.81 171.78 275.08 166.34 280.52 171.78 290.88 177.22 288.81"/><polygon class="cls-4" points="172.81 281.04 173.59 283.89 170.48 284.67 169.97 281.82 172.81 281.04"/><polygon class="cls-4" points="220.97 276.9 221.75 279.75 218.64 280.52 218.12 277.68 220.97 276.9"/></g></svg>