<svg id="Layer_1" data-name="Layer 1" xmlns="http://www.w3.org/2000/svg" viewBox="0 0 400 400"><defs><style>.cls-1{fill:#755800;}.cls-1,.cls-10,.cls-11,.cls-12,.cls-13,.cls-14,.cls-15,.cls-16,.cls-17,.cls-18,.cls-19,.cls-2,.cls-3,.cls-4,.cls-5,.cls-6,.cls-7,.cls-8,.cls-9{fill-rule:evenodd;}.cls-2{fill:#a8836c;}.cls-3{fill:#cfae95;}.cls-4{fill:#402e1c;}.cls-5{fill:#544538;}.cls-6{fill:#eed2c1;}.cls-7{fill:#382612;}.cls-8{fill:#f6e5db;}.cls-9{fill:#fff;}.cls-10,.cls-12{fill:#2b2b2b;}.cls-11{fill:#bb8e2d;}.cls-12,.cls-18{opacity:0.15;}.cls-13{fill:#474747;}.cls-14{fill:#cbac14;}.cls-15{fill:#e4c728;}.cls-16{fill:#f3d65d;}.cls-17{fill:#846400;}.cls-18{fill:#33231b;}.cls-19{fill:#4f5253;}.cls-20{fill:#6f7173;}</style></defs><title>explorers_ISTP_famous_real_tom_cruise</title><polygon class="cls-1" points="179.72 159.97 141.4 184.14 144.81 204.76 166.08 209.07 175.66 208.73 190.76 193.3 179.72 159.97"/><polygon class="cls-2" points="182.91 138.52 188.69 145.12 192.62 151.58 194.24 178.02 220.67 178.45 240.12 159.5 242.05 154.52 248.1 125.87 234.43 130.44 179.14 131 182.91 138.52"/><polygon class="cls-3" points="211.41 144.79 230.87 144.93 223.41 169.2 244.68 155.23 251.21 148.17 253.23 143.54 264.88 113.45 262.92 81.99 251.87 74.12 233.85 40.38 229.29 48.36 227.37 112.31 211.41 144.79"/><polygon class="cls-4" points="233.85 40.38 248.46 84.38 255.87 85.53 278.76 77.58 287.43 55.2 276.31 46.94 250.67 41.24 233.85 40.38"/><polygon class="cls-4" points="264.41 10.29 239.58 29.5 233.85 40.38 287.43 55.2 264.41 10.29"/><polygon class="cls-5" points="287.43 55.2 233.85 40.38 235.06 33.94 244.32 30.08 287.43 55.2"/><polygon class="cls-4" points="146.65 18.15 155.2 34.68 160.33 39.24 224.73 46.08 233.85 40.38 244.32 30.08 222.81 15.41 173.22 15.41 146.65 18.15"/><polygon class="cls-5" points="177.08 1.38 146.65 18.15 244.32 30.08 264.41 10.29 177.08 1.38"/><polygon class="cls-4" points="139.81 48.36 153.86 89.96 156.91 72.87 159.19 42.09 155.2 34.68 139.81 48.36"/><polygon class="cls-6" points="172.08 145.36 211.41 144.79 234.07 116.47 233.85 40.38 155.2 34.68 151.12 62 153.51 104.6 153.15 119.02 172.08 145.36"/><polygon class="cls-3" points="168.31 60.36 157.53 62.1 168.59 72.04 180 97.25 183.41 87.67 184.55 68.3 182.42 63.4 168.31 60.36"/><polygon class="cls-3" points="201.08 59.18 192.67 62.55 190.25 69.44 192.53 91.99 194.08 97.25 206.21 71.47 219.89 56.65 201.08 59.18"/><polygon class="cls-7" points="160.04 58.65 157.53 62.1 182.42 63.4 182.27 59.18 160.04 58.65"/><polygon class="cls-7" points="192.53 58.61 192.67 62.55 219.89 56.65 215.62 53.52 192.53 58.61"/><polygon class="cls-2" points="187.4 93.94 180 97.25 187.97 104.53 194.41 96.85 187.4 93.94"/><polygon class="cls-8" points="192.67 62.55 182.42 63.4 180 97.25 194.41 96.85 192.67 62.55"/><polygon class="cls-2" points="254.37 101.36 264.88 113.45 269.4 101.78 263.2 99.09 254.37 101.36"/><polygon class="cls-6" points="256.94 74.3 254.37 101.36 269.4 101.78 278.76 77.58 256.94 74.3"/><polygon class="cls-2" points="260.16 95.06 261.22 80.78 271.43 82.4 260.16 95.06"/><polygon class="cls-2" points="170.44 110.97 179.27 122.65 199.79 122.37 210.9 110.11 170.44 110.97"/><polygon class="cls-9" points="175.85 113.53 203.93 112.75 198.08 119.8 181.27 120.09 175.85 113.53"/><polygon class="cls-3" points="173.05 102.99 169.34 114.1 167.74 109.05 173.05 102.99"/><polygon class="cls-3" points="206.27 101.85 212.54 113.25 213.69 107.55 206.27 101.85"/><path class="cls-10" d="M205.81,77.6a4.71,4.71,0,1,0-4.71-4.71,4.71,4.71,0,0,0,4.71,4.71"/><path class="cls-10" d="M169.2,78.21a4.71,4.71,0,1,0-4.71-4.71,4.72,4.72,0,0,0,4.71,4.71"/><polygon class="cls-1" points="242.6 194.49 268.12 222.79 275.75 233.94 290.89 225.22 295.94 206.52 278.58 161.98 267.97 164.53 249.29 184.05 242.6 194.49"/><polygon class="cls-11" points="112.4 113.77 113.48 113.83 118.47 119.45 117.68 121.14 115.13 119.84 111.44 115.73 112.4 113.77"/><polygon class="cls-11" points="132.71 97.18 140.84 103.25 137.45 111.59 135.58 113.14 137.46 104.58 130.79 99.47 130.36 97.25 132.71 97.18"/><polygon class="cls-12" points="143.6 382.44 220.1 364.57 291.75 383.68 220.19 400.38 143.6 382.44"/><polygon class="cls-10" points="176.75 358.9 157.64 375.18 164.01 377.76 193.33 377.99 198.12 375.18 197.31 358.13 193.06 353.89 181.88 354.75 176.75 358.9"/><polygon class="cls-13" points="173.58 328.59 178.62 331.98 198.96 332.16 206.49 328.85 214.07 304.68 211.77 298 175.81 277.21 168.53 279.02 173.58 328.59"/><polygon class="cls-10" points="245.85 364.57 242.58 381.76 246.35 384.56 272.06 384.39 275.12 381.76 267 364.62 261.81 361.1 248.66 360.68 245.85 364.57"/><polygon class="cls-13" points="215.76 297.09 214.07 304.68 228.21 331.33 232.36 334.86 260.89 333.7 265.25 329.4 262.88 281.66 236.14 273.17 215.76 297.09"/><polygon class="cls-10" points="176.92 273.74 168.53 279.02 214.07 304.68 234.52 289.71 234.17 278.26 227.59 273.05 176.92 273.74"/><polygon class="cls-14" points="215.77 256.2 226.8 259.59 230.03 278.91 175.23 279 184.94 270.52 215.77 256.2"/><polygon class="cls-15" points="172.88 275.01 175.23 279 221.29 257.89 224.26 252.38 224.26 175.14 219.16 173.44 207.28 173.44 203.89 177.26 172.88 275.01"/><polygon class="cls-1" points="260.76 254.93 256.08 251.53 227.23 252.8 221.29 257.89 234.52 289.71 243.34 278.23 248.87 276.14 262.02 259.59 260.76 254.93"/><polygon class="cls-3" points="243.34 278.23 262.88 281.66 261.18 276.57 250.14 268.71 243.34 278.23"/><polygon class="cls-16" points="263.3 267.23 253.91 264.09 250.14 268.71 262.77 281.37 266.27 277.84 263.3 267.23"/><polygon class="cls-11" points="284.94 240.49 275.75 233.94 260.76 254.93 253.91 264.09 266.27 277.84 289.61 254.93 284.94 240.49"/><polygon class="cls-17" points="221.29 257.89 222.61 202.5 225.53 200.6 246.42 195.82 250.62 197.18 268.12 222.79 260.76 254.93 221.29 257.89"/><polygon class="cls-11" points="261.17 150.63 240.38 174.72 223.41 169.2 220.86 172.17 223.27 174.81 222.71 198.54 226.38 199.33 244.63 195.93 248.13 193.54 278.58 161.98 261.17 150.63"/><polygon class="cls-16" points="222.71 198.54 222.61 202.5 250.62 197.18 248.02 193.39 222.71 198.54"/><polygon class="cls-17" points="168.53 279.02 174.66 273.23 195.4 201.88 192.43 199.33 179.27 196.78 176.72 198.27 168.53 279.02"/><polygon class="cls-11" points="179.72 159.97 177.15 194.24 179.06 195.72 192.22 198.48 195.33 197.76 197.52 195.93 203.89 173.44 203.46 168.77 200.07 167.5 190.31 172.59 185.16 156.43 179.72 159.97"/><polygon class="cls-16" points="177.15 194.24 176.72 198.27 194.1 202.13 196.25 200.6 195.33 197.76 177.15 194.24"/><polygon class="cls-16" points="203.46 168.77 203.89 173.44 205.58 175.14 223.26 175.14 223.41 169.2 203.46 168.77"/><polygon class="cls-1" points="168.53 279.02 175.23 279 208.77 175.14 203.46 168.77 168.53 279.02"/><polygon class="cls-17" points="120.68 191.74 121.14 185.83 131.34 173.38 136.37 172.11 166.08 209.07 129.2 210.39 120.68 191.74"/><polygon class="cls-1" points="106.82 160.87 120.68 191.74 136.37 172.11 121.72 154.77 113.14 155.64 106.82 160.87"/><polygon class="cls-16" points="106.82 160.87 121.72 154.77 118.07 150.44 111.27 150.52 104.54 155.78 106.82 160.87"/><polygon class="cls-2" points="119.7 140.19 118.07 150.44 104.54 155.78 90.34 141.48 106.77 142.78 119.7 140.19"/><polygon class="cls-6" points="90.9 122.93 100.04 118.74 102.87 120.94 101.34 126.52 105.76 134.52 99.13 140.27 94.6 139.56 90.9 122.93"/><polygon class="cls-6" points="109.8 130.13 112.3 137.52 119.7 140.19 122.5 122.56 117.68 121.14 109.8 130.13"/><polygon class="cls-3" points="105.22 146.5 90.34 141.48 104.04 135.3 109.8 130.13 119.7 140.19 105.22 146.5"/><polygon class="cls-14" points="98.72 127.49 104.04 135.3 111.42 131.97 117.68 121.14 112.43 114.81 104.09 120.69 98.72 127.49"/><polygon class="cls-14" points="115.95 111.56 122.03 117.75 135.58 113.14 138.78 104.33 130.84 97.78 122.25 103.83 115.95 111.56"/><polygon class="cls-1" points="129.34 95.4 97.33 125.45 98.72 127.49 130.84 97.78 146.7 92.79 149.95 95.64 153.73 93.89 147.87 90.18 129.34 95.4"/><polygon class="cls-1" points="252.58 145.03 261.17 150.63 242.08 185.33 223.41 169.2 252.58 145.03"/><polygon class="cls-1" points="185.16 156.43 187.17 180.74 203.46 168.77 192.62 151.58 185.16 156.43"/><polygon class="cls-17" points="295.94 206.52 275.58 234.17 289.61 254.93 307.86 237.1 295.94 206.52"/><path class="cls-18" d="M268.12,222.79h0l-20-29.25,12.64,61.38Zm-33.6,66.92,8.82-11.48,19.54,3.43Z"/><polygon class="cls-19" points="173.58 328.59 206.49 328.85 197.31 358.13 176.75 358.9 173.58 328.59"/><polygon class="cls-19" points="228.21 331.33 265.25 329.4 267 364.62 245.85 364.57 228.21 331.33"/><rect class="cls-20" x="157.64" y="375.18" width="40.48" height="4.3"/><rect class="cls-20" x="242.58" y="381.76" width="32.54" height="4.78"/></svg>