<svg id="Layer_1" data-name="Layer 1" xmlns="http://www.w3.org/2000/svg" viewBox="0 0 400 400"><defs><style>.cls-1{fill:#2b2b2b;}.cls-2{fill:#2b2c2b;fill-opacity:0.1;}.cls-3{fill:#474748;}.cls-4{fill:#836528;}.cls-17,.cls-5{fill:#755924;}.cls-6{fill:#f4cab2;}.cls-7{fill:#fbe3d4;}.cls-8{fill:#cbad2d;}.cls-16,.cls-9{fill:#9c782c;}.cls-10{fill:#c18f7c;}.cls-11{fill:#fff0e8;}.cls-12{fill:#6f7273;}.cls-13{fill:#4f5353;}.cls-14{fill:#fce3d4;}.cls-14,.cls-15,.cls-16,.cls-17{fill-rule:evenodd;}.cls-15{fill:#f4c9b2;}</style></defs><title>explorers_ISTP_famous_fictional_jessica_jones</title><polygon class="cls-1" points="145.31 99.95 193.89 154.75 161.85 180.06 145.31 99.95"/><polygon class="cls-2" points="100.17 389.52 201.63 400.5 292.36 389.52 201.63 383.61 100.17 389.52"/><polygon class="cls-3" points="153.09 377.59 128.28 384.55 128.4 390.58 163.72 390.94 169.03 387.63 173.17 390.94 182.73 390.58 182.14 384.68 153.09 377.59"/><polygon class="cls-1" points="160.18 364.47 154.63 366.72 128.28 384.55 182.14 384.68 181.67 371.21 160.18 364.47"/><polygon class="cls-4" points="157.93 249.42 152.73 249.42 145.05 274.11 154.63 366.72 181.67 371.21 195.75 297.73 157.93 249.42"/><polygon class="cls-3" points="151.18 333.41 154.63 366.72 181.67 371.21 188.91 333.41 151.18 333.41"/><polygon class="cls-3" points="219.47 386.45 210.26 388.22 210.49 394 251.13 394 250.66 388.33 246.99 386.56 219.47 386.45"/><polygon class="cls-1" points="226.79 367.55 219.83 368.97 210.26 388.22 250.66 388.33 244.51 372.63 226.79 367.55"/><polygon class="cls-4" points="182.55 273.45 194.15 292.77 219.83 368.97 244.51 372.63 244.63 275.84 229.28 260.58 203.58 254.56 182.55 273.45"/><polygon class="cls-3" points="207.99 333.86 219.83 368.97 244.51 372.63 242.77 333.41 207.99 333.86"/><polygon class="cls-5" points="155.68 257.57 145.05 274.11 195.75 297.73 244.63 275.84 179.9 247.18 155.68 257.57"/><polygon class="cls-6" points="171.8 140.22 203.66 19.64 249.64 145.98 195.85 180.06 175.68 144.56 171.8 140.22"/><polygon class="cls-7" points="171.8 140.22 197.97 140.22 216.98 125.14 232.15 79.6 197.99 19.64 150.48 32.72 142.36 79.23 153.99 121.58 171.8 140.22"/><polygon class="cls-8" points="175.68 144.56 152.73 249.42 145.05 274.11 244.63 275.84 226.56 236.88 225.54 144.86 195.09 177.42 175.68 144.56"/><polygon class="cls-4" points="256.52 163.03 241.41 253.2 193.97 253.38 194.76 213.57 229.26 163.03 230.81 150.2 256.52 163.03"/><polygon class="cls-9" points="256.52 163.03 259.07 155.52 224.89 141.96 222.23 150.06 256.52 163.03"/><polygon class="cls-5" points="143.28 162.19 144.05 257.05 183.42 257.05 187.47 218.65 169.03 148.31 140.8 156.26 143.28 162.19"/><polygon class="cls-9" points="172.49 141.96 137.74 154.29 143.28 162.19 167.29 153.02 172.49 141.96"/><polygon class="cls-4" points="222.23 139.14 249.69 179.98 211.19 171.23 222.23 139.14"/><polygon class="cls-4" points="176.57 171.23 175.97 163.03 175.68 144.56 171.8 140.22 147.59 173.03 176.57 171.23"/><polyline class="cls-9" points="148.82 190 187.47 218.65 175.97 163.03"/><polygon class="cls-9" points="214 163.03 194.76 213.57 236.88 185.77 214 163.03"/><polygon class="cls-5" points="256.46 156.52 273.66 221.73 239.26 226.57 256.52 163.03 256.46 156.52"/><polygon class="cls-4" points="148.44 217.93 143.28 162.19 124.72 215.97 148.44 217.93"/><polygon class="cls-10" points="171.8 140.22 197.97 140.22 219.89 140.22 197.74 169.28 171.8 140.22"/><polygon class="cls-6" points="191.87 103.58 201.56 82.5 219.25 78.31 203.98 73.94 187.75 77.74 186.54 81.9 182.22 94.3 191.87 103.58"/><polygon class="cls-6" points="172.81 103.58 179.67 95.34 179.11 81.9 176.12 77.42 158.92 73.38 150.92 76.85 164.9 80.53 172.81 103.58"/><circle class="cls-1" cx="165.26" cy="80.53" r="4.16"/><circle class="cls-1" cx="201.92" cy="81.9" r="4.16"/><polygon class="cls-1" points="187.75 77.74 187.75 74.75 204.63 71.44 219.57 76.37 219.25 78.31 204.47 75.88 187.75 77.74"/><polygon class="cls-1" points="176.12 77.42 175.64 74.87 160.45 70.47 150.04 73.94 150.92 76.85 160.1 74.95 176.12 77.42"/><polygon class="cls-6" points="167.88 119.73 181.94 129.99 197.36 121.43 186.22 118.52 167.88 119.73"/><polygon class="cls-10" points="167.88 119.73 177.49 115.02 181.85 117.23 187.75 115.66 197.36 121.43 167.88 119.73"/><polygon class="cls-10" points="172.81 103.58 191.87 103.58 181.69 110.36 172.81 103.58"/><polygon class="cls-11" points="172.81 103.58 177.66 94.7 179.11 81.9 186.54 81.9 187.26 94.62 191.87 103.58 172.81 103.58"/><polygon class="cls-12" points="193.89 33.73 201.92 16.93 193.89 0.5 163.08 0.5 169.42 40.83 193.89 33.73"/><polygon class="cls-12" points="169.42 40.83 132.19 62.8 156.84 166.02 150.92 64.74 169.42 40.83"/><polygon class="cls-13" points="169.42 40.83 132.19 62.8 121.21 70.47 142.36 17.57 163.08 0.5 169.42 40.83"/><polygon class="cls-3" points="121.21 70.47 100.86 126.44 111.03 157.77 132.19 62.8 121.21 70.47"/><polygon class="cls-3" points="156.84 166.02 124.92 216.08 112.51 195.47 129.93 156.17 132.19 62.8 156.84 166.02"/><polygon class="cls-1" points="112.51 195.47 108.45 188.3 111.03 157.77 132.19 62.8 129.93 156.17 112.51 195.47"/><polygon class="cls-13" points="193.89 33.73 201.92 16.93 213.91 13.05 234.57 59.73 245.66 150.2 226.39 109.1 219.22 62.8 193.89 33.73"/><polygon class="cls-3" points="193.89 0.5 219.89 6.59 213.91 13.05 201.92 16.93 193.89 0.5"/><polygon class="cls-12" points="219.89 6.59 248.84 47.85 259.07 139.14 279.52 170.63 280.04 179.31 245.66 150.2 234.57 59.73 213.91 13.05 219.89 6.59"/><polygon class="cls-3" points="226.39 109.1 214 163.03 279.55 195.53 280.04 179.31 245.66 150.2 226.39 109.1"/><polygon class="cls-1" points="214 163.03 257.86 201.05 269.89 204.6 279.55 195.53 214 163.03"/><polygon class="cls-14" points="241.41 253.2 229.31 263.07 228.67 283.81 239.57 282.91 256.56 266.52 241.41 253.2"/><polygon class="cls-15" points="239.57 282.91 231.06 288.69 219.36 278.8 229.31 263.07 239.57 282.91"/><polygon class="cls-14" points="144.08 257.27 154.18 266.14 154.82 286.87 143.92 285.97 130.74 271.15 144.08 257.27"/><polygon class="cls-15" points="143.92 285.97 152.43 291.76 164.13 281.87 154.18 266.14 143.92 285.97"/><polygon class="cls-16" points="144.08 257.27 148.44 217.93 124.72 215.97 127.83 281.65 144.08 257.27"/><polygon class="cls-16" points="241.41 253.2 239.26 226.57 273.66 221.73 255.81 281.65 241.41 253.2"/><polygon class="cls-17" points="244.63 278.02 255.81 281.65 250.8 272.07 244.63 278.02"/><polygon class="cls-17" points="127.83 281.65 139.16 280.62 133.07 273.78 127.83 281.65"/></svg>