<svg id="Layer_1" data-name="Layer 1" xmlns="http://www.w3.org/2000/svg" viewBox="0 0 400 400"><defs><style>.cls-1,.cls-18{fill:#2b2b2b;}.cls-1,.cls-10,.cls-11,.cls-12,.cls-13,.cls-14,.cls-15,.cls-16,.cls-17,.cls-18,.cls-2,.cls-3,.cls-4,.cls-5,.cls-6,.cls-7,.cls-8,.cls-9{fill-rule:evenodd;}.cls-1{opacity:0.1;}.cls-2{fill:#836528;}.cls-3{fill:#b38b2e;}.cls-4{fill:#755924;}.cls-5{fill:#d0ae95;}.cls-6{fill:#cbad2d;}.cls-7{fill:#9c782c;}.cls-8{fill:#474748;}.cls-9{fill:#4f5353;}.cls-10{fill:#eed2c1;}.cls-11{fill:#a8836c;}.cls-12{fill:#f3d65c;}.cls-13{fill:#9d8d54;}.cls-14{fill:#c1b170;}.cls-15{fill:#e1ce7f;}.cls-16{fill:#fff7ae;}.cls-17{fill:#f6e5db;}</style></defs><title>explorers_ISTP_famous_fictional_jack_bauer_24</title><polygon class="cls-1" points="107.47 385.91 229.32 400 321.11 386.22 230.27 375.19 107.47 385.91"/><path class="cls-2" d="M153.37,376.31c-2.11.57-17.43,6.2-17.43,6.2l.32,6.12,56.52-1.72-.38-6.3-21.07-6.79Z"/><polygon class="cls-3" points="169.99 350.32 161.94 362.26 136.07 377.17 135.94 382.51 192.4 380.61 190.63 362.93 169.99 350.32"/><polygon class="cls-4" points="176.3 302.17 160.67 318.39 161.94 362.26 190.63 362.93 194.45 334.33 176.3 302.17"/><polygon class="cls-2" points="185.19 269.55 160.67 318.39 194.45 334.33 228.81 303.46 214.7 273.89 185.19 269.55"/><path class="cls-5" d="M239.87,92.6l12.18,19.1-9.32,36.92L221,161.57S198,46.75,198.16,44.2s23-17.69,23-17.69l21.33,31.2Z"/><polygon class="cls-6" points="193.25 190.74 180.85 177.56 160.67 202.97 186.09 218.75 196.79 206.88 193.25 190.74"/><polygon class="cls-2" points="265.64 377.5 244.81 385.69 244.64 392.25 286.23 392.25 285.79 385.69 265.64 377.5"/><polygon class="cls-3" points="260.48 351.71 251.88 367.79 244.81 385.69 285.79 385.69 278.44 362.48 260.48 351.71"/><polygon class="cls-2" points="226.28 313.91 229.48 338.23 251.88 367.79 278.44 362.48 265.3 327.01 226.28 313.91"/><polygon class="cls-7" points="230.75 275.6 214.32 302.17 229.48 338.23 265.3 327.01 262.28 272.36 230.75 275.6"/><polygon class="cls-4" points="193.49 259.17 187.66 264.52 185.19 269.55 214.32 302.17 262.28 272.36 259.61 260.7 232.47 236.05 193.49 259.17"/><polygon class="cls-6" points="212.78 263.19 187.66 264.52 186.09 250.67 214.06 238.57 229.48 249.18 212.78 263.19"/><polygon class="cls-3" points="260.37 234.9 261.52 247.99 259.61 260.7 212.78 263.19 211.34 249.8 214.06 238.57 216.13 237.67 244.61 227.16 259.99 228.03 260.37 234.9"/><polygon class="cls-8" points="249.43 224.96 256.6 232.51 256.98 248.23 261.52 247.99 266.72 205.07 249.1 205.66 249.43 224.96"/><path class="cls-9" d="M239.73,233l16.87-.53-.29-12s-9.86-16-11.37-14.92l-19.87,14Z"/><polygon class="cls-3" points="256.02 200.41 239.78 211.3 240.74 220.86 256.79 220.47 266.72 205.07 256.02 200.41"/><polygon class="cls-8" points="211.34 249.8 247.62 248.56 247.04 202.89 208.47 216.12 202.23 229.88 211.34 249.8"/><polygon class="cls-9" points="194.11 221.05 182.24 226.53 186.09 250.67 211.34 249.8 210.35 231.25 208.47 216.12 194.11 221.05"/><polygon class="cls-6" points="180.16 209.96 182.24 226.53 164.49 245.31 149.61 234.43 148.15 216.96 157.06 209.71 180.16 209.96"/><polygon class="cls-7" points="149.61 234.43 138.6 225.5 139.61 223.91 148.15 216.96 160.29 222.84 149.61 234.43"/><polygon class="cls-8" points="87.3 177.93 79.84 184.43 80.89 191.69 101.94 191.98 110.13 180.9 87.3 177.93"/><polygon class="cls-9" points="111.78 192.56 101.94 191.98 100.86 184.24 79.84 184.43 78.89 175.26 139.65 175.07 142.31 182.43 143.86 188.22 125.89 195.25 111.78 192.56"/><polygon class="cls-8" points="123.98 213.29 114.81 200.48 111.78 192.56 112.09 188.47 132.2 188.25 143.86 188.22 145.77 195.32 153.22 203.42 140.72 215.52 130.8 215.01 123.98 213.29"/><polygon class="cls-10" points="122.22 211.84 116.29 209.75 114.81 200.48 131.72 200.13 132.77 206.22 122.22 211.84"/><polygon class="cls-10" points="149.21 182.9 132.39 181.75 132.2 188.25 145.77 195.32 149.21 182.9"/><polygon class="cls-5" points="156.47 210.8 160.67 202.97 145.77 195.32 149.76 211.51 156.47 210.8"/><polygon class="cls-5" points="143.09 216.92 138.51 232.77 118.06 220.93 116.29 209.75 132.4 204.05 143.09 216.92"/><polygon class="cls-10" points="176.53 213.86 160.67 202.97 132.4 204.05 138.51 232.77 160.29 222.84 176.53 213.86"/><path class="cls-3" d="M174.62,164.56,188,172.93l12.67,11.79L206.34,199l-16.73,1.47.59,5.89,28.18,4.87s18.31-30.63,16.8-31.84-43-19.21-43-19.21Z"/><polygon class="cls-6" points="186.51 177.21 189.61 200.42 206.34 198.95 203.95 182.62 194.35 176.76 186.51 177.21"/><polygon class="cls-8" points="220.31 165.16 206.34 198.95 233.28 208.32 247.81 185.39 253.54 166.85 244.56 162.26 220.31 165.16"/><polygon class="cls-9" points="180.85 177.56 180.16 205.45 200.23 207.17 206.34 198.95 194.35 176.76 186.75 172.13 180.85 177.56"/><polygon class="cls-7" points="214.37 207.36 206.34 198.95 192.1 200.88 186.49 206.15 194.11 228.52 210.35 231.25 214.37 207.36"/><polygon class="cls-5" points="160.67 202.97 160.29 222.84 194.11 228.52 192.1 200.88 160.67 202.97"/><polygon class="cls-11" points="168.54 130.41 184.97 155.72 203.95 182.62 227.86 164.33 232.16 151.23 225.4 146.08 168.54 130.41"/><polygon class="cls-12" points="207.58 157.3 203.95 182.62 244.56 162.26 242.73 148.62 207.58 157.3"/><polygon class="cls-13" points="242.47 31.09 248.67 25.54 263.85 40.02 260.17 75.58 244.06 82.76 233.72 82.76 227.6 49.45 242.47 31.09"/><path class="cls-14" d="M200.37,14.62l36.5-10,11.8,21L227.61,49.45l-8.18-6.58L188,41.05s-7.4-23.43-8.17-25S200.37,14.62,200.37,14.62Z"/><path class="cls-15" d="M193.46,5.69h.88c5.48-.08,42.53-1.11,42.53-1.11L195.75,24.66l-22.51-3.17L173.46,10Z"/><polygon class="cls-16" points="171.8 18.17 138.76 13.7 172.13 0.38 236.87 4.58 182.52 12.81 171.8 18.17"/><polygon class="cls-13" points="150.03 16.73 128.04 44.14 138.98 58.89 164.51 43.81 163.07 21.82 150.03 16.73"/><polygon class="cls-14" points="170.14 43.97 157.1 24.75 138.76 13.7 182.52 12.81 196.22 24.3 170.14 43.97"/><polygon class="cls-10" points="138.98 58.89 150.94 130.81 172.55 155.74 225.4 146.08 219.43 42.87 196.22 24.3 171.47 32.26 157.1 24.75 138.98 58.89"/><polygon class="cls-6" points="253.54 166.85 206.34 198.95 210.35 231.25 266.72 205.07 253.54 166.85"/><polygon class="cls-10" points="120.31 192.24 129.96 192.15 131.48 197.88 121.26 198.36 120.31 192.24"/><polygon class="cls-8" points="116.02 177.92 129.2 178.01 129.2 180.16 116.4 179.78 116.02 177.92"/><polygon class="cls-8" points="116.23 180.74 129.42 180.83 129.42 182.98 116.61 182.6 116.23 180.74"/><polygon class="cls-8" points="116.45 183.43 129.63 183.53 129.63 185.68 116.83 185.3 116.45 183.43"/><polygon class="cls-5" points="154.48 75.91 166.93 76.75 170.52 80.45 175.01 85.38 177.08 88.97 181.85 84.37 187.35 79.21 189.31 75.46 205.12 67.89 211.13 69.9 188.24 109.5 179.72 93.52 174.11 111.29 149.21 79.1 154.48 75.91"/><polygon class="cls-11" points="180.17 99.52 174.11 111.29 183.42 115.11 188.24 109.5 180.17 99.52"/><polygon class="cls-17" points="175.01 85.38 174.11 111.29 188.24 109.5 181.85 84.37 175.01 85.38"/><polygon class="cls-13" points="170.52 80.45 170.74 75.74 154.59 73.83 147.97 77.87 149.21 79.1 154.81 77.31 170.52 80.45"/><polygon class="cls-13" points="187.35 79.21 185.44 74.17 204.62 65.75 211.91 68 211.13 69.9 205.29 69.57 187.35 79.21"/><polygon class="cls-11" points="174.25 134.54 185.63 129.66 201.4 127.64 207.23 122.26 203.24 130.9 186.31 132.75 175.88 136.67 174.25 134.54"/><polygon class="cls-11" points="204.17 120.83 212.78 127.9 209.53 118.73 204.17 120.83"/><polygon class="cls-5" points="204.17 120.83 188.24 109.5 193.89 108.8 204.17 120.83"/><polygon class="cls-5" points="171.89 132.96 174.11 111.29 170.34 113.67 171.89 132.96"/><path class="cls-18" d="M161,92.51a3.58,3.58,0,1,0-3.58-3.58A3.58,3.58,0,0,0,161,92.51Z"/><path class="cls-18" d="M198.19,88.72a3.58,3.58,0,1,0-3.57-3.57A3.58,3.58,0,0,0,198.19,88.72Z"/><polygon class="cls-11" points="245.58 94.81 239.34 97.83 252.06 111.7 255.8 98.51 245.58 94.81"/><polygon class="cls-10" points="240.55 73.83 239.34 97.83 255.8 98.51 260.17 75.58 240.55 73.83"/><polygon class="cls-11" points="255.55 81.19 246.61 79.95 246.61 90.76 255.55 81.19"/></svg>