<svg id="Layer_1" data-name="Layer 1" xmlns="http://www.w3.org/2000/svg" viewBox="0 0 400 400"><defs><style>.cls-1{opacity:0.15;}.cls-2{fill:#33231b;}.cls-10,.cls-11,.cls-12,.cls-13,.cls-14,.cls-15,.cls-16,.cls-17,.cls-19,.cls-2,.cls-20,.cls-3,.cls-4,.cls-5,.cls-6,.cls-7,.cls-8,.cls-9{fill-rule:evenodd;}.cls-3{fill:#ab913c;}.cls-4{fill:#755446;}.cls-18,.cls-5{fill:#51362a;}.cls-6{fill:#9c782c;}.cls-7{fill:#f0bc67;}.cls-8{fill:#916d5a;}.cls-9{fill:#98796a;}.cls-10{fill:#e1a940;}.cls-11{fill:#b38b2e;}.cls-12,.cls-14{fill:#2b2b2b;}.cls-12{opacity:0.2;}.cls-13{fill:#dcdcdb;}.cls-15{fill:#cbad2d;}.cls-16{fill:#755924;}.cls-17{fill:#f3d65c;}.cls-19{fill:#fff;}.cls-20{fill:#836528;}.cls-21{fill:none;}</style></defs><title>explorers_ISTP_famous_real_michael_jordan</title><g class="cls-1"><polygon class="cls-2" points="131.01 388.23 199.7 400 283.75 389.34 203.36 378.69 145.3 385.99 131.01 388.23"/></g><polygon class="cls-3" points="145.3 385.99 144.99 380.74 155.51 378.82 183.99 378.92 187.64 379.5 187.56 385.51 145.3 385.99"/><polygon class="cls-3" points="234.81 384.71 226.07 386.4 226.12 392.63 260.32 392.61 260.24 386.43 254.43 384.71 234.81 384.71"/><polygon class="cls-4" points="251.17 362.23 249.75 320.33 233.5 318.38 214.37 329.02 228.6 362.2 243.81 367.4 251.17 362.23"/><polygon class="cls-5" points="210.32 319.58 234.94 315.65 249.75 320.33 214.37 329.02 210.32 319.58"/><polygon class="cls-6" points="226.07 386.4 231.92 369.94 243.81 367.4 251.79 369.94 260.24 386.43 226.07 386.4"/><polygon class="cls-7" points="228.6 362.2 231.92 369.94 251.79 369.94 251.17 362.23 228.6 362.2"/><polygon class="cls-4" points="186.3 358 191.87 319.9 174.65 314.76 152.77 317.84 165.69 365.48 178.47 360.25 186.3 358"/><polygon class="cls-5" points="191.87 319.9 174.65 314.76 174.6 314.76 152.77 317.84 155.29 327.1 191.87 319.9"/><polygon class="cls-6" points="144.99 381.28 165.69 365.48 176.03 363.18 185.56 365.48 187.64 380.16 144.99 381.28"/><polygon class="cls-7" points="163.5 357.61 165.69 365.48 185.55 365.48 186.36 357.61 163.5 357.61"/><polygon class="cls-6" points="145.97 317.48 191.87 319.9 192.43 315.06 191.42 312.9 192.92 310.88 196.17 283.1 181.47 262.57 152.88 262.1 145.97 264.55 145.97 308.69 147.06 311.07 145.97 313.03 145.97 317.48"/><polygon class="cls-6" points="200.48 319.9 199.62 315.58 199.51 313.23 198.66 310.83 195.04 292.77 197.7 284.71 241.33 265.3 248.09 266.13 249.46 310.65 248.16 312.79 249.61 315.67 249.75 320.33 200.48 319.9"/><polygon class="cls-4" points="157.91 176.6 157.01 153.71 112.4 191.7 115.33 200.84 126.14 205.32 142.51 202.12 152.81 197.25 157.91 176.6"/><polygon class="cls-8" points="126.14 205.32 112.4 191.7 97.63 237.21 107.17 238.18 126.14 205.32"/><polygon class="cls-8" points="100.98 255.39 97.63 237.21 108.01 236.73 115.39 247.75 110.99 253.72 100.98 255.39"/><polygon class="cls-4" points="100.98 255.39 115.39 247.75 127 255 121.02 257.86 100.98 255.39"/><polygon class="cls-4" points="251.15 151.17 279.41 189.3 274.39 214.05 262.67 217.69 249.36 208.5 244.73 175.09 251.15 151.17"/><polygon class="cls-8" points="172.25 130.69 180.4 143.03 175.69 145.2 175.84 170.76 220.57 170.54 233.26 146.43 225.37 144.33 224.4 126.08 211.97 131.35 172.25 130.69"/><polygon class="cls-4" points="200.59 133.83 188.43 162.74 228.02 145 244.56 91.52 243.52 82.35 256.06 57.29 238.75 20.29 216.69 13.13 216.25 20.29 206.55 23.87 195.82 130.02 200.59 133.83"/><polygon class="cls-9" points="212.51 3.88 175.54 0 182.1 8.36 201.78 19.09 216.25 20.29 238.75 20.29 212.51 3.88"/><polygon class="cls-8" points="152.88 130.02 195.82 130.02 212 103.23 216.25 20.29 175.54 0 135.15 24 135.62 92.82 152.88 130.02"/><polygon class="cls-5" points="233.4 81.75 244.56 91.52 248.59 79.52 244.13 76.38 233.4 81.75"/><path class="cls-10" d="M141.44,258.47c19.08,0,34.64-14.08,34.64-31.35s-15.56-31.36-34.64-31.36-34.65,14.09-34.65,31.36,15.56,31.35,34.65,31.35"/><path class="cls-11" d="M148.38,196.39a37.29,37.29,0,0,1,3.82.92L141.66,224.8l9.05-.84-.32,2.92-8.48.8,7.86,16.6-2.38,2.9L138.67,228l-3.69.35,6,30.14c-1.23,0-2.45-.09-3.65-.22l-5.57-29.61-3.67.34-3.25,25.65c-1-.5-2-1-2.94-1.64.41-3.19,2.35-18.35,3.17-23.72l-18,1.69a28.46,28.46,0,0,1-.24-2.93l17.8-1.65c-2.54-4-10.55-18.34-10.59-18.43.65-.76,1.35-1.5,2.08-2.22l11.43,20.38,3.66-.34-5-26.79c.91-.41,1.84-.78,2.8-1.11l5.46,27.6,3.75-.35Z"/><path class="cls-12" d="M143.84,258.39l.31,0,1.43-.13a39,39,0,0,0,3.94-.64l-2.13-10.42,3.12.73-1.8-8.12-25.31,1.33L107.06,231c0,.07,0,.14,0,.2l.53,2.72a2.25,2.25,0,0,0,0,.22l4.2,9.33h0c.48.7,1,1.38,1.51,2l.15.19c.52.64,1.06,1.25,1.63,1.84l.24.26c.57.59,1.17,1.17,1.79,1.72l.17.15a35.31,35.31,0,0,0,4.2,3.14l.2.13c.73.46,1.48.89,2.25,1.3l.23.12c.79.41,1.6.8,2.43,1.15l0,0q1.31.55,2.67,1l.27.09c.44.15.87.28,1.31.41l.61.16.82.21.37.1,1.23.26,1.26.23,1.26.19.39,0,.41.05c.45.05.91.09,1.36.12l.38,0,.32,0c.69,0,1.38.06,2.09.06s1.39,0,2.08-.06Z"/><polygon class="cls-8" points="235.78 53.71 234.2 72.28 233.4 81.75 248.59 79.52 256.06 57.29 235.78 53.71"/><polygon class="cls-5" points="241.14 58.52 239.62 72.21 249.5 60.04 241.14 58.52"/><polygon class="cls-13" points="239.19 77.51 243.41 77.17 243.47 85.48 238.46 86.12 239.19 77.51"/><polygon class="cls-4" points="143.93 48.33 154.22 60.54 163.08 76.06 167.21 58.86 164.04 51.74 143.93 48.33"/><polygon class="cls-4" points="177.53 51.34 174.8 58.49 180.27 83.07 187.85 59.61 200.59 45.35 177.53 51.34"/><polygon class="cls-14" points="145.13 45.95 143.93 48.33 164.04 51.74 163.81 47.96 145.13 45.95"/><polygon class="cls-14" points="177.03 47.44 177.53 51.34 200.59 45.35 198.8 42.96 177.03 47.44"/><path class="cls-14" d="M154.22,64.42a3.88,3.88,0,1,0-4-3.88,3.94,3.94,0,0,0,4,3.88"/><path class="cls-14" d="M188.43,63.75a4.15,4.15,0,1,0-4-4.14,4.07,4.07,0,0,0,4,4.14"/><polygon class="cls-15" points="219.14 167.94 233.26 146.43 251.15 151.17 249.33 209.4 247.85 242.63 233.03 247.95 228.3 257.86 151.92 256.43 147.39 253.53 152.2 203.65 157.01 153.71 175.69 145.2 177.52 167.94 219.14 167.94"/><polygon class="cls-16" points="195.04 292.77 237.19 271.61 225.34 263.15 149.57 262.24 145.97 264.55 195.04 292.77"/><polygon class="cls-17" points="147.39 253.53 227.26 254.69 231.96 258.73 224.17 265.76 145.97 264.55 147.39 253.53"/><polygon class="cls-4" points="256.61 253.7 253.59 246.93 247.85 242.63 230.35 247 230.99 255.05 248.09 266.13 256.61 253.7"/><polygon class="cls-8" points="237.19 271.61 218.71 265.68 230.35 247 248.09 266.13 237.19 271.61"/><polygon class="cls-8" points="262.67 217.69 247.85 242.63 256.61 253.7 283.17 233.34 277.73 220.11 262.67 217.69"/><polygon class="cls-11" points="283.17 233.34 262.67 217.69 279.41 189.3 302.37 218.59 283.17 233.34"/><polygon class="cls-17" points="173.45 146.22 169.8 147.89 172.25 174.87 222.96 174.44 240.14 148.25 235.97 147.15 220.57 170.54 175.84 170.76 173.45 146.22"/><polygon class="cls-17" points="164.49 150.31 160.67 194.7 152.2 203.65 152.81 197.25 156.16 193.39 159.83 152.43 164.49 150.31"/><polygon class="cls-17" points="249 216.66 241.14 205.6 243.21 149.06 247.91 150.31 246.54 203.86 249.36 208.5 249 216.66"/><polygon class="cls-7" points="145.97 308.69 192.92 310.88 192.43 315.06 145.97 313.03 145.97 308.69"/><polygon class="cls-7" points="198.66 310.83 249.46 310.65 249.61 315.67 199.62 315.58 198.66 310.83"/><polygon class="cls-6" points="171.21 190.71 186.04 190.28 192.74 195.91 191.78 211.49 180.18 219.05 191.87 218.81 190.87 227.12 168.82 226.48 168.82 216.25 180.3 207.16 180.78 199.37 168.34 199.37 171.21 190.71"/><polygon class="cls-6" points="201.67 211.88 209.49 214.09 208.71 219.28 197.32 218.81 196.41 227.47 219.65 228.73 221.92 212.47 216.85 209.2 221.03 205.7 221.63 195.91 214.93 190.28 198.8 191.1 197.23 199.37 209.67 199.37 209.31 205.22 202.15 205.82 201.67 211.88"/><polygon class="cls-5" points="170.47 130.02 219.33 130.02 188.43 162.74 170.47 130.02"/><polygon class="cls-4" points="97.63 237.21 107.64 234.03 115.48 247.89 111.91 249.89 97.63 237.21"/><polygon class="cls-18" points="161.39 83.07 170.47 89.16 180.27 83.07 161.39 83.07"/><polygon class="cls-9" points="180.27 83.07 174.8 58.49 177.53 51.34 164.04 51.74 167.21 58.86 161.39 83.07 180.27 83.07"/><polygon class="cls-5" points="155.14 97.75 194.23 92.82 184.45 104.5 166.39 106.33 155.14 97.75"/><polygon class="cls-19" points="160.13 99.05 188.75 95.53 184.89 99.94 164.56 102.35 160.13 99.05"/><polygon class="cls-20" points="237.19 271.61 248.65 284.34 248.09 266.13 237.19 271.61"/><line class="cls-21" x1="152.44" y1="317.82" x2="165.69" y2="365.48"/></svg>