<svg id="Layer_1" data-name="Layer 1" xmlns="http://www.w3.org/2000/svg" viewBox="0 0 400 400"><defs><style>.cls-1{fill:#9c782c;}.cls-1,.cls-10,.cls-11,.cls-12,.cls-13,.cls-14,.cls-15,.cls-16,.cls-17,.cls-18,.cls-2,.cls-3,.cls-4,.cls-6,.cls-7,.cls-8,.cls-9{fill-rule:evenodd;}.cls-2{fill:#bc8f2d;}.cls-3{fill:#755924;}.cls-4{fill:#474748;}.cls-5{opacity:0.15;}.cls-6{fill:#070908;}.cls-7{fill:#4f5353;}.cls-19,.cls-8{fill:#f4cab2;}.cls-9{fill:#6f7273;}.cls-10,.cls-20{fill:#c18f7c;}.cls-11{fill:#e1a940;}.cls-12{fill:#fbe3d4;}.cls-13{fill:#cecdcc;}.cls-14{fill:#836528;}.cls-15{fill:#ba8e2d;}.cls-16{fill:#f0bc67;}.cls-17{fill:#8c7c2f;}.cls-18,.cls-23{fill:#ab913c;}.cls-21{fill:#fff0e8;}.cls-22{fill:#2b2b2b;}</style></defs><title>explorers_ISTP_famous_fictional_hawkeye</title><polygon class="cls-1" points="308.09 83.37 302.8 118.07 307.2 109.12 318.82 90.36 321.62 79.8 308.09 83.37"/><polygon class="cls-2" points="330.52 92.98 307.08 118.51 311.17 110.55 318.82 90.36 325.67 82.32 330.52 92.98"/><polygon class="cls-3" points="325.39 72.13 297.93 125.38 302.32 124.96 305.93 120.75 329.77 74.32 325.39 72.13"/><polygon class="cls-4" points="203.25 143.23 210.09 130.21 285.27 122.77 342.4 139.5 203.25 143.23"/><g class="cls-5"><polygon class="cls-6" points="254.38 399.92 135.96 390.22 253.81 379.17 364.79 389.6 335.02 392.75 254.38 399.92"/></g><polygon class="cls-2" points="153.9 176.51 150.93 158.87 162.39 145.25 214.29 141.15 209.78 181.38 208.67 184.53 153.9 176.51"/><polygon class="cls-1" points="327.45 88.24 311.45 119.48 318.45 112.38 335.41 98.27 341.41 89.13 327.45 88.24"/><polygon class="cls-7" points="233.53 209.38 234.61 248.04 254.09 257.73 286.1 245.13 287.02 192.68 239.37 187.35 233.53 209.38"/><polygon class="cls-7" points="300.1 320.15 278.05 319.12 261.25 288.99 255.44 277.06 271.47 265.85 284.54 256.64 288.4 278.62 311.27 275.94 315.34 309.11 300.1 320.15"/><polygon class="cls-4" points="278.05 319.12 315.34 309.11 319.63 344.15 309.23 350.56 295.23 350.19 278.05 319.12"/><polygon class="cls-8" points="60.34 141.18 60.49 145.78 80.86 150.69 83.05 152.19 81.52 139.37 60.34 141.18"/><polygon class="cls-4" points="168.1 379.75 168.57 386 218.53 386 218.19 378.83 199.85 375.06 168.1 379.75"/><polygon class="cls-9" points="196.88 359.74 168.1 379.75 218.19 378.83 217.22 359.92 214.95 356.64 200.69 356.71 196.88 359.74"/><polygon class="cls-4" points="301.07 392.75 300.95 385.69 319.08 381.81 334.83 386.24 335.02 392.75 301.07 392.75"/><polygon class="cls-9" points="304.46 366.9 300.95 385.69 334.83 386.24 322.13 364.52 318.51 362.59 307.15 364.45 304.46 366.9"/><polygon class="cls-7" points="207.81 278.24 203.47 313.05 221.35 320.75 243.39 318.07 271.47 265.85 232.87 271.79 230.49 280.7 207.81 278.24"/><polygon class="cls-4" points="203.47 313.05 243.39 318.07 226.13 350.19 212.55 349.9 199.59 344.2 203.47 313.05"/><polygon class="cls-4" points="199.73 343.07 226.13 350.19 217.44 366.9 197.79 359.02 199.73 343.07"/><polygon class="cls-4" points="304.46 366.9 322.13 364.52 319.63 344.15 295.23 350.19 304.46 366.9"/><polygon class="cls-4" points="242.34 246.29 240.4 255.56 244.15 260.8 267.23 248.52 242.34 246.29"/><polygon class="cls-9" points="231.76 260.8 230.49 280.7 285.34 261.19 287.06 248.62 284.09 242.68 231.76 260.8"/><polygon class="cls-9" points="182.78 245.81 186.89 260.92 202.02 264.16 195.19 251.15 182.78 245.81"/><polygon class="cls-4" points="214.97 209.94 182.78 245.81 202.02 264.16 213.96 251.27 223.41 234.32 214.97 209.94"/><polygon class="cls-9" points="288.31 324.71 329.93 313.05 315.16 245.73 294.63 249.71 284.09 242.68 288.31 324.71"/><polygon class="cls-9" points="294.85 253.09 284.09 242.68 293.41 232.75 311.64 230.77 315.16 245.73 294.85 253.09"/><polygon class="cls-4" points="315.36 182.36 299.6 187.26 284.01 194.98 284.09 242.68 311.64 230.77 315.36 182.36"/><polygon class="cls-9" points="233.53 324.71 192.4 320.15 213.96 251.27 224.53 251.4 242.34 246.29 233.53 324.71"/><polygon class="cls-9" points="213.96 251.27 232.94 259.18 242.34 246.29 222.75 234.86 217.15 237.08 213.96 251.27"/><polygon class="cls-4" points="212.44 182.71 208.67 184.53 214.97 224.42 216.91 229.03 217.15 237.08 242.34 246.29 242.15 192.38 212.44 182.71"/><polygon class="cls-7" points="243.55 147.19 232.97 163.86 242.15 192.38 284.01 194.98 289.13 168.25 284.22 150.58 263.54 165.17 243.55 147.19"/><polygon class="cls-10" points="263.29 169.16 244.12 151.22 255.96 146.01 285.89 149.22 273.6 160.82 263.29 169.16"/><polygon class="cls-9" points="214.29 141.15 208.67 184.53 242.15 192.38 239.88 151.32 234.21 139.51 214.29 141.15"/><polygon class="cls-9" points="315.36 182.36 284.01 194.98 284.22 150.58 290.16 142.5 302.12 143.23 312.37 163.28 315.36 182.36"/><polygon class="cls-11" points="278.05 193.88 279.66 150.86 284.22 150.58 295.23 131.71 309.82 136.7 284.22 167.6 284.01 194.98 278.05 193.88"/><polygon class="cls-2" points="370.43 157.19 314.93 183.79 302.12 143.23 343.4 144.12 370.43 157.19"/><polygon class="cls-11" points="114.49 171.39 153.9 176.51 162.39 145.25 115.02 148.8 110.88 158.56 114.49 171.39"/><polygon class="cls-10" points="87.12 157.78 94.95 171.82 105.73 170.25 107.38 167.77 105.83 165.28 94.52 153.25 87.12 157.78"/><polygon class="cls-4" points="86.5 94.9 79.22 137.39 85.79 139.27 92.82 137.39 95.85 93.86 91.54 92.08 86.5 94.9"/><polygon class="cls-9" points="93.33 75.59 86.5 94.9 95.85 93.86 100.31 77.94 96.65 74.42 93.33 75.59"/><polygon class="cls-9" points="212.91 212.52 284.22 150.58 290.16 142.5 302.12 143.23 217.15 237.08 212.91 212.52"/><polygon class="cls-1" points="345.69 104.45 315.36 121.25 321.76 115 335.41 98.27 344.45 92.8 345.69 104.45"/><polygon class="cls-3" points="347.42 83.05 307.73 123.25 308.81 125.86 313.56 123.01 350.88 86.51 347.42 83.05"/><polygon class="cls-8" points="298.77 109 292.75 124.96 294.65 125.74 279.93 120.21 277.16 88.61 290.65 39.29 298.77 109"/><polygon class="cls-11" points="217.37 140.9 234.68 169.16 240.53 187.35 244.97 183.03 243.08 151.25 239.88 151.32 228.42 139.15 217.37 140.9"/><polygon class="cls-9" points="131.7 152.19 129.26 173.31 137.66 174.4 137.66 152.19 131.7 152.19"/><polygon class="cls-9" points="163.91 151.32 161.68 177.65 169.91 178.85 168.91 152.19 163.91 151.32"/><polygon class="cls-4" points="122.22 155.42 122.22 143.23 184.53 137.5 184.53 153.25 122.22 155.42"/><polygon class="cls-12" points="214.29 115.47 210.31 79.8 216.3 36.9 247.12 42.99 290.49 41.78 292.18 69.01 285.37 120.21 255.76 137.39 232.97 133.97 214.29 115.47"/><path class="cls-4" d="M86.5,183.64,84.28,170.7h0l4.28-3,6.4,4.11h0l.89,12.86-4.31,1.78Zm-5.65-32.95-1.63-9.52,7.19-1,6.41,1-5.59,9.42Z"/><polygon class="cls-3" points="48.66 141.18 230.22 141.15 243.98 143.23 257.55 141.18 258.4 138.67 255.76 137.39 245.01 135.76 230.17 137.39 48.66 137.39 46.06 139.28 48.66 141.18"/><polygon class="cls-13" points="123.54 33.65 243.79 125.95 242.66 126.9 239.57 125.93 122.41 35.6 122.22 34.13 123.54 33.65"/><polygon class="cls-13" points="123.54 244.89 244.12 151.22 243.04 149.51 239.88 151.32 122.41 242.94 122.22 244.41 123.54 244.89"/><polygon class="cls-1" points="230.22 141.15 239.88 151.32 260.48 150.86 260.59 145.42 257.55 141.18 230.22 141.15"/><polygon class="cls-1" points="230.17 137.39 239.57 125.93 271.88 128.04 255.99 137.5 230.17 137.39"/><path class="cls-3" d="M29.57,139.19l12.26.41,6.83,1.58-3.39,2.6s-15.63-4.71-15.7-4.59"/><polygon class="cls-14" points="29.57 139.19 41.9 138.9 48.66 137.39 45.27 134.78 29.57 139.19"/><polygon class="cls-8" points="285.37 120.21 255.76 137.39 258.58 145.22 260.48 150.86 284.22 150.58 288.9 135.76 285.37 120.21"/><polygon class="cls-12" points="298.42 124.32 285.37 120.21 284.22 150.58 302.12 143.23 304.99 133.66 298.42 124.32"/><polygon class="cls-14" points="48.66 137.39 29.57 139.19 48.66 141.18 48.66 137.39"/><polygon class="cls-4" points="123.54 33.65 121.82 32.14 93.33 75.59 100.31 77.94 123.54 33.65"/><polygon class="cls-4" points="267.23 248.52 284.01 194.98 284.09 242.68 267.23 248.52"/><polygon class="cls-4" points="260.19 286.82 282.43 262.22 243.36 276.12 260.19 286.82"/><polygon class="cls-15" points="302.12 143.23 348.69 167.6 370.43 157.19 302.12 143.23 302.12 143.23"/><polygon class="cls-16" points="368.55 116.22 307.73 123.25 306.38 133.34 311.12 145.07 370.43 157.19 368.55 116.22"/><polygon class="cls-4" points="311.12 145.07 307.73 123.25 298.42 124.32 302.12 143.23 311.12 145.07"/><polygon class="cls-9" points="93.33 202.94 86.5 183.64 95.85 184.68 100.31 200.6 96.65 204.11 93.33 202.94"/><polygon class="cls-4" points="123.54 244.89 121.82 246.4 93.33 202.94 100.31 200.6 123.54 244.89"/><polygon class="cls-8" points="84.28 170.7 94.95 171.82 93.69 153.76 80.85 150.69 84.28 170.7"/><polygon class="cls-12" points="80.86 150.69 81.98 157.25 93.69 153.76 105.83 165.28 108.63 157.05 106.17 149.47 92.82 141.17 80.86 150.69"/><polygon class="cls-4" points="115.02 148.8 114.49 171.39 105.73 170.25 106.17 149.47 115.02 148.8"/><polygon class="cls-11" points="233.53 324.71 239.27 325.75 246.87 247.02 242.34 246.29 233.53 324.71"/><polygon class="cls-2" points="246.87 247.02 246.87 204.26 242.15 209.47 242.34 246.29 246.87 247.02"/><polygon class="cls-2" points="284.01 194.98 278.05 193.88 277.71 244.89 284.09 242.68 284.01 194.98"/><polygon class="cls-9" points="337.47 125.74 333.55 149.65 343.99 151.96 345.69 123.25 337.47 125.74"/><polygon class="cls-9" points="353.18 123.25 353.18 153.66 362.83 155.63 362.83 120.21 353.18 123.25"/><polygon class="cls-11" points="277.71 244.89 281.89 326.07 288.31 324.71 284.09 242.68 277.71 244.89"/><polygon class="cls-4" points="332.64 128.04 334.81 115.67 366.7 110.64 368.55 116.22 368.55 126.74 332.64 128.04"/><polygon class="cls-17" points="289.62 88.24 295.68 89.86 297.74 77.94 315.95 73.77 320.07 42.87 302.99 15.55 290.49 41.78 292.18 69.01 289.62 88.24"/><polygon class="cls-17" points="290.49 41.78 254.4 12 216.3 36.9 248.4 45.16 290.49 41.78"/><polygon class="cls-18" points="254.4 12 254.4 12 273.33 0 302.99 15.55 290.49 41.78 254.4 12"/><polygon class="cls-18" points="254.4 12 254.4 12 244.31 0 218.08 11.76 216.3 36.9 254.4 12"/><polygon class="cls-17" points="216.3 36.9 218.08 11.76 206.28 41.78 210.31 79.8 216.3 36.9"/><polygon class="cls-18" points="248.4 45.16 260.52 44.17 254.4 12 248.4 45.16"/><polygon class="cls-17" points="244.31 0 273.33 0 254.4 12 244.31 0"/><polygon class="cls-10" points="306.42 94.75 302.54 91.46 292.39 92.75 298.77 109 306.42 94.75"/><polygon class="cls-12" points="315.95 73.77 300.33 69.01 292.39 92.75 306.42 94.75 315.95 73.77"/><polygon class="cls-10" points="304.64 76.43 300.79 86.77 310.58 78.59 304.64 76.43"/><polygon class="cls-19" points="256.85 101.06 249.36 78.67 255.16 75.35 269.5 73.35 280.93 74.08 265.15 78.54 256.85 101.06"/><polygon class="cls-19" points="233.42 98.75 230.17 74.48 219.97 68.4 225.38 68.19 238.89 73.42 242.44 77.54 233.42 98.75"/><polygon class="cls-19" points="234.71 113.06 237.52 117.08 249.69 118.51 257.52 115.31 234.71 113.06"/><polygon class="cls-20" points="234.71 113.06 238.89 110.56 244.12 111.81 247.27 111.29 257.52 115.31 234.71 113.06"/><polygon class="cls-20" points="233.42 98.75 256.85 101.06 242.15 103.86 233.42 98.75"/><polygon class="cls-21" points="233.42 98.75 242.44 77.54 249.36 78.67 256.85 101.06 233.42 98.75"/><circle class="cls-22" cx="229.79" cy="74.48" r="3.06"/><circle class="cls-22" cx="264.5" cy="78.54" r="3.06"/><polygon class="cls-23" points="255.16 75.35 255.76 72.37 269.82 70.37 280.93 74.08 269.5 73.35 255.16 75.35"/><polygon class="cls-23" points="238.89 73.42 238.89 69.8 224.64 65.38 219.97 68.4 225.38 68.19 238.89 73.42"/></svg>