<svg id="Layer_1" data-name="Layer 1" xmlns="http://www.w3.org/2000/svg" viewBox="0 0 400 400"><defs><style>.cls-1{fill:#9d7700;}.cls-2{fill:none;}.cls-20,.cls-3{fill:#2b2b2b;}.cls-3{opacity:0.1;}.cls-4{fill:#cbac14;}.cls-5{fill:#a8836c;}.cls-6{fill:#82624d;}.cls-7{fill:#51362a;}.cls-8{fill:#e4c728;}.cls-23,.cls-9{fill:#cfae95;}.cls-10,.cls-22{fill:#846400;}.cls-11{fill:#755800;}.cls-12{fill:#f3d65d;}.cls-13{fill:#98796a;}.cls-14,.cls-24{fill:#eed2c1;}.cls-15{fill:#be8e00;}.cls-16{fill:#f6e5db;}.cls-17{fill:#593e35;}.cls-18{fill:#474747;}.cls-19{fill:#73cee4;}.cls-21{fill:#66483a;}.cls-22,.cls-23,.cls-24{fill-rule:evenodd;}</style></defs><title>explorers_ISTP_famous_real_olivia_wilde</title><polygon class="cls-1" points="178.75 311.55 188.57 258.88 226.83 280.17 205.6 319.55 174.51 359.45 178.75 311.55"/><rect class="cls-2" x="0.5" y="0.5" width="399" height="399"/><polygon class="cls-3" points="119.35 383.69 200.97 399.5 307.5 383.92 202.76 368.34 119.35 383.69"/><path class="cls-4" d="M173.53,249.42l22.87-12.64L198,216.71l-9.85-3-18.91,21.78-3.26,7.6Z"/><path class="cls-5" d="M160.89,231.82l8.3,3.57,4.34,14-9,1.63-6.28-4.5Z"/><polygon class="cls-6" points="151.24 50.92 144.53 107.33 165.31 129.19 175.23 120.35 177.71 102.05 163.06 54.84 155.78 48.1 151.24 50.92"/><polygon class="cls-7" points="175.23 120.35 144.53 107.33 164.77 146.55 179.65 144.07 196.86 127.56 175.23 120.35"/><polygon class="cls-7" points="161.28 161.98 177.71 184.84 202.75 159.81 194.92 152.83 179.73 153.37 161.28 161.98"/><polygon class="cls-6" points="164.77 146.55 161.28 161.98 183.68 155.93 190.5 148.8 185.7 133.29 164.77 146.55"/><polygon class="cls-4" points="279.25 213.76 262.6 231.28 264.38 239.96 271.82 247.4 313.25 213.76 286.5 208.5 279.25 213.76"/><polygon class="cls-8" points="271.82 159.81 278.49 172.6 313.25 213.76 279.25 213.76 257.56 200.5 254.92 197.79 262.6 172.21 271.82 159.81"/><polygon class="cls-1" points="203.84 150.35 240.51 148.41 242.44 150.35 244.46 188.57 235.47 191.82 200.27 191.82 196.47 158.95 203.84 150.35"/><polygon class="cls-9" points="217.48 162.28 240.51 148.41 249.03 137.71 252.68 122.05 253.3 96.78 247.72 45.15 233.29 45.15 209.03 109.18 203.84 150.35 217.48 162.28"/><polygon class="cls-10" points="196.86 186.47 235.47 189.42 245.86 191.12 225.85 224.07 205 224.07 196.86 186.47"/><polygon class="cls-11" points="188.57 258.88 198.49 241.21 218.02 236.71 259.88 258.1 229.26 277.64 220.66 277.48 218.02 277.64 208.18 270.19 188.57 258.88"/><polygon class="cls-4" points="259.88 188.72 262.6 160.81 240.51 148.41 235.47 189.42 250.19 191.82 259.88 188.72"/><polygon class="cls-4" points="216.94 217.64 210.97 228.02 218.02 236.71 229.5 238.57 250.82 234.61 269.25 174 238.96 188.72 230.27 203.99 216.94 217.64"/><polygon class="cls-8" points="259.88 258.1 250.82 234.61 218.02 236.71 231.9 271.9 247.95 270.19 259.88 258.1"/><path class="cls-4" d="M250.2,258.1h9.68L258,253.3l-3.5-1.32Z"/><polygon class="cls-8" points="196.32 236.71 177.71 184.84 194.92 152.83 198.8 169.73 198.8 186.4 216.94 217.64 218.02 236.71 197.87 239.96 196.32 236.71"/><polygon class="cls-12" points="208.18 270.19 218.02 236.71 196.32 236.71 188.57 258.88 208.18 270.19"/><polygon class="cls-10" points="229.43 321.44 218.02 277.64 259.88 258.1 255.58 322.49 245.86 352.18 229.43 321.44"/><polygon class="cls-12" points="203.84 150.35 198.8 147.48 194.92 152.83 189.26 182.75 199.19 188.72 203.53 186.94 203.84 150.35"/><polygon class="cls-4" points="189.26 182.75 216.94 217.64 203.53 186.94 189.26 182.75"/><polygon class="cls-12" points="235.47 189.42 240.51 148.41 250.19 158.56 249.81 186.78 241.05 191.82 235.47 189.42"/><polygon class="cls-8" points="216.94 217.64 235.47 189.42 249.81 186.78 216.94 217.64"/><polygon class="cls-7" points="249.81 186.78 265.54 175.08 277.18 166.78 276.63 154.3 260.89 153.37 240.51 148.41 249.81 186.78"/><polygon class="cls-9" points="262.6 231.28 259.88 232.52 250.82 234.61 250.19 244.92 258.02 253.22 271.82 247.4 262.6 231.28"/><polygon class="cls-13" points="180.43 4.61 151.24 50.92 163.06 54.84 183.53 27.32 180.43 4.61"/><polygon class="cls-6" points="263.76 27.24 226.4 0.96 203.69 11.89 197.09 23.29 209.5 40.5 240.51 49.57 247.72 45.15 263.76 27.24"/><polygon id="XMLID_34_0" data-name="XMLID 34  0" class="cls-13" points="226.4 0.96 197.09 9.03 187.79 17.86 197.09 23.29 209.88 13.52 226.4 0.96"/><polygon class="cls-14" points="250.82 234.61 240.51 242.28 250.19 258.1 258.02 253.22 250.82 234.61"/><polygon class="cls-5" points="196.63 133.45 193.76 144.61 203.84 150.35 234.15 133.6 207.25 133.68 196.63 133.45"/><polygon class="cls-13" points="282.91 59.88 263.76 27.24 240.51 49.57 245.93 70.81 250.35 78.95 256.4 79.49 259.34 84.38 280.66 67.01 282.91 59.88"/><polygon class="cls-7" points="278.95 104.61 282.91 59.88 256.21 74.38 237.54 70.58 240.51 82.9 249.03 120.11 256.17 120.11 278.95 104.61"/><polygon class="cls-6" points="292.37 136.47 275.47 119.11 249.03 120.11 240.51 148.41 271.82 159.81 281.13 157.94 292.37 136.47"/><polygon id="XMLID_36_1" data-name="XMLID 36  1" class="cls-13" points="292.37 136.47 278.95 104.61 249.03 120.11 292.37 136.47"/><polygon class="cls-14" points="163.06 54.84 166.47 109.42 185.7 133.29 207.25 133.68 232.39 120.11 234.92 75.7 240.51 49.57 209.5 40.5 197.09 23.29 163.06 54.84"/><polygon id="XMLID_39_2" data-name="XMLID 39  2" class="cls-9" points="167.09 67.09 179.73 72.83 190.97 90.58 195.08 96.24 199.57 94.53 213.45 76.08 226.78 66.7 216.63 62.59 201.9 67.87 197.95 71.28 195.23 77.17 192.67 71.74 187.94 67.71 173.84 62.28 167.09 67.09"/><polygon class="cls-15" points="181.67 108.64 195.62 105.7 211.43 108.95 196.71 113.37 181.67 108.64"/><polygon class="cls-5" points="190.66 94.53 195 100.73 199.57 94.53 190.66 94.53"/><polygon class="cls-16" points="190.66 94.53 199.57 94.53 197.17 80.97 197.95 71.28 192.67 71.74 192.91 81.2 190.66 94.53"/><polygon class="cls-17" points="204.61 64.53 201.9 67.87 217.56 63.99 226.78 66.7 217.56 61.04 204.61 64.53"/><polygon class="cls-17" points="187.94 67.71 185.62 64.61 173.6 60.81 167.09 67.09 173.91 63.68 187.94 67.71"/><polygon class="cls-4" points="181.67 108.64 195.85 110.5 211.43 108.95 196.4 115.08 181.67 108.64"/><path class="cls-18" d="M128.1,211.12,97.63,233.53,102,270.35l33,11.48,30.47-21.17-6.28-33.18-31-16.36Zm22.48,45.43-19,11.48-19.31-8.15-1.08-22.17,19.07-12.17,17.91,11,2.25,8.61L150,251.9Z"/><path class="cls-19" d="M135.15,282.91l-34-11.78L96.7,233.22,128,210.11,160,226.94l.93,4.88v4l1.24,2.64,4.34,22.72-.46.3-30.78,21.48Zm-32.32-13.18,32.09,11.16,29.61-20.62-6.12-32.17-30.16-15.89L98.72,234l4.18,35.74Z"/><path class="cls-19" d="M132,273l-23.8-10.08-1.4-27.37,23.57-15,22.09,13.57,3,24.81L132.05,273Zm-22-11.32L131.9,271l21.63-13-2.79-22.79L130.35,222.6l-21.71,13.87,1.24,25.2Z"/><polygon class="cls-9" points="160.89 231.82 154.3 232.44 156.32 238.88 162.13 238.41 160.89 231.82"/><polygon class="cls-9" points="148.1 236.55 152.36 234.07 157.32 250.58 150.04 251.9 148.1 236.55"/><path class="cls-20" d="M179.81,70.19a4.19,4.19,0,1,1-4.19,4.19A4.19,4.19,0,0,1,179.81,70.19Z"/><path class="cls-20" d="M212.68,70.58a4.19,4.19,0,1,1-4.19,4.18A4.18,4.18,0,0,1,212.68,70.58Z"/><polygon class="cls-9" points="222.6 99.19 230.04 96.78 220.42 114.92 222.6 99.19"/><polygon class="cls-9" points="171.9 98.56 168.02 98.41 172.44 112.59 171.9 98.56"/><polygon class="cls-13" points="266.44 68.83 239.81 70.27 209.5 40.5 263.76 27.24 282.91 59.88 266.44 68.83"/><polygon class="cls-21" points="240.51 82.9 209.5 40.5 266.44 68.83 240.51 82.9"/><polygon class="cls-21" points="292.37 136.47 278.49 172.6 249.81 186.78 271.82 159.81 292.37 136.47"/><polygon class="cls-21" points="170.04 31.35 187.79 17.86 197.09 23.29 163.06 54.84 170.04 31.35"/><polygon class="cls-6" points="180.43 4.61 170.04 31.35 184.23 27.09 197.09 23.29 197.09 9.03 180.43 4.61"/><polygon class="cls-21" points="183.68 155.93 185.7 133.29 196.63 133.45 199.96 141.2 203.84 150.35 197.79 152.05 194.92 152.83 183.68 155.93"/><polygon class="cls-22" points="181.31 380.51 187.15 380.42 189.26 365.97 188.01 352.18 174.51 359.45 181.31 380.51"/><polygon class="cls-22" points="252.74 365 257.95 379.4 252.74 391.2 252.74 365"/><polygon class="cls-23" points="229.43 321.44 239.32 359.45 240.27 372.38 252.74 365 255.58 322.49 229.43 321.44"/><polygon class="cls-24" points="239.32 359.45 231.66 371.39 238.19 379.92 253.19 382.71 252.74 365 239.32 359.45"/><polygon class="cls-22" points="253.19 382.71 231.66 371.39 228.76 375.75 233.06 382.71 252.74 387.4 253.19 382.71"/><polygon class="cls-23" points="252.74 387.4 228.76 375.75 221.14 387.4 232.91 389.7 252.74 387.4"/><polygon class="cls-23" points="178.75 311.55 171.89 348.34 174.79 355.86 188.01 352.18 205.6 319.55 178.75 311.55"/><polygon class="cls-24" points="171.89 348.34 157.38 362.27 163.69 369.21 173.32 372.64 188.01 352.18 171.89 348.34"/><polygon class="cls-22" points="173.32 372.64 157.38 362.27 153.54 365.97 159.28 372.37 170.77 375.85 173.32 372.64"/><polygon class="cls-23" points="170.77 377 153.54 365.97 142.05 377 157.27 379.3 170.77 377"/><rect class="cls-10" x="221.14" y="387.41" width="31.6" height="3.8"/><polygon class="cls-22" points="179.63 363.84 178.26 371.08 166.94 380.51 142.05 380.51 142.05 377 162.73 377 179.63 363.84"/></svg>