<svg id="Layer_1" data-name="Layer 1" xmlns="http://www.w3.org/2000/svg" viewBox="0 0 400 400"><defs><style>.cls-1,.cls-20,.cls-24{fill:#2b2b2b;}.cls-1{fill-opacity:0.1;}.cls-2{fill:#474747;}.cls-3{fill:#4f5253;}.cls-4{fill:#6f7173;}.cls-5{fill:#9d7700;}.cls-6{fill:#755800;}.cls-7{fill:#bb8e2d;}.cls-8{fill:#825940;}.cls-9{fill:#cbac14;}.cls-10{fill:#f4c9b2;}.cls-11{fill:#c1907d;}.cls-12{fill:#fce3d4;}.cls-13{fill:#82754d;}.cls-14{fill:#a09060;}.cls-15{fill:#c1b174;}.cls-16{fill:#fff6ae;}.cls-17{fill:#8e8e8e;}.cls-18{fill:#848585;}.cls-19{fill:#c3c3c3;}.cls-20{opacity:0.2;}.cls-21{fill:#846400;}.cls-22{fill:#f3d65d;}.cls-23{fill:#be8e00;}.cls-25{fill:#ffefe7;}.cls-26{fill:#755445;}.cls-27{fill:#fff;}</style></defs><title>explorers_ISTP_famous_fictional_angus_macgyver_macgyver</title><polygon class="cls-1" points="118.44 378.71 237.89 359.07 306.68 379.21 223.75 400 128.26 382.53 118.44 378.71"/><polygon class="cls-2" points="172.5 329.48 179.57 363.41 189.9 373.8 206.28 368.31 208.01 333.96 193.22 319.45 199.71 259.18 183.33 250.45 172.5 329.48"/><polygon class="cls-3" points="159.87 269 172.5 329.48 208.01 333.96 209.53 307.18 199.71 259.18 183.33 250.45 159.87 269"/><polygon class="cls-3" points="235.22 368.89 253.19 377.05 260.85 365.57 255.36 328.98 231.9 306.75 218.26 249.94 219.13 332.95 235.22 368.89"/><polygon class="cls-4" points="219.13 332.95 255.36 328.98 249.94 291.38 238.47 269.58 218.26 249.94 190.98 270.08 219.13 332.95"/><polygon class="cls-5" points="206.86 376.54 206.28 368.31 179.57 363.41 159.87 376.54 174.67 379.79 206.86 376.54"/><polygon class="cls-6" points="206.86 381.95 206.86 376.54 159.87 376.54 159.87 381.95 206.86 381.95"/><polygon class="cls-5" points="229.81 382.53 235.22 368.89 260.85 365.57 265.25 382.53 249.66 384.99 229.81 382.53"/><polygon class="cls-6" points="229.81 382.53 265.25 382.53 265.25 387.37 229.81 387.37 229.81 382.53"/><polygon class="cls-7" points="100.4 368.89 118.44 362.9 122.27 372.14 118.44 378.71 105.88 383.62 105.88 379.79 102.63 378.13 103.72 372.72 100.4 368.89"/><polygon class="cls-7" points="126.6 359.07 118.44 362.9 125.52 373.8 151.71 371.63 156.62 362.32 145.15 357.42 126.6 359.07"/><polygon class="cls-8" points="125.52 362.9 136.41 360.66 145.72 361.75 144.06 366.15 132.59 366.65 125.52 362.9"/><polygon class="cls-9" points="128.26 382.53 118.44 378.71 118.44 362.9 127.17 369.97 147.31 369.4 156.62 362.32 156.62 375.96 147.31 380.37 128.26 382.53"/><polygon class="cls-10" points="242.87 148.39 247.2 123.85 260.85 92.24 222.66 39.84 209.67 133.67 207.94 169.18 241.21 156.04 242.87 148.39"/><polygon class="cls-11" points="212.56 132.59 233.63 132.08 216.67 162.61 193.22 162.61 193.22 152.22 188.88 134.03 196.97 124.94 212.56 132.59"/><path class="cls-12" d="M151.14,39.26l9.45,69.44L177.26,135c13.79-1.08,22.09-1.66,36.24-2.45L225,103.28l-1.8-62.36L197,23l-18,12-9.31-3.82-10.33-2.74Z"/><polygon class="cls-10" points="169.83 63.88 180.44 66.91 184.26 70.37 188.45 75.14 189.32 69.94 194.59 65.39 197.55 62.43 211.48 60.27 216.24 63.52 205.34 73.84 193.07 87.55 186.21 84.59 182.25 87.77 168.82 75.86 159.58 68.78 166.08 63.37 169.83 63.88"/><polygon class="cls-11" points="207.94 30.53 179 34.93 155.25 37.39 158.79 28.94 177.91 24.04 196.97 22.95 207.94 30.53"/><polygon class="cls-13" points="140.81 43.67 154.96 67.63 155.25 37.39 145.72 36.59 140.81 43.67"/><polygon class="cls-14" points="146.23 20.71 140.81 43.67 169.69 31.11 165.35 17.47 146.23 20.71"/><polygon class="cls-15" points="175.17 5.99 146.23 20.71 169.69 31.11 179 34.93 186.07 22.38 182.82 10.9 175.17 5.99"/><polygon class="cls-16" points="211.19 0 182.82 10.9 179 34.93 196.97 22.95 214.44 18.04 231.4 0.58 211.19 0"/><polygon class="cls-13" points="223.17 40.92 196.97 22.95 212.85 13.06 222.09 19.13 223.17 40.92"/><polygon class="cls-14" points="261.93 26.2 247.78 37.1 223.17 40.92 216.09 21.8 212.85 13.06 231.4 0.58 261.93 26.2"/><polygon class="cls-15" points="272.32 59.47 261.93 26.2 223.17 40.92 232.48 63.3 232.48 84.01 241.36 85.17 256.51 67.12 265.75 69.87 272.32 59.47"/><polygon class="cls-14" points="266.83 101.48 256.51 108.55 251.6 96.07 256.51 67.12 272.32 59.47 266.83 101.48"/><polygon class="cls-12" points="256.51 67.12 237.89 66.04 237.46 90 252.4 91.16 256.51 67.12"/><polygon class="cls-11" points="237.46 90 250.74 101.48 252.4 91.16 237.46 90"/><polygon class="cls-17" points="193.72 241.21 227.57 221.51 240.13 154.96 218.84 165.36 191.56 162.61 176.83 211.19 193.72 241.21"/><polygon class="cls-18" points="190.47 165.86 176.83 211.19 186.07 226.99 194.3 234.07 190.98 165.36 190.47 165.86"/><polygon class="cls-11" points="243.38 81.34 243.96 72.03 250.45 72.03 243.38 81.34"/><polygon class="cls-19" points="219.34 169.18 240.13 154.96 242.87 148.39 216.67 162.61 195.89 160.95 193.22 152.22 190.98 165.36 219.34 169.18"/><polygon class="cls-6" points="172.43 161.53 193.22 152.22 189.9 173.01 188.31 182.25 184.48 210.1 194.3 232.98 198.12 252.11 190.98 270.08 180.08 269.58 159.87 258.1 159.37 217.18 160.95 189.32 172.43 161.53"/><polygon class="cls-20" points="190.47 169.18 188.31 182.25 174.67 176.83 188.81 166.94 190.47 169.18"/><polygon class="cls-9" points="180.08 269.58 159.87 269 159.87 258.1 180.08 257.52 180.08 269.58"/><polygon class="cls-21" points="245.04 260.84 204.11 270.08 190.98 270.08 194.3 232.98 217.75 215.52 228.65 182.82 237.39 174.59 242.87 148.39 263.01 166.44 265.75 212.27 260.27 246.12 245.04 260.84"/><polygon class="cls-6" points="228.65 182.82 231.4 175.17 235.22 166.44 246.12 179 228.65 182.82"/><polygon class="cls-5" points="246.12 179 242.87 148.39 231.9 174.09 246.12 179"/><polygon class="cls-5" points="174.67 176.83 189.9 173.01 193.22 152.22 174.67 176.83"/><polygon class="cls-6" points="291.38 225.91 263.01 166.44 253.77 226.42 268.5 238.47 291.38 225.91"/><polygon class="cls-5" points="255.36 282.14 291.38 225.91 253.77 226.42 238.47 269.58 255.36 282.14"/><polygon class="cls-3" points="255.36 282.14 260.85 273.4 242.87 257.52 238.47 269.58 255.36 282.14"/><polygon class="cls-9" points="204.62 257.52 242.87 257.52 238.47 269.58 204.11 270.08 204.62 257.52"/><polygon class="cls-10" points="249.94 291.38 235.73 281.56 225.91 281.56 223.17 277.73 238.47 269.58 255.36 282.14 249.94 291.38"/><polygon class="cls-22" points="140.24 87.84 141.9 92.24 136.41 121.11 132.08 119.52 134.25 91.66 137.5 86.75 140.24 87.84"/><polygon class="cls-21" points="172.43 161.53 150.05 188.24 144.06 204.11 159.37 217.18 172.43 161.53"/><polygon class="cls-9" points="117.36 91.16 118.44 91.16 122.77 93.32 130.42 118.44 126.09 121.11 115.7 96.57 116.28 91.66 117.36 91.16"/><polygon class="cls-23" points="116.28 90 118.44 91.16 120.61 94.91 118.95 96.07 116.28 91.66 116.28 90"/><polygon class="cls-7" points="131 120.61 94.98 103.14 93.32 109.13 97.65 111.3 98.23 115.7 101.48 113.53 102.63 116.78 105.88 115.12 105.88 118.95 110.79 117.29 111.37 121.11 115.7 118.95 123.35 126.02 131 120.61"/><polygon class="cls-6" points="128.76 219.92 159.37 217.18 150.05 188.24 135.33 193.14 128.76 219.92"/><polygon class="cls-5" points="138.65 169.18 150.05 188.24 128.76 219.92 116.28 178.42 123.85 168.1 138.65 169.18"/><polygon class="cls-3" points="132.08 157.71 138.65 169.18 116.28 178.42 112.45 166.44 119.52 148.97 132.08 157.71"/><polygon class="cls-11" points="112.45 166.44 103.72 151.71 122.27 137.5 132.08 157.71 112.45 166.44"/><polygon class="cls-6" points="105.88 146.81 127.17 117.29 135.33 116.2 140.24 120.03 140.24 129.34 118.95 156.62 105.88 146.81"/><polygon class="cls-22" points="129.34 121.11 125.52 127.68 126.6 132.08 131.5 131.5 135.91 125.51 129.34 121.11"/><polygon class="cls-10" points="132.08 157.71 135.33 141.32 132.59 138.58 125.01 148.97 118.95 156.62 119.52 163.19 132.08 157.71"/><polygon class="cls-12" points="97.15 149.48 108.05 158.79 122.27 137.5 111.37 128.76 97.15 149.48"/><polygon class="cls-15" points="270.15 133.16 252.69 129.34 247.78 118.44 252.4 91.16 266.83 101.48 270.15 133.16"/><polygon class="cls-14" points="270.15 133.16 247.78 118.44 245.04 134.25 270.15 133.16"/><polygon class="cls-10" points="185.28 53.92 184.19 61.06 186.36 67.05 186.36 61.06 185.28 53.92"/><polygon class="cls-21" points="164.27 224.83 182.25 224.83 182.25 230.82 170.26 235.73 162.61 230.82 164.27 224.83"/><polygon class="cls-6" points="226.49 224.25 246.63 227.57 245.04 234.65 232.48 237.39 224.25 230.82 226.49 224.25"/><polygon class="cls-2" points="159.87 269 204.62 300.69 235.73 281.56 225.91 281.56 223.17 277.73 238.47 269.58 159.87 269"/><polygon class="cls-11" points="184.48 84.23 182.25 87.77 188.24 93.76 193.07 87.55 184.48 84.23"/><path class="cls-24" d="M172.67,69.82a3.51,3.51,0,1,1-3.14,3.84A3.5,3.5,0,0,1,172.67,69.82Z"/><path class="cls-24" d="M202.08,67.43a3.5,3.5,0,1,1-3.14,3.84A3.5,3.5,0,0,1,202.08,67.43Z"/><polygon class="cls-25" points="184.26 70.37 184.19 78.6 182.25 87.77 193.07 87.55 190.26 78.31 189.32 69.94 184.26 70.37"/><polygon class="cls-10" points="177.84 89.21 169.76 102.06 170.34 92.6 177.84 89.21"/><polygon class="cls-10" points="200.29 87.69 210.68 98.45 208.23 89.86 200.29 87.69"/><polygon class="cls-11" points="170.34 103.14 210.03 99.67 198.56 115.12 185.49 116.28 170.34 103.14"/><polygon class="cls-26" points="200.79 107.69 196.82 112.59 186.36 113.32 181.52 109.42 191.12 106.1 200.79 107.69"/><polygon class="cls-27" points="176.62 104.94 204.55 102.85 200.79 107.69 181.52 109.42 176.62 104.94"/><polygon class="cls-13" points="180.44 66.91 180.37 62.36 165.35 61.78 159.15 66.11 159.58 68.78 166.51 66.33 180.44 66.91"/><polygon class="cls-13" points="193.94 60.48 209.81 57.6 216.31 60.41 216.24 63.52 209.46 61.71 194.59 65.39 193.94 60.48"/><polygon class="cls-10" points="217.75 91.23 213.78 113.46 219.56 103 217.75 91.23"/><polygon class="cls-10" points="163.84 98.09 169.54 114.18 163.41 106.6 163.84 98.09"/></svg>