<svg id="illustration_layer_copy_4" data-name="illustration_layer copy 4" xmlns="http://www.w3.org/2000/svg" viewBox="0 0 400 400"><defs><style>.cls-1,.cls-18{fill:#a8836c;}.cls-2,.cls-21,.cls-25{fill:#2b2b2b;}.cls-2{opacity:0.1;}.cls-3{fill:#848585;}.cls-4{fill:#6f7173;}.cls-10,.cls-5{fill:#8c7c2f;}.cls-11,.cls-12,.cls-17,.cls-18,.cls-19,.cls-20,.cls-22,.cls-23,.cls-24,.cls-25,.cls-26,.cls-27,.cls-30,.cls-31,.cls-32,.cls-5,.cls-6,.cls-7,.cls-8,.cls-9{fill-rule:evenodd;}.cls-6{fill:#755800;}.cls-7{fill:#9d7700;}.cls-27,.cls-8{fill:#ab913c;}.cls-9{fill:#846400;}.cls-11{fill:#a2a2a2;}.cls-12{fill:#674736;}.cls-13{fill:#eed2c1;}.cls-14,.cls-17{fill:#cfae95;}.cls-15,.cls-20{fill:#66483a;}.cls-16{fill:#51362a;}.cls-19{fill:#f6e5db;}.cls-22{fill:#ebebea;}.cls-23{fill:#c3c3c3;}.cls-24{fill:#cbac14;}.cls-25,.cls-27{opacity:0.2;}.cls-26{fill:#825940;}.cls-28{fill:#4f5253;}.cls-29{fill:#737373;}.cls-30{fill:#e1a842;}.cls-31{fill:#bb8e2d;}.cls-32{fill:#b48a00;}</style></defs><title>explorers_ISTP_famous_fictional_indiana_jones_indiana_jones</title><polygon class="cls-1" points="121.86 124.42 111.94 128.53 110.06 137.9 116.07 139.19 116.07 139.19 116.6 144.96 128.73 139.95 134.42 129.89 136.44 117.55 121.86 124.42"/><polygon class="cls-2" points="100.04 388.59 228.17 373.86 320.7 388.28 227.04 398.99 100.04 388.59"/><polygon class="cls-3" points="105.78 266.61 142.47 302.98 112.08 262.27 105.78 266.61"/><polygon class="cls-4" points="135.93 211.63 105.78 266.61 111.21 271.99 146.49 210.63 135.93 211.63"/><polygon class="cls-3" points="79.49 203.99 143.14 216.28 146.49 210.63 77.67 193.6 79.49 203.99"/><polygon class="cls-4" points="49.67 126.84 79.49 203.99 87.66 205.5 60.05 123.21 49.67 126.84"/><polygon class="cls-3" points="109.5 79.33 49.67 126.84 52.87 135.12 119.74 82.5 132.08 70.31 109.5 79.33"/><polygon class="cls-5" points="184.03 158.16 138.11 173.83 150.85 202.46 184.15 196.94 184.03 158.16"/><polygon class="cls-6" points="182.24 263.27 170.97 320.23 185.5 344.54 207 367.82 204.67 330.95 223.21 298.29 182.24 263.27"/><polygon class="cls-7" points="260.75 273.32 261.75 296.1 257.7 336.65 240.09 340.42 222.85 332.63 214.62 299.45 260.75 273.32"/><polygon class="cls-6" points="222.85 332.63 239.13 365.49 250.53 370.85 265.11 369.17 257.7 336.65 222.85 332.63"/><polygon class="cls-8" points="239.13 365.49 230.55 387.6 246.49 390.28 268.8 387.6 265.11 369.17 239.13 365.49"/><polygon class="cls-9" points="260.75 273.32 214.62 299.45 182.24 263.27 214.62 261.11 260.75 273.32"/><polygon class="cls-9" points="170.97 320.23 204.67 330.95 210.02 370.84 190.03 369.5 182.89 358.78 170.97 320.23"/><polygon class="cls-8" points="182.89 358.78 155.05 380.22 184.91 382.22 210.39 380.22 210.02 370.84 182.89 358.78"/><rect class="cls-10" x="155.05" y="380.22" width="55.34" height="5.36"/><polygon class="cls-6" points="182.24 248.91 182.24 263.27 197 265.16 212.25 265.86 222.1 268.37 260.75 273.32 259.75 258.91 222.77 248.91 182.24 248.91"/><polygon class="cls-11" points="198.63 251.02 197 265.16 222.1 268.37 223.31 254.21 210.02 251.02 198.63 251.02"/><polygon class="cls-12" points="202.93 255.17 202.6 262.37 216.84 263.88 217.84 256.67 202.93 255.17"/><rect class="cls-10" x="230.55" y="387.6" width="38.25" height="5.36"/><polygon class="cls-8" points="185.83 162.27 179.05 183.87 166.78 247.19 182.22 249.02 198.63 251.02 223.31 254.21 259.75 258.91 279.84 156.11 257.15 150.01 200.46 159.7 185.83 162.27"/><polygon class="cls-6" points="255.34 75.27 281.73 48.51 271.39 31.21 259.97 37.81 221.4 52.7 234.65 63.85 255.34 75.27"/><polygon class="cls-13" points="148.32 78.38 147.87 86.28 157.96 125.2 183.32 155.57 202.08 152.25 198.97 183.35 219.07 185.13 230.69 174.07 248.2 146.07 255.34 75.27 221.09 58.14 148.32 78.38"/><polygon class="cls-14" points="221.09 58.14 227.07 124.67 217.7 152.5 201.6 153.51 198.08 168.19 198.97 183.35 213.96 197.26 232.42 180.58 239.76 161.23 249.32 141.16 253.07 108.3 252.8 101.55 254.53 95.79 255.34 75.27 221.09 58.14"/><polygon class="cls-1" points="147.87 86.28 222.41 72.83 229.62 69.06 221.09 58.14 145.11 75.62 147.87 86.28"/><polygon class="cls-15" points="229.62 69.06 234.82 75.71 234.82 88.82 242.31 88.82 242.31 76.25 255.34 75.27 252.08 58.14 233.49 56.98 229.62 69.06"/><polygon class="cls-16" points="229.62 69.06 252.08 58.14 251.05 52.7 230.81 52.7 221.09 58.14 229.62 69.06"/><polygon class="cls-1" points="254.53 95.79 242.48 95.79 253.07 108.3 254.53 95.79"/><polygon class="cls-1" points="246.86 90.69 246.86 80.79 253.02 80.79 246.86 90.69"/><polygon class="cls-13" points="179.18 115.3 161.59 129.56 184.03 158.16 200.81 156.8 219.07 148.88 228.14 124.05 226.24 114.88 191.22 112.36 179.18 115.3"/><polygon class="cls-14" points="226.24 115.5 234.82 88.82 242.31 88.82 240.98 142.59 219.07 149.5 226.24 115.5"/><polygon class="cls-2" points="179.18 115.3 161.59 129.56 184.03 158.16 219.07 148.88 226.24 114.88 191.22 112.36 179.18 115.3"/><polygon class="cls-2" points="226.24 115.5 234.82 88.82 242.31 88.82 240.98 142.59 219.07 149.5 226.24 115.5"/><polygon class="cls-1" points="201.6 153.51 240.98 142.59 218.83 168.29 201.6 153.51"/><polygon class="cls-17" points="155 92.5 169.22 100.94 179.18 115.3 191.22 112.36 198.11 92.22 207.74 78.38 186.38 83.28 183.9 92.03 178.11 93.1 174.74 88.79 155 92.5"/><polygon class="cls-18" points="186.31 119.28 179.18 115.3 191.22 112.36 186.31 119.28"/><polygon class="cls-19" points="178.11 93.1 179.18 115.3 191.22 112.36 183.9 92.03 178.11 93.1"/><polygon class="cls-17" points="184.91 144.55 196.95 141.95 204.31 142.02 204.67 143.74 197.06 143.34 185.29 145.32 184.91 144.55"/><polygon class="cls-20" points="155 92.5 163.46 87.21 173.98 85.74 174.74 88.79 155 92.5"/><polygon class="cls-20" points="185.83 79.43 198.08 77.22 207.72 78.39 186.38 83.28 185.83 79.43"/><circle class="cls-21" cx="198.08" cy="89.53" r="3.39"/><circle class="cls-21" cx="168.3" cy="97.2" r="3.39"/><polygon class="cls-18" points="179.62 131 196.44 128.15 206.13 121.08 205.73 117.85 210.41 121.61 197.12 131.27 180.16 134.03 179.62 131"/><polygon class="cls-17" points="179.18 115.3 176.53 128.34 176.04 117.85 179.18 115.3"/><polygon class="cls-17" points="191.22 112.36 205.73 117.85 210.41 121.61 207.72 113.55 191.22 112.36"/><polygon class="cls-22" points="230.18 179.6 223.31 254.21 198.63 251.02 198.77 182.2 212.84 195.26 230.18 179.6"/><polygon class="cls-22" points="237.07 168.29 232.81 167.96 231.08 159.39 249.32 141.16 249.02 148.69 237.07 168.29"/><polygon class="cls-23" points="237.07 168.29 231.08 159.39 214.07 194.15 230.18 179.6 237.07 168.29"/><polygon class="cls-23" points="198.77 182.2 190.09 156.56 201.6 153.51 208.46 159.39 198.77 182.2"/><polygon class="cls-22" points="194.75 172.31 190.09 156.56 201.6 153.51 194.75 172.31"/><polygon class="cls-24" points="249.32 141.16 257.15 150.01 251.7 198.95 228.72 195.26 230.18 179.6 249.32 141.16"/><polygon class="cls-24" points="198.63 196.61 179.05 183.87 182.24 167.1 190.09 156.56 198.77 182.2 198.63 196.61"/><polygon class="cls-25" points="251.7 198.95 227.61 207.51 228.72 195.26 251.7 198.95"/><polygon class="cls-25" points="198.63 196.61 198.63 206 179.05 183.87 198.63 196.61"/><polygon class="cls-9" points="190.09 156.56 247.5 257.33 244.14 266.53 239.72 270.63 182.24 167.1 184.03 158.16 190.09 156.56"/><polygon class="cls-5" points="279.84 156.11 304.93 203.72 261.75 227.09 279.84 156.11"/><polygon class="cls-1" points="253.44 228.53 243.91 230.59 240.2 235.5 235.65 236.56 234.33 218.28 253.96 222.33 253.44 228.53"/><polygon class="cls-13" points="253.96 222.33 237.07 222.69 230.55 219.84 227.61 207.51 251.52 208.6 253.96 222.33"/><polygon class="cls-1" points="214.07 224.43 218.97 233.25 227.04 228.84 214.07 224.43"/><polygon class="cls-14" points="227.61 207.51 214.07 224.43 235.65 236.56 237.07 222.69 227.61 207.51"/><polygon class="cls-24" points="304.93 203.72 251.52 208.6 254.15 239.97 294 230.72 304.93 203.72"/><polygon class="cls-25" points="243.49 283.09 245.28 318.04 257.7 336.65 261.36 299.45 243.49 283.09"/><polygon class="cls-6" points="239.72 270.63 252.54 313.02 258.88 320.84 257.31 282.11 247.5 257.33 239.72 270.63"/><polygon class="cls-5" points="253.74 292.17 265.48 274.69 289.9 280.08 287.24 312.32 258.88 320.84 253.74 292.17"/><polygon class="cls-24" points="253.74 292.17 289.9 280.08 275.65 252.55 247.5 257.33 253.74 292.17"/><polygon class="cls-26" points="264.26 272.36 270.96 301.12 277.33 299.45 270.13 270.63 264.26 272.36"/><path class="cls-24" d="M273.73,274l-11.22,3.18,2.6,11.2,11.64-3.9Zm-6.63,10.59-1.33-5.48,6.05-1.7,1.32,5.22Z"/><polygon class="cls-24" points="150.85 202.46 128.73 139.95 105.74 149.45 98.25 152.72 120.7 192.15 150.85 202.46"/><polygon class="cls-27" points="136.19 161.01 128.73 139.95 105.74 149.45 114.01 161.01 136.19 161.01"/><polygon class="cls-28" points="105.74 149.45 116.09 154.74 117.13 149.45 116.66 146.71 118.14 144.33 119 139.95 118.47 137.52 119.95 135.12 126.87 99.97 126.47 96.94 127.96 94.43 133.76 65.02 123.71 63.53 117.51 93.18 118.08 95.24 116.69 97.11 109.59 130.92 108.07 135.58 108.07 138.34 107.03 143.32 107.44 146.17 105.74 149.45"/><polygon class="cls-29" points="105.74 149.45 117.13 149.45 118.14 144.33 107.03 143.32 105.74 149.45"/><polygon class="cls-29" points="119 139.95 108.07 138.34 108.8 134.84 119.95 135.12 119 139.95"/><polygon class="cls-29" points="126.89 99.98 116.69 97.11 117.51 93.18 127.96 94.43 126.89 99.98"/><polygon class="cls-30" points="145.12 19.97 174.9 2.85 225.5 0 166.51 31.21 145.12 19.97"/><polygon class="cls-31" points="109.5 79.33 176.73 75.27 259.97 37.81 241.43 38.16 143.22 46.74 115.69 49.94 109.5 79.33"/><polygon class="cls-30" points="142.26 60.2 109.5 79.33 179.18 80.63 259.97 37.81 241.43 38.16 142.26 60.2"/><polygon class="cls-32" points="145.12 19.97 166.51 24.25 174.28 37.81 174.28 62.42 143.22 46.74 145.12 19.97"/><polygon class="cls-9" points="166.51 24.25 225.5 0 235.62 24.25 174.28 62.42 166.51 24.25"/><polygon class="cls-9" points="171.69 48.15 143.22 46.74 142.26 60.2 174.28 62.42 174.74 54.58 171.69 48.15"/><polygon class="cls-6" points="235.62 24.25 171.69 48.15 174.28 62.42 241.43 38.16 235.62 24.25"/><polygon class="cls-1" points="108.07 138.34 104 127.93 119.84 124.43 119.95 135.12 109.59 130.92 108.07 138.34"/><polygon class="cls-14" points="119.95 135.12 136.44 117.55 126.89 99.98 118.72 116.78 117.84 126.43 119.95 135.12"/><polygon class="cls-13" points="126.89 99.98 110.56 100.98 104 127.93 117.84 126.43 126.89 99.98"/></svg>