<svg id="Layer_1" data-name="Layer 1" xmlns="http://www.w3.org/2000/svg" viewBox="0 0 400 400"><defs><style>.cls-1{fill:#fce3d4;}.cls-2{fill:#f4c9b2;}.cls-3{fill:#c1907d;}.cls-10,.cls-4{fill:#2b2b2b;}.cls-4{opacity:0.1;}.cls-5{fill:#9d7700;}.cls-6{fill:#846400;}.cls-7{fill:#755800;}.cls-8{fill:#ffefe7;}.cls-9{fill:#46382d;}.cls-11{fill:#5e5044;}.cls-12{fill:#b48a00;}.cls-13{fill:#e4c728;}.cls-14{fill:#cbac14;}.cls-15{fill:#dcdcdb;}.cls-16{fill:#c3c3c3;}.cls-17{fill:#a2a2a2;}.cls-18{fill:#ebebea;}.cls-19{fill:#737373;}</style></defs><title>explorers_ISTP_famous_fictional_john_mcclane_die_hard</title><polygon class="cls-1" points="259.55 275.21 270.88 265.31 269.3 277.96 262.4 286.34 259.55 275.21"/><polygon class="cls-1" points="273.43 237.84 305.93 227.47 288.21 268.34 279.55 271.42 270.88 265.31 273.43 237.84"/><polygon class="cls-2" points="288.21 268.34 285.55 288.96 272.3 292.34 262.4 286.34 270.88 265.31 288.21 268.34"/><polygon class="cls-2" points="272.74 178.5 305.93 227.47 273.43 237.84 257.72 225.18 272.74 178.5"/><polygon class="cls-3" points="285.55 288.96 279.68 303.34 261.3 303.71 262.4 286.34 285.55 288.96"/><polygon class="cls-4" points="126.99 390.84 148.4 386.25 211.49 378 287.57 386.25 259.24 392.16 211.01 399.84 126.99 390.84"/><path class="cls-1" d="M202.74,168.5l43-6.66,27,16.66-15,46.68s-37.61-12-38-12-17.13.75-17,.63S176.33,198,176.33,198l-6.76-5.47,6.84-27.33,21.64-6.42Z"/><polygon class="cls-1" points="179.74 11.51 161.49 28.84 152.41 107.34 163.74 133.5 201.6 139.67 223.57 130.94 249.3 41.52 228.41 17.5 213.41 28.84 184.4 23.5 179.74 11.51"/><polygon class="cls-2" points="202.74 168.5 245.74 161.84 270.74 90.59 249.3 41.52 223.07 132.84 202.09 139.51 202.74 168.5"/><polygon class="cls-3" points="187.81 137.43 202.74 168.5 227.07 143.84 187.81 137.43"/><polygon class="cls-5" points="254.68 271.44 254.74 326.59 238.32 337.63 218.82 332.26 203.99 297.09 215.41 284.07 233.55 276.96 254.68 271.44"/><polygon class="cls-6" points="209.09 309.19 191.99 367.59 165.49 319.36 161.96 271.06 174.07 278.17 193.07 276.34 203.99 297.09 209.09 309.19"/><polygon class="cls-7" points="176.61 265.31 217.51 265.31 254.68 271.44 203.99 297.09 161.96 271.06 176.61 265.31"/><polygon class="cls-1" points="255.79 374.96 257.89 392.16 226.74 392.16 233.47 372.21 255.79 374.96"/><polygon class="cls-2" points="226.74 392.16 241.74 380.34 257.89 392.16 226.74 392.16"/><polygon class="cls-1" points="190.47 374.96 190.3 386.25 148.4 386.25 168.9 365.84 190.47 374.96"/><polygon class="cls-2" points="148.4 386.25 142.4 373.17 166.66 386.25 148.4 386.25"/><polygon class="cls-2" points="176.41 165.17 147.52 198.12 164.07 214.5 176.41 165.17"/><polygon class="cls-1" points="129.92 180.39 164.07 214.5 165.8 228.47 162.96 237.72 137.76 237.72 115.07 189.84 129.92 180.39"/><polygon class="cls-8" points="186.71 62.66 185.15 80.92 179.74 89.09 192.62 90.34 190.24 81.5 193.15 63.37 186.71 62.66"/><polygon class="cls-3" points="179.74 89.09 185.15 95.84 192.62 90.34 179.74 89.09"/><polygon class="cls-9" points="193.15 63.37 213.48 65.87 217.86 69.5 219.61 68 216.48 63.37 198.36 60.25 193.15 63.37"/><polygon class="cls-9" points="186.71 62.66 170.71 58.66 165.96 59.41 165.96 57.41 171.58 55.04 185.96 58.85 186.71 62.66"/><polygon class="cls-2" points="217.86 69.5 204.11 75.03 192.62 90.34 190.24 81.5 193.15 63.37 213.48 65.87 217.86 69.5"/><circle class="cls-10" cx="204.11" cy="75.03" r="3.94"/><polygon class="cls-2" points="165.96 59.41 175.8 71.09 182.31 85.22 185.15 80.92 186.71 62.66 170.71 58.66 165.96 59.41"/><circle class="cls-10" cx="175.8" cy="71.09" r="3.94"/><polygon class="cls-11" points="264.36 39.11 237.99 8.84 186.66 0.16 179.74 11.51 184.4 23.5 213.41 28.84 228.41 17.5 249.3 41.52 253.31 54.71 245.41 63.84 249.99 79.09 245.99 94.84 255.24 98.34 259.49 84.84 270.74 90.59 276.9 71.09 264.36 39.11"/><polygon class="cls-12" points="161.96 258.44 254.74 258.38 254.68 271.44 161.96 271.06 161.96 258.44"/><polygon class="cls-13" points="204.49 267.82 187.33 271.16 187.33 258.44 208.78 258.44 204.49 267.82"/><polygon class="cls-14" points="187.33 271.16 208.78 258.44 208.78 271.25 187.33 271.16"/><polygon class="cls-1" points="192.62 90.34 206.18 106.59 207.44 119.57 228.17 113.5 241.49 111.08 245.99 94.84 247.27 98.68 233.1 125.79 201.56 139.67 163.74 133.5 152.41 107.34 162.17 109.65 166.74 99.21 179.74 89.09 185.15 95.84 192.62 90.34"/><polygon class="cls-4" points="192.62 90.34 206.18 106.59 207.44 119.57 228.17 113.5 241.49 111.08 245.99 94.84 244.98 102.92 223.57 130.94 201.56 139.67 163.74 133.5 152.41 107.34 162.17 109.65 166.74 99.21 179.74 89.09 185.15 95.84 192.62 90.34"/><polygon class="cls-2" points="227.07 143.84 249.66 104.28 251.47 97.75 242.24 94.25 237.74 110.49 228.17 113.5 228.17 113.5 223.57 130.94 201.6 139.67 227.07 143.84"/><polygon class="cls-4" points="227.07 143.84 249.66 104.28 251.47 97.75 242.24 94.25 237.74 110.49 228.17 113.5 228.17 113.5 223.57 130.94 201.6 139.67 227.07 143.84"/><polygon class="cls-3" points="187.81 137.43 186.18 124.46 179.74 136.11 187.81 137.43"/><rect class="cls-3" x="184.11" y="97.79" width="3" height="22.22" transform="translate(51.69 277.35) rotate(-81.92)"/><polygon class="cls-9" points="228.41 17.5 237.99 8.84 264.36 39.11 249.3 41.52 228.41 17.5"/><polygon class="cls-9" points="276.9 71.09 242.98 63.54 246.24 78.5 242.24 94.25 251.47 97.75 255.74 84.25 270.74 90.59 276.9 71.09"/><polygon class="cls-11" points="249.3 41.52 264.36 39.11 276.9 71.09 242.98 63.54 253.31 54.71 249.3 41.52"/><polygon class="cls-9" points="179.74 11.51 228.41 17.5 213.41 28.84 184.4 23.5 179.74 11.51"/><polygon class="cls-7" points="202.34 332.26 165.49 319.36 168.9 365.84 190.47 374.96 202.34 332.26"/><polygon class="cls-6" points="233.47 372.21 254.88 374.85 254.74 326.59 218.82 332.26 233.47 372.21"/><polygon class="cls-7" points="117.78 195.4 134.44 184.91 129.92 180.39 115.07 189.84 117.78 195.4"/><polygon class="cls-7" points="130.02 173 137.76 156.91 104.43 124.14 99.07 128.67 130.02 173"/><polygon class="cls-2" points="130.02 180.22 130.02 173 118.74 157.34 111.18 163.05 105.86 181.86 115.07 189.84 130.02 180.22"/><polygon class="cls-1" points="111.09 163.05 103.24 151.84 110.87 145.71 119.04 157.22 111.09 163.05"/><polygon class="cls-3" points="116.21 170.33 105.86 181.86 94.07 170.33 107.13 157.34 116.21 170.33"/><polygon class="cls-7" points="105.86 181.86 111.18 186.47 130.02 173 116.21 170.33 105.86 181.86"/><polygon class="cls-2" points="119.04 157.22 111.09 163.05 125.19 183.33 130.02 180.22 130.02 173 119.04 157.22"/><polygon class="cls-12" points="137.76 156.91 111.76 117.94 104.43 124.14 133.93 164.87 137.76 156.91"/><polygon class="cls-7" points="120.6 131.19 117.57 137.43 126.24 150.17 132.64 149.24 120.6 131.19"/><polygon class="cls-1" points="249.66 104.28 264.29 108.97 270.74 90.59 255.74 84.25 251.47 97.75 249.66 104.28"/><polygon class="cls-3" points="256.11 98.68 266.49 91.93 259.49 89.81 256.11 98.68"/><polygon class="cls-3" points="249.66 104.28 259.82 121.7 264.29 108.97 249.66 104.28"/><polygon class="cls-12" points="122.38 185.14 119.81 186.79 123.04 192.09 125.52 190.53 124.91 189.31 123.24 189.84 121.93 187.52 123.24 186.47 122.38 185.14"/><polygon class="cls-15" points="245.74 161.84 241.66 192.09 209.09 200 190.05 188.62 198.05 158.75 182.51 163.15 169.57 192.5 164.07 214.5 161.96 258.44 254.74 258.38 262.55 172.22 245.74 161.84"/><polygon class="cls-16" points="254.74 258.38 257.72 225.18 164.07 214.5 161.96 258.44 254.74 258.38"/><polygon class="cls-7" points="170.21 271.09 172.93 273.53 174.8 271.11 174.8 258.44 170.21 258.44 170.21 271.09"/><polygon class="cls-7" points="244.98 271.4 247.27 272.21 249.57 271.42 249.57 258.44 244.98 258.44 244.98 271.4"/><polygon class="cls-2" points="212.22 89.09 213.47 90.97 229.05 83.47 225.47 80.05 212.22 89.09"/><polygon class="cls-2" points="213.37 93.75 216.05 94.78 223.22 92.46 223.22 88.3 213.37 93.75"/><polygon class="cls-2" points="213.72 182.05 226.39 176.72 230.72 183.97 225.39 185.38 218.05 191.55 213.72 189.38 213.72 182.05"/><polygon class="cls-17" points="162.96 237.72 174.62 233.34 177.62 239.09 187.99 239.09 187.99 248.4 179.74 254.15 169.93 248.72 162.28 251.78 162.96 237.72"/><polygon class="cls-16" points="258.73 214.37 260.49 195 246.64 200.8 249.3 203.63 249.3 209.63 258.73 214.37"/><polygon class="cls-6" points="247.22 310.3 238.47 303.13 230.8 309.63 234.05 319.71 240.64 323.96 241.47 315.8 247.22 310.3"/><polygon class="cls-7" points="225.28 271.32 228.14 273.96 229.87 271.34 229.87 258.4 225.28 258.4 225.28 271.32"/><polygon class="cls-3" points="174.61 108.9 156.68 117.21 154.45 111.95 163.05 108.9 174.61 108.9"/><polygon class="cls-18" points="150.24 107.47 150.84 112.34 174.61 108.9 174.82 105.85 150.24 107.47"/><polygon class="cls-19" points="149.24 112.68 154.45 111.95 152.41 107.34 149.09 107.34 149.24 112.68"/><polygon class="cls-12" points="174.82 105.85 169.41 106.21 169.41 109.65 174.61 108.9 174.82 105.85"/></svg>