<svg id="Layer_1" data-name="Layer 1" xmlns="http://www.w3.org/2000/svg" viewBox="0 0 400 400"><defs><style>.cls-1{fill:#2b2b2b;fill-opacity:0.1;}.cls-2{fill:#9ca0a1;}.cls-3{fill:#cfae95;}.cls-4{fill:#eed2c1;}.cls-5{fill:#a8836c;}.cls-6{fill:#c1b174;}.cls-7{fill:#474747;}.cls-8{fill:#a09060;}.cls-9{fill:#e2cf85;}.cls-10{fill:#f6e5db;}.cls-11{fill:#4f5253;}.cls-12{fill:#6f7173;}.cls-13{fill:#a2a2a2;}.cls-14{fill:#848585;}.cls-15{fill:#cdcdcc;}.cls-16{fill:#ebebea;}.cls-17{fill:#8e8e8e;}.cls-18{fill:#e1a842;}.cls-19{fill:#bb8e2d;}.cls-20{fill:#846400;}.cls-21{fill:#9d7700;}.cls-22{fill:#755800;}.cls-23{fill:#be8e00;}.cls-24{fill:#b48a00;}</style></defs><title>explorers_ISTP_famous_fictional_james_bond</title><g id="Layer_1-2" data-name="Layer_1"><polygon class="cls-1" points="216.1 387.29 296.53 397.52 388.95 373.14 356.26 364.58 281.56 342.78 106.21 347.69 74.6 369.07 11.05 379.88 136.74 399.43 216.1 387.29"/><polygon class="cls-2" points="225.25 368.99 237.72 383.29 252.36 379.55 242.55 355.26 219.09 356.43 225.25 368.99"/><polygon class="cls-3" points="115.94 130.25 130.92 36.75 160.78 73.19 167.1 106.29 154.54 143.73 117.11 160.36 115.94 130.25"/><polygon class="cls-4" points="54.64 35.59 57.97 104.55 73.6 131.17 115.94 130.25 130.75 102.97 130.75 74.69 126.42 64.79 131 53.97 131.17 36.5 131.58 18.87 87.16 21.28 66.87 15.79 54.64 35.59"/><polygon class="cls-3" points="90.41 49.9 87.66 58.05 90.32 59.88 90.41 49.9"/><polygon class="cls-5" points="130.75 71.03 128.34 60.21 143.89 65.95 130.75 71.03"/><polygon class="cls-5" points="91.65 130.75 103.72 145.56 107.88 154.29 122.68 152.21 134.83 130.09 115.94 130.25 91.65 130.75"/><polygon class="cls-5" points="89.49 93.57 82.17 88.41 95.81 88.16 89.49 93.57"/><polygon class="cls-6" points="130.92 36.75 149.05 80.01 155.29 80.67 176.09 70.03 175.09 27.02 149.8 25.27 130.92 36.75"/><polygon class="cls-7" points="130.92 53.89 176.09 70.03 156.95 68.86 130.75 63.04 126.92 58.63 130.92 53.89"/><polygon class="cls-4" points="156.95 68.86 155.29 80.67 153.38 93.57 170.59 95.9 176.09 70.03 156.95 68.86"/><polygon class="cls-5" points="158.53 88.08 160.78 73.19 171.01 75.35 158.53 88.08"/><polygon class="cls-5" points="167.1 106.29 153.38 93.57 170.59 95.9 167.1 106.29"/><polygon class="cls-8" points="54.64 35.59 69.78 20.53 73.77 15.38 59.96 16.29 54.64 35.59"/><polygon class="cls-6" points="101.64 0.57 71.11 12.13 59.96 16.29 84.58 26.94 126.42 21.53 138.4 22.95 156.29 6.23 101.64 0.57"/><polygon class="cls-9" points="130.92 36.75 126.42 21.53 156.29 6.23 175.09 27.02 130.92 36.75"/><path class="cls-3" d="M56.88,82.34l20.63,3.08,4.66,3,1.42-6.32-.92-6.24Zm38.93,5.82,28.62-6.32L95.65,75.1,92.24,81Z"/><polygon class="cls-10" points="82.17 88.41 82.67 75.85 79.26 68.86 83.17 63.7 90.16 60.96 95.48 64.04 99.72 70.11 95.65 75.43 95.81 88.16 82.17 88.41"/><polygon class="cls-7" points="83.17 63.7 95.48 64.04 98.39 60.96 95.48 58.13 83.42 57.97 80.42 60.88 83.17 63.7"/><polygon class="cls-11" points="49.81 54.8 83.75 54.31 82.67 75.85 76.68 81.42 56.88 82.34 50.31 76.93 49.81 54.8"/><polygon class="cls-11" points="95.4 54.06 95.65 75.43 99.39 80.92 124.43 81.84 130.75 74.69 130.75 63.04 130.92 53.89 95.4 54.06"/><polygon class="cls-3" points="76.02 40.5 88.99 41.58 111.04 37.34 88.91 40.08 76.02 40.5"/><polygon class="cls-5" points="80.09 104.55 92.82 104.8 109.79 101.22 110.12 103.47 93.15 107.13 80.51 107.21 80.09 104.55"/><polygon class="cls-3" points="100.72 88.58 111.2 93.82 117.61 104.22 112.95 91.07 100.72 88.58"/><polygon class="cls-11" points="161.69 308.68 139.4 298.78 169.1 290.21 161.69 308.68"/><polygon class="cls-12" points="256.61 384.87 260.1 389.7 279.4 382.96 276.07 339.87 256.61 384.87"/><polygon class="cls-13" points="324.07 370.15 302.11 383.88 275.24 384.29 272.99 365.24 239.47 363.16 237.72 383.29 216.68 377.64 203.04 361.5 223.33 332.8 246.46 333.8 272.24 331.3 316.75 348.86 324.07 370.15"/><polygon class="cls-2" points="343.37 336.46 368.57 342.78 356.26 364.58 302.11 383.88 312.5 359.34 343.37 336.46"/><path class="cls-14" d="M255.44,341.54c9.23-.34,17.14,10.23,17.55,23.7s-6.73,24.62-16.05,25-17.14-10.23-17.55-23.71S246.21,342,255.44,341.54Z"/><path class="cls-12" d="M257.69,352.35c3.82,1.5,6.82,6.74,7,13.22.25,6.74-2.66,12.4-6.65,13.9,0,0-8.07-1.5-8.73-13.31S257.69,352.35,257.69,352.35Z"/><polygon class="cls-12" points="122.6 372.48 146.14 365.99 145.89 332.14 130.25 316.5 117.27 327.23 122.6 372.48"/><polygon class="cls-13" points="216.68 377.64 143.23 366.74 139.24 342.78 109.12 326.56 111.04 311.67 125.59 304.6 170.18 321.4 215.26 328.48 236.97 336.96 216.68 377.64"/><polygon class="cls-15" points="226.99 323.73 227.24 334.88 236.97 336.96 269.33 336.21 312.5 359.34 368.57 342.78 332.55 321.24 295.2 315.83 226.99 323.73"/><polygon class="cls-12" points="153.04 306.6 156.37 318.08 225.83 327.81 209.86 303.44 164.6 294.37 153.04 306.6"/><polygon class="cls-13" points="156.62 306.68 160.28 316.08 222.5 326.06 211.85 306.43 162.78 300.61 161.94 293.7 165.1 284.72 171.43 293.12 212.02 296.12 229.82 300.44 239.31 321.49 238.64 328.89 236.97 336.96 157.29 323.4 151.55 317.41 156.62 306.68"/><polygon class="cls-14" points="213.93 296.12 219.51 301.69 238.64 328.89 295.2 315.83 260.18 295.87 213.93 296.12"/><polygon class="cls-15" points="169.68 295.37 219.51 301.69 260.18 295.87 177.17 286.63 169.68 295.37"/><polygon class="cls-13" points="165.1 284.72 118.86 296.12 111.04 311.67 128.42 309.84 160.28 316.08 157.29 307.51 167.68 297.53 165.1 284.72"/><path class="cls-14" d="M120.52,318.33c10.4-.42,18.8,11.39,18.8,26.45s-8.4,27.53-18.8,28c-7.57.25-14.81-3.41-18.55-12.9-1.25-3.32-.17-9.56-.17-13.55C101.8,331.22,110.2,318.74,120.52,318.33Z"/><path class="cls-12" d="M120.6,331.05c4.16,1.67,7.16,7.49,7.16,14.56,0,7.32-3.25,13.56-7.66,15.31,0,0-11.23-3.33-9.48-16.31s10-13.56,10-13.56Z"/><polygon class="cls-16" points="335.88 336.21 347.52 333.05 359.09 340.37 346.11 343.7 335.88 336.21"/><polygon class="cls-15" points="326.48 358.75 321.99 374.31 348.36 365.24 353.76 350.77 326.48 358.75"/><path class="cls-14" d="M329.31,361.25l-1.67,6.4.75,1.5,3.49-.33,1.09-2.08,1.24-5.82-1.58-1.25-2.49.16-.83,1.42Zm1.66.83.91.58-.24,3.58-2-.08Z"/><path class="cls-17" d="M336.13,359.34l-1.67,6.32.84,1.5,3.49-.25,1.08-2.08L341,359l-1.5-1.33-2.58.17-.83,1.5Zm1.66.83.92.58-.17,3.58-2.08-.08Z"/><polygon class="cls-17" points="342.7 356.43 349.35 355.01 345.03 364.25 342.78 364.91 345.19 359.09 342.2 359.59 342.7 356.43"/><polygon class="cls-16" points="297.53 346.36 313 354.1 328.06 349.52 315.08 341.2 297.53 346.36"/><polygon class="cls-18" points="19.04 110.04 15.79 98.39 11.96 93.23 20.2 88.33 52.56 132.75 47.57 144.23 38.33 144.06 19.04 110.04"/><polygon class="cls-4" points="25.52 119.44 16.29 126.26 23.44 134.08 32.01 129.92 25.52 119.44"/><path class="cls-19" d="M16.54,144.81l-4.82,5.82,9.9,14.81,9.73-3.91,8.48-21.21-2.24-11L15.79,98.39,11.88,102,18,111.7l-6.57,7.4,4,8.57,1.08,17.14Zm4.24-28.7L28.27,128l-5.49,1.91-6.41-9.48Z"/><path class="cls-18" d="M17,147.14l4.82,3.49,2.08,2.58L36,140l-3.07-6.65-1.67-1.66L27,135.16s-8.4,5-9.56,5.07S17,147.14,17,147.14Z"/><polygon class="cls-3" points="38.33 167.43 44.74 162.69 47.57 144.23 36.01 139.98 34.59 146.64 21.61 165.44 38.33 167.43"/><polygon class="cls-4" points="47.57 144.23 37.59 129.34 31.26 131.67 34.59 146.64 47.57 144.23"/><polygon class="cls-20" points="49.48 186.23 75.6 160.86 81.26 171.09 77.6 217.01 65.87 218.09 56.14 208.44 49.48 186.23"/><polygon class="cls-16" points="38.17 181.99 23.36 178.5 21.61 165.44 44.74 162.69 48.73 173.34 38.17 181.99"/><polygon class="cls-21" points="23.36 178.5 48.73 173.34 65.87 218.09 29.02 221.5 23.36 178.5"/><polygon class="cls-4" points="15.54 127.67 11.72 150.63 21.86 150.63 27.02 135.16 15.54 127.67"/><polygon class="cls-21" points="120.44 298.53 101.3 334.38 89.74 359.83 82.34 363.33 72.94 359.92 72.44 275.49 84.5 274.49 115.61 290.96 120.44 298.53"/><polygon class="cls-20" points="122.93 299.69 101.97 359.83 94.56 364.16 89.74 359.83 96.48 287.05 112.12 289.13 122.93 299.69"/><polygon class="cls-21" points="143.98 284.56 165.69 365.99 180.83 366.16 184.15 362.16 177.17 286.63 158.95 251.28 143.98 284.56"/><polygon class="cls-20" points="122.93 299.69 157.37 363.41 166.77 367.65 168.18 362.91 146.72 287.8 129.5 286.3 122.93 299.69"/><polygon class="cls-22" points="122.93 299.69 96.48 287.05 97.56 279.9 116.44 268.92 140.57 279.31 146.72 287.8 122.93 299.69"/><polygon class="cls-16" points="156.2 156.04 125.43 155.71 100.06 152.54 101.72 193.05 117.11 233.48 160.86 185.07 156.2 156.04"/><polygon class="cls-15" points="128.84 162.28 128.42 162.11 121.6 166.19 117.11 233.48 160.86 185.07 150.88 172.34 155.54 170.18 158.7 154.21 155.62 154.13 157.12 150.13 154.54 143.73 122.68 151.63 122.1 157.87 128.84 162.28"/><polygon class="cls-16" points="111.53 162.28 100.06 152.54 103.72 145.56 122.68 151.63 122.1 157.87 111.53 162.28"/><polygon class="cls-11" points="149.05 153.46 144.48 176.42 126.17 167.93 121.85 165.19 117.44 167.6 104.63 174.09 100.31 164.52 100.06 152.54 117.94 158.2 121.93 160.36 125.76 158.37 149.05 153.46"/><polygon class="cls-7" points="126.17 167.93 117.44 167.6 117.94 158.2 125.76 158.37 126.17 167.93"/><polygon class="cls-13" points="120.6 180.33 125.59 184.49 120.1 188.9 115.11 183.9 120.6 180.33"/><polygon class="cls-13" points="114.11 205.12 119.27 201.29 123.76 205.86 118.69 210.11 114.11 205.12"/><polygon class="cls-23" points="100.06 152.54 75.6 160.86 72.11 217.51 93.9 238.22 117.11 233.48 97.81 177.75 100.06 152.54"/><polygon class="cls-24" points="72.11 217.51 72.44 275.49 96.48 287.05 116.36 273.41 120.93 248.2 117.11 233.48 72.11 217.51"/><polygon class="cls-21" points="157.12 150.13 188.15 161.03 190.14 194.47 178.66 224.41 149.3 239.47 117.11 233.48 158.95 181.99 157.12 150.13"/><polygon class="cls-20" points="180.58 226.99 177.58 254.36 158.95 263.59 141.9 271.41 116.36 273.41 117.11 233.48 178.66 224.41 180.58 226.99"/><polygon class="cls-18" points="100.06 152.54 117.11 233.48 85.17 185.07 100.06 152.54"/><polygon class="cls-18" points="157.12 150.13 165.35 181.99 117.11 233.48 157.12 150.13"/><polygon class="cls-20" points="188.15 161.03 205.45 181.99 216.6 234.4 195.3 236.48 178.66 224.41 188.15 161.03"/><polygon class="cls-21" points="178.66 224.41 164.52 252.45 172.59 263.18 187.48 265.59 216.6 234.4 178.66 224.41"/><polygon class="cls-4" points="158.95 263.59 177.17 286.63 179.66 273.99 172.51 267.17 158.95 263.59"/><polygon class="cls-11" points="157.37 363.41 153.88 382.63 172.76 385.04 190.72 382.38 184.15 362.16 157.37 363.41"/><polygon class="cls-7" points="153.88 388.45 190.72 388.45 190.72 382.38 153.88 382.63 153.88 388.45"/><polygon class="cls-7" points="101.97 381.63 47.23 381.8 47.23 376.14 59.71 372.65 93.9 371.73 101.97 375.56 101.97 381.63"/><polygon class="cls-11" points="72.94 359.92 47.23 376.14 101.97 375.97 101.97 359.83 72.94 359.92"/><polygon class="cls-16" points="164.52 252.45 187.48 265.59 179.66 273.99 158.95 263.59 164.52 252.45"/><polygon class="cls-24" points="116.36 273.41 158.95 263.59 146.72 287.8 116.36 273.41"/><path class="cls-11" d="M117.94,330.55a7.26,7.26,0,0,1,2.66.5c-4.41,1.75-7.65,8-7.65,15.31,0,7.07,3,12.89,7.15,14.56a6.19,6.19,0,0,1-2.16.41c-5.49.25-9.9-6.49-9.9-15S112.45,330.8,117.94,330.55Z"/><path class="cls-11" d="M255.36,352a7.5,7.5,0,0,1,2.33.33c-4,1.5-6.91,7.24-6.66,13.89.17,6.49,3.16,11.81,7,13.23a4.45,4.45,0,0,1-1.83.33c-4.91.25-9.07-5.82-9.32-13.56S250.45,352.18,255.36,352Z"/></g></svg>