<svg xmlns="http://www.w3.org/2000/svg" viewBox="0 0 400 400"><defs><style>.a,.k{fill:#474748;}.a{opacity:0.1;}.b{fill:#c2987a;}.c{fill:#dfbda5;}.d{fill:#ccae2d;}.e{fill:#f4d75c;}.f{fill:#e4c823;}.g{fill:#755924;}.h{fill:#846528;}.i{fill:#bd902d;}.j{fill:#8b6651;}.l{fill:#4f5353;}.m{fill:#2b2b2b;}.n{fill:#6f7273;}.o{fill:#e9cbb7;}</style></defs><title>explorers_ISTP_famous_real_michelle_rodriguez</title><polygon class="a" points="123.8 385.62 195.72 400.17 273.12 385.62 198.46 375.51 123.8 385.62"/><polygon class="b" points="250.89 146.99 243.65 197.31 261.89 214.65 293.33 220.3 250.89 146.99"/><polygon class="b" points="170.81 217.82 174.5 155.65 166.75 157.81 149.05 208.35 154.99 215.43 170.81 217.82"/><polygon class="c" points="174.76 238.13 170.81 217.82 127.56 199.01 116.9 211.16 155.38 238.69 174.76 238.13"/><polygon class="c" points="124.09 177.7 115.5 182.32 111.17 190.08 116.9 211.16 127.56 199.01 124.09 177.7"/><polygon class="b" points="127.56 199.01 129.54 182.5 124.85 182.32 120 194.43 121.98 205.37 127.56 199.01"/><polygon class="c" points="174.52 155.65 155.38 197.13 170.19 247.48 229.38 247.47 243.65 197.31 220.37 147.31 190.48 150.65 174.52 155.65"/><polygon class="d" points="183.09 152.97 172.92 176.05 168.6 168.48 174.52 155.65 183.09 152.97"/><polygon class="e" points="168.6 168.48 193.22 197.21 155.38 197.13 168.6 168.48"/><polygon class="f" points="229.15 166.17 193.22 197.21 243.65 197.31 229.15 166.17"/><polygon class="b" points="194.93 175.15 193.22 197.21 185.43 188.12 194.93 175.15"/><polygon class="d" points="229.38 247.47 243.65 197.31 155.38 197.13 170.19 247.48 229.38 247.47"/><polygon class="g" points="185.43 188.12 193.22 197.21 191.64 232.89 183.59 238.69 178.53 231.1 184.13 217.91 189.87 214.91 185.41 210.38 179.34 197.21 185.43 188.12"/><polygon class="g" points="170.19 247.48 163.18 280.81 169.75 305.79 164.36 326.94 165.25 362.15 183.27 358.9 191.01 331.37 185.88 307 201.91 292.55 215.5 309.5 213.06 331.35 221.92 362.15 239.05 362.15 241.02 327.2 234 306.09 243.67 280.24 237.97 267.18 224.17 247.46 170.19 247.48"/><polygon class="h" points="164.36 326.94 191.01 331.37 201.91 292.55 163.18 280.81 164.36 326.94"/><polygon class="h" points="240.82 327.2 243.67 280.24 201.91 292.55 213.06 331.34 240.82 327.2"/><polygon class="c" points="255.44 258.72 293.33 220.3 261.89 214.65 243.65 247.46 255.44 258.72"/><polygon class="c" points="224.17 247.46 217.97 263.31 229.5 275.44 237.97 267.18 224.17 247.46"/><polygon class="b" points="243.65 247.46 224.17 247.46 237.97 267.18 255.44 258.72 243.65 247.46"/><polygon class="g" points="239.05 362.15 244.45 373.28 242.61 391.94 239.05 391.94 235.94 377.04 239.05 362.15"/><polygon class="g" points="183.27 358.9 187.75 367.81 181.35 385.62 177.5 385.62 173.18 372.6 183.27 358.9"/><polygon class="i" points="165.25 358.9 139.27 385.62 167.36 385.62 183.27 358.9 165.25 358.9"/><polygon class="i" points="221.92 362.15 213.03 391.94 239.05 391.94 239.05 362.15 221.92 362.15"/><polygon class="c" points="142.48 42.6 133.56 62.64 142.48 108.7 163.94 134.67 190.71 134.67 209.42 115.55 215.59 56.3 183.09 34.04 160.26 23.42 142.48 42.6"/><polygon class="b" points="197.09 162.13 220.37 153.71 232.37 123.77 236.08 83.25 215.59 56.3 209.42 115.55 187.43 137.82 197.09 162.13"/><polygon class="j" points="181.38 134.67 216.13 134.67 197.09 162.13 181.38 134.67"/><polygon class="k" points="139.48 93.25 123.16 65.15 132.04 46.02 136.76 19.06 222.06 3.66 223.72 26 258.56 35.74 253.61 54.99 266.92 65.6 258.56 77.5 273.71 89.87 256.34 123.77 265.37 147.31 248.72 162.13 256.34 178.23 243.65 197.31 232.35 186.18 211.12 181.74 208.35 158.06 223.72 142.61 229.11 131.48 220.37 120.18 230.07 102.43 224.55 87.67 215.59 56.3 160.26 23.42 142.48 42.6 133.56 62.64 139.48 93.25"/><polygon class="l" points="160.26 23.42 140.92 32.37 146.07 53.91 160.26 60.76 168.6 58.7 157.7 42.09 160.26 23.42"/><polygon class="k" points="175.85 18.29 160.26 23.42 175.85 49.8 196.49 58.36 202.23 54.59 187.86 39.83 175.85 18.29"/><polygon class="m" points="140.92 32.37 130.19 60.9 137.56 83.31 136.76 62.81 143.32 42.42 140.92 32.37"/><polygon class="l" points="136.76 19.06 140.92 32.37 130.19 60.9 123.16 65.15 136.76 19.06"/><polygon class="k" points="171.73 0.17 160.26 23.42 175.85 18.29 222.06 3.66 171.73 0.17"/><polygon class="k" points="157.7 42.09 146.07 53.91 160.26 60.76 168.6 58.7 157.7 42.09"/><polygon class="l" points="215.59 56.3 258.56 35.74 222.06 3.66 175.85 18.29 187.86 39.83 215.59 56.3"/><polygon class="k" points="202.23 54.59 187.86 39.83 175.85 49.8 196.49 58.36 202.23 54.59"/><polygon class="m" points="136.76 19.06 171.73 0.17 160.26 23.42 140.92 32.37 136.76 19.06"/><polygon class="l" points="238.42 93.25 273.71 89.87 266.92 65.6 249.13 51.42 258.56 35.74 215.59 56.3 218.44 79.05 224.55 87.67 238.42 93.25"/><polygon class="n" points="266.92 65.6 258.56 35.74 215.59 56.3 266.92 65.6"/><polygon class="m" points="230.07 102.43 273.71 89.87 256.34 123.77 220.37 120.18 230.07 102.43"/><polygon class="m" points="223.72 142.61 265.37 147.31 248.72 162.13 208.35 158.06 223.72 142.61"/><polygon class="k" points="220.37 120.18 256.34 123.77 265.37 147.31 223.72 142.61 220.37 120.18"/><polygon class="m" points="211.12 181.74 256.34 178.23 243.65 197.31 211.12 181.74"/><polygon class="k" points="208.35 158.06 248.72 162.13 256.34 178.23 211.12 181.74 208.35 158.06"/><polygon class="m" points="160.26 23.42 175.85 18.29 187.86 39.83 175.85 49.8 160.26 23.42"/><polygon class="j" points="163.34 95.82 169.83 101.87 174.74 95.82 163.34 95.82"/><polygon class="k" points="174.57 71.89 190.33 68.96 200.43 70.16 190.58 66.63 174.57 68.33 174.57 71.89"/><polygon class="k" points="163.92 71.89 164.33 68.33 147.67 66.21 140.92 70.04 147.38 68.71 163.92 71.89"/><polygon class="b" points="200.43 70.16 183.54 78.09 174.74 95.82 171.73 79.83 174.57 71.89 190.33 68.96 200.43 70.16"/><polygon class="b" points="140.92 70.04 154.94 77.5 163.34 95.82 167.07 79.9 163.92 71.89 147.38 68.71 140.92 70.04"/><path class="m" d="M187.68,77.5a3.89,3.89,0,1,1-3.88-3.89A3.88,3.88,0,0,1,187.68,77.5Z"/><path class="m" d="M158.82,77.5a3.89,3.89,0,1,1-3.88-3.89A3.88,3.88,0,0,1,158.82,77.5Z"/><polygon class="i" points="156.96 109.63 164.5 115.34 178.05 115.34 187.04 109.09 156.96 109.63"/><polygon class="g" points="156.96 109.63 167.52 106.66 169.69 106.47 171.73 106.37 187.04 109.09 182.26 110.56 160.94 110.56 156.96 109.63"/><polygon class="k" points="273.71 89.87 224.55 87.67 230.07 102.43 273.71 89.87"/><polygon class="j" points="230.07 102.43 223.72 100.68 227.67 106.82 230.07 102.43"/><polygon class="m" points="169.02 137.82 165.04 146.99 174.52 155.65 190.48 150.65 181.38 134.67 169.02 137.82"/><polygon class="k" points="165.04 146.99 181.38 134.67 170 134.67 165.04 146.99"/><polygon class="o" points="163.92 71.89 174.57 71.89 171.73 79.83 174.74 95.82 163.34 95.82 167.07 79.9 163.92 71.89"/><polygon class="m" points="187.86 39.83 258.56 35.74 215.59 56.3 187.86 39.83"/><polygon class="b" points="124.09 177.7 112.43 164.51 105.88 177.81 111.17 190.08 112.43 188.76 124.09 177.7"/><polygon class="h" points="116.9 211.16 122.29 215.02 133.97 201.79 133.97 201.79 127.56 199.01 116.9 211.16"/></svg>