<svg id="Layer_1" data-name="Layer 1" xmlns="http://www.w3.org/2000/svg" viewBox="0 0 400 400"><defs><style>.cls-1{fill:#755800;}.cls-2,.cls-23{fill:#2b2b2b;}.cls-2{fill-opacity:0.1;}.cls-3{fill:#9d7700;}.cls-4{fill:#ab913c;}.cls-5{fill:#cbac14;}.cls-6{fill:#e4c728;}.cls-7{fill:#846400;}.cls-8{fill:#b48a00;}.cls-9{fill:#cdcdcc;}.cls-10{fill:#dcdcdb;}.cls-11{fill:#c1907d;}.cls-12{fill:#f4c9b2;}.cls-13{fill:#fce3d4;}.cls-14{fill:#8c7c2f;}.cls-15{fill:#bb8e2d;}.cls-16{fill:#f3d65d;}.cls-17{fill:#46403a;}.cls-18{fill:#51463e;}.cls-19{fill:#5b4d45;}.cls-20{fill:#be8e00;}.cls-21{fill:#67594f;}.cls-22{fill:#ffefe7;}</style></defs><title>explorers_ISTP_famous_fictional_arya_stark_game_of_thrones</title><polygon class="cls-1" points="147.91 297.13 145.6 301.6 151.81 303.48 155.06 297.92 147.91 297.13"/><polygon class="cls-2" points="132.32 380 245.59 400 320.67 381.74 241.33 369.75 132.32 380"/><polygon class="cls-1" points="249.85 379.93 240.25 388.02 240.25 392.56 272.37 392.56 272.37 388.02 249.85 379.93"/><polygon class="cls-1" points="173.9 376.32 161.92 379.64 161.92 383.83 205.02 383.68 205.02 379.28 173.9 376.32"/><polygon class="cls-3" points="192.89 354.66 183.07 363.69 161.92 379.64 205.02 379.28 205.02 369.1 192.89 354.66"/><polygon class="cls-1" points="191.52 330.48 183.07 343.26 183.07 363.69 205.02 369.1 209.28 349.97 191.52 330.48"/><polygon class="cls-4" points="203.94 321.6 211.95 340.23 209.28 349.97 183.07 343.26 182.49 321.67 203.94 321.6"/><polygon class="cls-3" points="249.27 364.34 246.38 374.59 240.25 388.02 272.37 388.02 268.62 374.88 249.27 364.34"/><polygon class="cls-1" points="250.79 343.83 238.44 357.69 246.38 374.59 268.62 374.88 264 350.04 250.79 343.83"/><polygon class="cls-4" points="241.11 312.72 230.07 339.43 238.44 357.69 264 350.04 261.83 337.63 241.11 312.72"/><polygon class="cls-5" points="197.29 294.31 192.09 299.51 182.49 321.67 211.95 340.23 231.08 314.67 225.23 296.91 197.29 294.31"/><polygon class="cls-6" points="223.28 298.21 223.35 305.43 230.07 339.43 261.83 337.63 266.17 297.77 236.85 285.72 223.28 298.21"/><polygon class="cls-4" points="212.89 298.14 223.35 305.43 239.02 295.68 226.39 277.2 212.89 298.14"/><polygon class="cls-1" points="246.02 299.15 255.55 302.4 266.17 297.77 264.65 283.92 246.38 272.87 235.27 276.19 246.02 299.15"/><polygon class="cls-7" points="222.92 280.38 240.39 309.62 255.55 302.4 243.78 276.41 225.66 270.13 222.92 280.38"/><polygon class="cls-3" points="205.96 271.43 198.38 301.82 210.94 307.67 231.08 276.12 205.96 271.43"/><polygon class="cls-8" points="210.14 272.07 202.35 275.9 192.09 299.51 198.38 301.82 203.65 292.72 216.5 270.63 210.14 272.07"/><polygon class="cls-9" points="137.74 263.19 138.38 257.93 97.6 154.04 82.44 143.14 88.28 170.28 131.24 266.59 137.74 263.19"/><polygon class="cls-10" points="131.24 266.59 126.83 263.12 79.33 161.98 82.44 143.14 134.13 264.5 131.24 266.59"/><path class="cls-7" d="M131.74,270.2l2.31-4.7-7.22-2.38-18,.36,5,7.66Zm6.64-12.28h0l11.41-14.07,2.89,9.24s-11.26,12.27-11.41,13.14l-3.54-3Z"/><path class="cls-1" d="M137.45,273.09h0l-5.71-2.89-4.91-7.08,11.55-5.2,2.89,8.31C141.06,267.09,137.45,273.09,137.45,273.09Z"/><polygon class="cls-11" points="150.51 294.89 157.88 286.23 151.96 273.59 141.78 276.62 150.51 294.89"/><polygon class="cls-3" points="143.8 274.46 155.06 297.92 145.6 301.6 133.4 273.45 143.8 274.46"/><polygon class="cls-12" points="132.47 276.77 129.36 278.93 136.51 293.88 148.2 293.52 139.25 275.97 132.47 276.77"/><polygon class="cls-13" points="160.91 271.57 147.34 268.54 141.27 266.23 131.74 270.2 129.36 278.93 134.41 281.1 139.25 275.97 151.96 278.93 160.91 271.57"/><polygon class="cls-6" points="179.03 243.85 174.99 247.75 147.34 268.54 163 303.69 185.16 264.71 179.03 243.85"/><polygon class="cls-7" points="182.93 256.63 181.41 259.95 185.16 264.71 207.11 246.45 192.09 240.17 182.93 256.63"/><polygon class="cls-3" points="185.16 236.85 177.51 253.88 181.41 259.95 199.17 243.2 195.13 225.08 185.16 236.85"/><polygon class="cls-8" points="198.95 216.49 193.18 203.49 174.99 247.75 177.51 253.88 191.3 233.6 198.95 216.49"/><polygon class="cls-13" points="301.61 218.22 296.49 209.85 298.07 197.14 312.44 195.55 318.29 213.96 301.61 218.22"/><polygon class="cls-12" points="295.11 229.41 295.62 222.12 296.49 209.85 318.29 213.96 310.49 232.3 295.11 229.41"/><polygon class="cls-11" points="310.49 232.3 305.51 242.48 299.66 235.19 295.62 222.12 310.49 232.3"/><polygon class="cls-8" points="257.21 207.82 265.81 199.96 287.75 246.3 279.74 250.56 252.52 214.68 257.21 207.82"/><polygon class="cls-3" points="261.76 213.67 284.43 251.65 276.13 257.06 266.31 249.84 257.07 229.91 261.76 213.67"/><polygon class="cls-7" points="255.26 225.94 260.03 251.07 274.97 261.32 282.12 258.43 262.7 237.93 255.26 225.94"/><polygon class="cls-1" points="256.06 236.12 262.7 237.93 261.9 264.93 235.92 268.39 231.51 235.69 256.06 236.12"/><path class="cls-5" d="M247.11,271.64l-3.32-6.57,18.11-.14.37,11.55S246.82,271.06,247.11,271.64Z"/><path class="cls-7" d="M238.23,232.66l3.82,5.63,1.74,26.78L218.52,270s-1.52-36.1-2.1-34.94S238.23,232.66,238.23,232.66Z"/><polygon class="cls-6" points="240.03 268.61 243.78 265.07 281.04 279.65 264.65 283.92 243.78 276.41 240.03 268.61"/><polygon class="cls-14" points="224.01 270.27 231.08 265.22 243.78 265.07 243.78 276.41 231.08 276.12 224.01 270.27"/><polygon class="cls-3" points="205.74 256.12 211.23 267.96 221.33 269.62 225.23 265.22 220.47 238.36 200.54 229.12 205.74 256.12"/><polygon class="cls-8" points="197.44 228.4 191.3 233.6 201.99 265.07 209.13 271.93 211.95 265.14 204.44 236.05 197.44 228.4"/><polygon class="cls-7" points="232.45 232.23 233.17 232.8 242.05 238.29 262.7 237.93 265.81 199.96 258.66 197.21 229.85 210.5 232.45 232.23"/><polygon class="cls-3" points="213.18 226.38 220.47 238.36 242.05 238.29 246.53 204.72 211.52 212.44 213.18 226.38"/><path class="cls-15" d="M203.43,198.22l-4.62,1.37-5.63,3.9L191.3,233.6l13.14,2.45s7.58-29.45,8.37-29S203.43,198.22,203.43,198.22Z"/><polygon class="cls-8" points="211.15 204.14 205.81 205.15 204.44 236.05 220.47 238.36 220.25 206.24 211.15 204.14"/><path class="cls-4" d="M238.16,203l8.37,1.73,12.13-7.51-9.46-5.41s-14,.43-13.79.72S238.16,203,238.16,203Z"/><polygon class="cls-5" points="227.83 206.16 235.41 210.93 246.53 204.72 238.3 190.93 227.4 198.73 227.83 206.16"/><polygon class="cls-4" points="210.36 202.77 205.81 205.15 198.81 199.59 211.08 193.75 216.21 192.66 210.36 202.77"/><polygon class="cls-5" points="218.44 202.84 218.73 207.68 212.31 210.13 205.81 205.15 213.68 193.67 219.82 197.43 218.44 202.84"/><polygon class="cls-4" points="220.54 215.62 220.32 238.15 235.41 210.93 221.98 209.85 220.54 215.62"/><polygon class="cls-6" points="223.21 194.32 221.98 195.48 223.72 196.49 220.54 214.03 220.54 215.62 222.13 216.7 235.41 210.93 233.1 201.04 223.21 194.32"/><polygon class="cls-5" points="212.31 210.13 220.32 238.15 222.13 216.7 219.96 209.12 212.31 210.13"/><polygon class="cls-16" points="221.98 195.48 217.65 199.45 212.31 210.13 222.13 216.7 223.21 202.91 221.98 195.48"/><polygon class="cls-17" points="265.37 121.84 275.77 165.88 253.24 184.65 231.73 172.23 217.29 128.99 265.37 121.84"/><polygon class="cls-12" points="249.34 141.19 250.28 154.91 255.26 183.06 251.73 193.24 234.47 203.13 214.19 193.96 209.93 165.38 235.12 98.53 261.18 139.24 249.34 141.19"/><polygon class="cls-17" points="260.68 141.62 255.26 183.06 242.41 167.83 252.59 136.14 260.68 141.62"/><path class="cls-11" d="M222,169.78l-4.62,17,24.84.08-7.73,16.31h-10.9l-13.86-8.73-6.71-12S222.06,169.85,222,169.78Z"/><polygon class="cls-18" points="275.26 108.13 280.17 113.54 275.77 165.88 260.32 141.05 249.49 119.25 275.26 108.13"/><polygon class="cls-19" points="264.79 93.18 280.17 113.54 242.41 167.83 238.88 151.66 249.78 92.03 264.79 93.18"/><path class="cls-19" d="M251.8,89.86l1.44,8.74-11.77,13.64-17.32-5.12s-35.59-28.66-36.24-29,36.82-14.08,36.6-15S251.8,89.86,251.8,89.86Z"/><path class="cls-17" d="M208.77,95.78l-.94-6.57L192.24,76.72s-16,12.2-15.59,13.14S208.77,95.78,208.77,95.78Z"/><polygon class="cls-18" points="181.99 78.38 181.7 88.71 225.23 68.06 210.22 63.95 193.68 61.49 181.99 78.38"/><polygon class="cls-18" points="221.41 64.52 220.83 62.57 220.25 60.55 209.35 58.31 186.97 60.7 183.36 66.54 194.84 66.11 221.41 64.52"/><polygon class="cls-19" points="167.12 87.26 162.35 80.12 186.97 60.7 194.84 66.11 181.7 88.71 167.12 87.26"/><polygon class="cls-17" points="161.05 96.79 157.95 110.36 172.31 146.32 169.72 90.01 161.05 96.79"/><polygon class="cls-13" points="168.56 94.77 170.08 164.15 186.61 186.53 217.36 186.74 234.69 167.03 238.8 127.98 224.87 106.61 207.83 89.21 181.7 88.71 168.56 94.77"/><path class="cls-12" d="M179.68,118.38,192.1,125l3.17,6.93,1.52,3,3.25-3,5.19-6.35,4.77-3.11,17.69-3.25,7.65.87-32.92,29.46s-4.55-5.78-5.13-4.91-4.54-.15-4.54-.15L170.37,119l6.78-1.09Z"/><polygon class="cls-20" points="196.35 162.56 188.92 167.9 193.68 171.15 204.51 171.15 207.91 167.4 199.03 162.2 196.35 162.56"/><polygon class="cls-11" points="195.92 145.09 191.37 149.35 197.37 153.39 202.42 149.56 195.92 145.09"/><polygon class="cls-18" points="162.35 80.12 181.7 88.71 157.95 110.36 162.35 80.12"/><polygon class="cls-21" points="233.75 58.96 262.05 74.2 280.17 113.54 253.24 98.6 223.86 68.86 194.84 66.11 220.25 60.55 233.75 58.96"/><polygon class="cls-18" points="205.23 125.6 206.75 120.9 226.53 117.51 235.34 120.11 226.96 120.47 205.23 125.6"/><polygon class="cls-18" points="192.09 125.02 191.09 121.12 177.87 116.5 170.37 118.96 176.94 119.03 192.09 125.02"/><polygon class="cls-22" points="195.27 131.95 191.37 149.35 202.42 149.56 200.04 131.95 195.27 131.95"/><polygon class="cls-7" points="185.67 165.81 188.7 165.59 197.29 160.47 207.62 164.87 211.81 164.65 207.91 167.4 201.77 165.95 197.94 167.32 193.4 166.03 188.92 167.9 185.67 165.81"/><polygon class="cls-5" points="202.35 275.9 201.99 265.07 231.08 265.22 231.08 276.12 202.35 275.9"/><polygon class="cls-5" points="234.69 268.47 240.46 268.18 240.68 273.37 234.54 273.09 234.69 268.47"/><polygon class="cls-6" points="295.62 222.12 274.97 261.32 285.51 268.75 316.12 248.32 295.62 222.12"/><path class="cls-23" d="M189,132.31a4.15,4.15,0,1,1-8.3,0,4.15,4.15,0,0,1,8.3,0Z"/><path class="cls-23" d="M221,132.89a4.19,4.19,0,1,1-4.18-4.19A4.19,4.19,0,0,1,221,132.89Z"/><polygon class="cls-18" points="253.24 98.6 234.69 167.03 224.87 106.61 253.24 98.6"/></svg>