<svg id="Layer_1" data-name="Layer 1" xmlns="http://www.w3.org/2000/svg" viewBox="0 0 400 400"><defs><style>.cls-1{fill:#35291b;}.cls-2{fill:#474747;}.cls-3{fill:#6f7173;}.cls-4{fill:#8d7c2f;}.cls-5{fill:#bc8f2d;}.cls-6{fill:#ccad14;}.cls-7{fill:#efd3c2;}.cls-26,.cls-8{fill:#2b2b2b;}.cls-8{fill-opacity:0.1;}.cls-9{fill:#b58b00;}.cls-10{fill:#755800;}.cls-11{fill:#856400;}.cls-12{fill:#9e7700;}.cls-13{fill:#4f5253;}.cls-14{fill:#d0af96;}.cls-15{fill:#ececeb;}.cls-16{fill:#ac923c;}.cls-17{fill:#e5c828;}.cls-18{fill:#c4c4c4;}.cls-19{fill:#858686;}.cls-20{fill:#a9846c;}.cls-21{fill:#46382d;}.cls-22{fill:#5f5044;}.cls-23{fill:#3e3228;}.cls-24{fill:#fff;}.cls-25{fill:#b59481;}</style></defs><title>explorers_ISTP_famous_real_bear_grylls</title><polygon class="cls-1" points="205.4 17.47 188.71 15.86 175.58 29.44 175.58 44.98 212.5 38.93 205.4 17.47"/><polygon class="cls-2" points="165.57 132.34 169.34 124.44 172.71 115.27 174.31 116.09 170.52 125.33 165.57 132.34"/><polygon class="cls-2" points="167.83 128.51 170.52 125.33 174.63 119.61 176.11 120.87 170.32 127.25 167.83 128.51"/><polygon class="cls-3" points="155.49 132.34 162.26 141.61 171 136.97 174.31 128.21 169.34 124.44 163.47 127.25 155.49 132.34"/><polygon class="cls-2" points="145.93 123.06 140.43 131.73 149.31 138.6 162.26 141.61 163.47 127.25 145.93 123.06"/><polygon class="cls-4" points="141.31 115.27 127.09 130.23 142 138.91 151.95 138.91 158.57 127.25 150.94 117.14 141.31 115.27"/><polygon class="cls-5" points="161.06 127.25 160.79 122.07 154.07 110.96 134.85 110.96 127.09 119.95 131 129.43 140.43 120.19 151.95 121.42 154.66 133.02 161.06 127.25"/><polygon class="cls-6" points="167.83 122.24 154.07 142.12 149.31 138.6 162.26 119.95 167.83 122.24"/><polyline class="cls-7" points="155.34 148.25 146.6 146.73 127.93 138.91 123.12 121.29 127.09 119.95 135.55 133.02 162.26 141.61 155.03 149.13"/><polygon class="cls-8" points="61.55 376.11 186.6 400 338.45 374.57 208.93 370.72 61.55 376.11"/><polygon class="cls-9" points="182.59 356.73 190.02 346.32 188.74 331.46 194.79 346.76 204.88 377.57 183.52 364.75 182.59 356.73"/><path class="cls-10" d="M202.09,377.57h6.51l13.93,8.81L198.38,388s-14.86-20-13.93-20C185.38,367.15,202.09,377.57,202.09,377.57Z"/><polygon class="cls-11" points="180.73 352.73 192.81 361.54 208.6 377.57 198.38 387.98 177.95 355.13 180.73 352.73"/><polygon class="cls-12" points="179.8 392.79 198.38 387.98 190.02 346.32 164.94 341.51 156.59 366.35 172.37 391.99 179.8 392.79"/><polygon class="cls-10" points="171.45 383.17 180.73 384.78 194.66 400 162.16 394.39 171.45 383.17"/><polygon class="cls-11" points="158.44 371.95 168.66 365.55 180.73 384.78 162.16 394.39 158.44 371.95"/><polygon class="cls-9" points="130.58 375.96 136.15 391.99 162.16 394.39 168.66 365.55 168.66 346.32 137.84 346.76 136.15 346.89 130.58 375.96"/><polygon class="cls-10" points="115.72 374.36 112 377.57 97.14 387.98 126.86 387.98 115.72 374.36"/><polygon class="cls-11" points="125.01 359.94 118.51 360.74 112 377.57 126.86 387.98 125.01 359.94"/><polygon class="cls-12" points="121.86 347.71 137.84 346.76 136.15 391.99 126.86 387.98 118.51 360.74 121.86 347.71"/><polygon class="cls-2" points="156.93 336.26 137.84 341.03 137.84 346.76 194.79 346.76 194.79 341.03 191.29 336.26 156.93 336.26"/><polygon class="cls-13" points="172.2 319.08 166.47 325.76 137.84 341.03 183.65 341.03 194.79 341.03 194.79 326.77 172.2 319.08"/><polygon class="cls-12" points="192.24 309.54 197.97 303.81 233.28 296.18 226.6 277.09 179.84 298.08 192.24 309.54"/><polygon class="cls-11" points="188.42 298.08 190.33 285.68 175.06 288.54 165.52 308.58 166.47 325.76 194.79 326.77 197.97 303.81 188.42 298.08"/><polygon class="cls-2" points="176.02 307.63 165.52 308.58 163.61 283.77 177.93 285.68 176.97 290.45 176.02 307.63"/><polygon class="cls-12" points="204.65 259.91 203.69 259.91 193.2 260.86 180.79 270.41 176.97 290.45 188.42 298.08 230.42 284.72 250.46 258.95 204.65 259.91"/><polygon class="cls-2" points="263.82 370.62 271.65 381.12 284.37 384.99 283.56 392.68 245.47 392.1 245.06 385.25 255.23 380.16 263.82 370.62"/><polygon class="cls-13" points="270.5 356.3 281 362.99 284.37 384.99 245.06 385.25 253.71 361.43 270.5 356.3"/><polygon class="cls-11" points="253.32 313.35 241.87 325.76 253.71 361.43 281 362.99 281 340.08 262.87 311.44 253.32 313.35"/><polygon class="cls-12" points="274.32 268.5 281 280.43 281 302.86 260 323.86 241.87 325.76 233.28 296.18 234.24 263.73 274.32 268.5"/><polygon class="cls-11" points="209.42 259.91 193.2 260.86 233.28 296.18 281 280.43 281 267.55 209.42 259.91"/><path class="cls-10" d="M204.65,259.91h-1l-10.49.95,22.25,19.61,18.79-14.83,5.72,7.63,7.64-9.54-33.41-3.82Z"/><polygon class="cls-10" points="274.32 268.5 281 267.55 249.12 286.67 233.28 265.64 233.28 265.64 234.24 263.73 274.32 268.5"/><polygon class="cls-2" points="268.59 320.99 260 323.86 260.96 341.03 281 340.08 280.67 322.48 268.59 320.99"/><polygon class="cls-14" points="302.95 287.59 293.4 279.95 281.95 284.72 282.28 289.7 296.27 289.5 302.95 287.59"/><polygon class="cls-14" points="306.77 293.32 314.4 302.86 300.56 318.22 287.72 312.78 291.5 298.08 306.77 293.32"/><polygon class="cls-7" points="309.63 279 311.54 281.86 314.4 302.86 291.5 298.08 293.4 279.95 309.63 279"/><polygon class="cls-14" points="295.31 278.05 293.4 279.95 300.09 284.72 307.72 284.72 311.54 281.86 295.31 278.05"/><polygon class="cls-2" points="305.81 277.09 305.81 278.05 308.67 282.82 311.54 281.86 311.54 275.18 306.77 274.22 305.81 277.09"/><polygon class="cls-15" points="298.18 278.05 301.04 281.86 308.67 282.82 308.67 273.27 299.13 273.27 298.18 278.05"/><polygon class="cls-2" points="294.36 272.32 293.4 274.22 293.4 279.95 301.04 281.86 301.04 272.32 294.36 272.32"/><polygon class="cls-16" points="311.54 258 318.22 269.45 311.54 275.18 293.4 274.22 289.59 266.59 311.54 258"/><polygon class="cls-13" points="283.86 215.06 302.95 241.78 270.5 259.91 268.59 224.6 283.86 215.06"/><polygon class="cls-2" points="294.36 259.91 289.59 266.59 281 267.55 274.32 257.05 281 250.37 291.5 239.87 294.36 259.91"/><polygon class="cls-16" points="235.19 257.05 234.24 263.73 252.37 279.95 281 267.55 281 250.37 235.19 257.05"/><path class="cls-17" d="M206.56,250.37l-1,.95-12.4,9.54S218,276.13,219,276.13s15.27-11.45,15.27-11.45L216.1,249.41l-9.54,1.91Z"/><polygon class="cls-13" points="213.24 238.92 207.51 242.73 205.6 251.32 209.42 253.23 215.15 242.73 213.24 238.92"/><polygon class="cls-5" points="212.28 242.73 209.42 253.23 212.28 254.19 221.83 244.64 212.28 242.73"/><polygon class="cls-13" points="218.01 255.14 212.28 254.19 217.06 241.78 226.6 249.41 218.01 255.14"/><polygon class="cls-3" points="230.42 257.05 223.74 259.91 214.19 265.64 212.28 254.19 226.6 249.41 230.42 257.05"/><polygon class="cls-15" points="234.24 263.73 223.74 259.91 226.6 246.55 239.96 243.69 233.28 252.28 237.1 257.05 234.24 263.73"/><polygon class="cls-18" points="249.5 255.14 246.64 259.91 234.24 263.73 233.28 252.28 239.96 243.69 245.69 242.73 249.5 255.14"/><polygon class="cls-3" points="240.91 245.59 246.64 259.91 259.05 257.05 259.05 239.87 240.91 245.59"/><path class="cls-5" d="M253.32,242.73l5.73,14.32,5.72-1.91s-.95-21-.95-20-9.55,7.63-9.55,7.63Z"/><polygon class="cls-3" points="259.05 235.1 281 237.01 281 250.37 264.77 255.14 259.05 239.87 259.05 235.1"/><path class="cls-17" d="M213.24,213.15l-10.5,6.68,4.77,22.9,25.77,9.55s-1.91-39.13-.95-38.18S213.24,213.15,213.24,213.15Z"/><polygon class="cls-16" points="236.15 211.24 228.51 221.74 233.28 252.28 281 237.01 281 229.37 276.23 209.33 236.15 211.24"/><polygon class="cls-17" points="223.74 212.19 228.51 221.74 275.27 216.96 279.74 167 230.42 185.04 223.74 212.19"/><polygon class="cls-17" points="297.22 231.28 291.5 239.87 289.59 266.59 318.22 269.45 316.31 234.14 297.22 231.28"/><polygon class="cls-13" points="309.63 187.38 318.22 187.38 311.54 230.32 291.5 194.06 309.63 187.38"/><polygon class="cls-6" points="297.22 195.97 302.95 196.92 306.77 206.46 307.72 214.1 316.31 234.14 291.5 239.87 282.91 221.74 275.27 207.42 297.22 195.97"/><path class="cls-17" d="M306.77,206.46l9.54,27.68-2.86-2.86-5.73-1.91-1-5.72,1-4.78-3.81-6.68,2.86-5.73Zm-2.86,22.91,1.9,1.91,1.91-1-1.91-1.9-1.9,1Z"/><polygon class="cls-3" points="304.86 176.88 310.58 177.83 318.22 187.38 302.95 196.92 294.36 178.79 304.86 176.88"/><polygon class="cls-3" points="295.31 182.61 310.58 177.83 309.63 165.43 281.95 175.93 295.31 182.61"/><polygon class="cls-16" points="286.73 181.65 295.31 176.88 302.95 196.92 279.09 211.24 286.73 181.65"/><polygon class="cls-13" points="277.18 190.24 263.82 206.46 281 229.37 282.91 221.74 279.09 212.19 277.18 191.19 277.18 190.24"/><polygon class="cls-4" points="273.37 199.79 263.82 206.46 243.78 206.46 244.73 199.79 268.59 198.83 273.37 199.79"/><polygon class="cls-3" points="287.68 160.66 279.09 167.34 263.82 206.46 279.09 212.19 295.31 176.88 287.68 160.66"/><polygon class="cls-19" points="278.14 149.13 271.46 163.52 279.09 167.34 295.31 176.88 309.63 165.43 278.14 149.13"/><polygon class="cls-16" points="219.44 171.16 230.42 185.04 228.51 221.74 202.74 219.83 210.38 175.93 219.44 171.16"/><polygon class="cls-4" points="201.78 204.56 206.56 199.79 218.01 198.83 218.01 206.46 203.69 207.42 201.78 204.56"/><polygon class="cls-13" points="204.65 193.1 198.92 204.56 202.74 219.83 205.6 207.42 204.65 193.1"/><polygon class="cls-3" points="204.65 163.52 203.69 168.29 190.33 182.61 198.92 204.56 205.6 207.42 217.06 175.93 204.65 163.52"/><polygon class="cls-6" points="202.74 150.87 197.97 163.52 230.42 185.04 219.92 148.25 202.74 150.87"/><polygon class="cls-20" points="238.05 174.97 230.42 185.04 215.63 150.8 266.68 148.25 264.77 168.29 238.05 174.97"/><polygon class="cls-14" points="284.82 110.07 286.26 117.08 276.16 154.7 250.46 169.72 260 150.87 237.1 150.36 241.87 19.41 279.09 22.27 287.68 61.4 284.82 110.07"/><polygon class="cls-20" points="281.95 101.49 274.06 103.33 286.26 117.08 289.09 106.51 281.95 101.49"/><polygon class="cls-1" points="277.18 27.04 273.24 42.01 266.68 62.88 268.84 71.25 268.85 85.26 283.73 89.17 295.63 82.13 300.22 65.06 277.18 27.04"/><polygon class="cls-21" points="257.14 21.39 262.39 31.89 271.46 40.48 300.22 65.06 280.04 12.8 257.14 21.39"/><polygon class="cls-22" points="197.01 54.79 186.05 29.44 233.65 0 280.04 12.8 262.39 31.89 197.01 54.79"/><polygon class="cls-7" points="175.58 44.98 177.38 123.91 205.6 139.95 237.1 150.36 257.62 121.98 262.39 31.89 212.5 38.93 186.05 29.44 175.58 44.98"/><polygon class="cls-6" points="239 165.43 278.14 149.13 279.09 167.34 230.42 185.04 239 165.43"/><polygon class="cls-13" points="258.09 305.72 281 302.86 280.67 322.48 260 323.86 258.09 305.72"/><polygon class="cls-13" points="163.61 283.77 180.79 270.41 189.38 281.86 176.97 290.45 163.61 283.77"/><path class="cls-9" d="M269.55,369.66h1.91l1.91,1.91h1.9l1.91,1L280,377.3l-1,1.91h-2.86l-4.77,1.9-4.78-1.9L261,377.3v-1.91l3.81-.95Zm-5.73,1.91-1.91-1.91H260l-1,1.91,1.91,1.91Z"/><path class="cls-2" d="M304.86,278.05,303,276.13H302v1l2.86,1Zm0,0,.95-1h1v1Z"/><polygon class="cls-16" points="203.69 168.29 159.79 165.43 154.07 182.61 178.88 200.68 198.92 204.56 203.69 168.29"/><polygon class="cls-17" points="169.34 146.73 178.88 200.68 148.77 194.78 143.24 157.31 151.72 146.73 169.34 146.73"/><polygon class="cls-4" points="162.26 141.61 169.34 146.73 143.24 157.31 146.6 146.73 162.26 141.61"/><polygon class="cls-14" points="230.1 69.3 243.19 72.39 226.93 85.13 219.64 105.56 209.25 101.63 202.1 106.13 193.37 83.11 183.89 71.8 198.05 69.3 205.4 74.51 207.85 79.9 210.28 83.55 212.48 79.9 216.28 74.51 230.1 69.3"/><polygon class="cls-23" points="216.28 69.26 235.25 67.39 242.1 68.59 243.19 72.39 234.8 70.95 216.28 74.51 216.28 69.26"/><polygon class="cls-23" points="205.4 69.47 190.87 68 184.73 68.59 183.89 71.8 191.1 71.63 205.4 74.51 205.4 69.47"/><polygon class="cls-14" points="213.92 108.22 186.05 115.54 177.08 110.94 177.38 123.91 202.74 150.87 233.05 150.42 257.62 121.98 258.29 109.28 235.7 117.08 213.92 108.22"/><polygon class="cls-20" points="192.33 121.08 231.9 120.69 211.91 130.35 192.33 121.08"/><polygon class="cls-24" points="198.95 122.43 225.91 122.08 211.57 127.95 198.95 122.43"/><polygon class="cls-20" points="211.64 100.8 202.1 106.13 211.64 111.88 219.64 105.56 211.64 100.8"/><polygon class="cls-7" points="207.85 79.9 208 95.58 202.1 106.13 209.52 107.51 219.64 105.56 212.5 95.75 212.48 79.9 207.85 79.9"/><polygon class="cls-25" points="258.29 109.28 257.62 121.98 233.05 150.42 260 150.87 274.06 103.33 278.68 86.32 268.85 85.26 266.68 105.07 258.29 109.28"/><polygon class="cls-7" points="277.65 78.54 274.06 103.33 289.09 106.51 295.63 82.13 277.65 78.54"/><polygon class="cls-20" points="282.89 85.58 290.54 87.86 279.85 96.36 282.89 85.58"/><path class="cls-26" d="M199.08,81.76a3.38,3.38,0,1,1-3.37-3.38A3.37,3.37,0,0,1,199.08,81.76Z"/><circle class="cls-26" cx="227.01" cy="81.76" r="3.37"/><polygon class="cls-14" points="235.25 81.76 244.12 80.9 240.36 84.36 235.25 81.76"/><polygon class="cls-14" points="181.01 81.76 189.31 82.63 184.34 85.13 181.01 81.76"/><polygon class="cls-21" points="233.65 0 203.69 21.1 207.13 29.44 186.05 29.44 188.71 15.86 233.65 0"/><polygon class="cls-1" points="203.69 21.1 186.05 29.44 212.38 39.7 262.39 31.89 203.69 21.1"/></svg>