<svg id="Layer_1" data-name="Layer 1" xmlns="http://www.w3.org/2000/svg" viewBox="0 0 400 400"><defs><style>.cls-1{fill:#c1907d;}.cls-2{fill:#f4c9b2;}.cls-3{fill:#46382d;}.cls-4{fill:#74665b;}.cls-5{fill:#5e5044;}.cls-6{fill:#fce3d4;}.cls-7{fill:#674736;}.cls-8{fill:#8c7c2f;}.cls-9{fill:#bb8e2d;}.cls-10{fill:#2b2b2b;}.cls-10,.cls-24{fill-opacity:0.15;}.cls-11{fill:#e4c728;}.cls-12{fill:#cbac14;}.cls-13{fill:#cdcdcc;}.cls-14{fill:#ebebea;}.cls-15{fill:#9ca0a1;}.cls-16{fill:#4f5253;}.cls-17{fill:#6f7173;}.cls-18{fill:#e1a842;}.cls-19{fill:#825940;}.cls-20{fill:#f3d65d;}.cls-21{fill:#9d7700;}.cls-22{fill:#f1bc68;}.cls-23{fill:#ffefe7;}.cls-24{fill:#33231b;}</style></defs><title>explorers_ISTP_famous_fictional_michael_westen_burn_notice</title><g id="Layer_1-2" data-name="Layer_1"><polygon class="cls-1" points="182.95 141.84 190.36 137.95 210.03 137.75 232.83 130.54 227.18 151.98 216.46 163.86 203.22 181 192.69 161.91 187.82 152.75 182.95 141.84"/><polygon class="cls-2" points="203.6 141.65 224.06 141.26 212.18 159.19 234.58 150.81 233.61 144.38 250.95 108.14 250.56 86.71 242.38 57.68 235.94 52.23 231.46 56.9 225.03 116.13 202.24 137.17 203.6 141.65"/><polygon class="cls-3" points="241.6 48.72 265.75 52.42 271.21 56.32 264 75.41 260.69 78.14 251.14 76.38 246.08 86.71 241.01 85.73 235.94 52.23 241.6 48.72"/><polygon class="cls-1" points="243.15 96.65 250.95 108.14 255.43 98.59 250.56 94.89 243.15 96.65"/><polygon class="cls-4" points="212.37 29.24 213.93 35.47 228.93 51.64 235.94 52.23 241.6 48.72 252.31 28.26 253.48 20.66 240.23 17.74 215.49 23.2 212.37 29.24"/><polygon class="cls-5" points="271.21 56.32 253.48 20.66 235.94 52.23 271.21 56.32"/><polygon class="cls-5" points="218.6 0.21 212.37 4.3 208.87 20.66 212.37 29.24 253.48 20.66 218.6 0.21"/><polygon class="cls-4" points="169.51 -0.18 170.29 4.88 205.16 28.07 212.37 29.24 218.6 0.21 169.51 -0.18"/><polygon class="cls-4" points="167.56 5.66 150.03 16.57 150.03 23 153.92 31.38 158.02 32.74 166 24.56 170.09 10.53 167.56 5.66"/><polygon class="cls-5" points="169.51 -0.18 158.02 32.74 163.66 36.84 203.41 35.67 212.37 29.24 169.51 -0.18"/><polygon class="cls-5" points="143.79 55.93 140.29 49.5 150.03 16.57 158.02 32.74 158.02 40.34 150.03 54.37 143.79 55.93"/><polygon class="cls-6" points="143.79 55.93 158.02 32.74 212.37 29.24 235.94 52.23 227.96 121 203.6 141.65 178.47 142.04 157.04 124.31 143.79 55.93"/><path class="cls-2" d="M206.92,88.07l7,2.15L188.8,97l-4.29-5.46,2-2.92,20.46-.59Zm-52.61,1.76-3.5,2.33,18.7,2.93,2.92-2.93-1.56-2.72-16.56.39Zm64.3-15.78,14.8-.78-16-4.09,1.17,4.87Zm-45,.58-4.87-7.79,19.68-1.17-4.09,8Z"/><polygon class="cls-7" points="145.35 71.71 147.5 67.81 168.73 66.84 172.82 75.22 168.93 89.63 151.59 90.22 146.91 85.15 145.35 71.71"/><polygon class="cls-7" points="184.32 73.66 188.41 65.67 212.57 64.89 217.24 69.37 216.46 82.81 213.15 88.07 188.41 88.85 184.32 73.66"/><polygon class="cls-8" points="249.39 74.44 247.63 75.8 218.8 70.93 217.24 69.37 218.8 68.01 248.02 72.68 249.39 74.44"/><path class="cls-9" d="M213.15,63.14,218.8,68l-.39,15.39-4.48,6.82L187.24,91l-3.12-2.34-3.12-13-5.06.19L173.8,88.46l-3.51,3.12-19.48.58-5.65-5.84-1-16.37,2.34-3.7,66.63-3.11ZM183,72.49l2.34-5.07-14,.78,2.34,4.68,9.35-.39Zm-36-.78,1,12.86,3.71,4.09,16.56-.2L171.07,75,168,68.4l-19.87,1-1.17,2.34Zm42.47,16,22.6-1,3.12-5.07.39-12.27-4.09-3.12-22.41,1-3.11,6.62Z"/><polygon class="cls-1" points="179.84 103.86 168.73 97.81 177.3 95.48 188.8 97.03 179.84 103.86"/><polygon class="cls-6" points="173.99 75.8 182.95 75.41 188.8 97.03 168.73 97.81 173.99 75.8"/><polygon class="cls-1" points="172.43 112.04 172.63 114.18 197.18 113.21 196.98 111.06 172.43 112.04"/><polygon class="cls-6" points="248.02 72.68 243.15 96.65 255.43 98.59 264 75.41 248.02 72.68"/><polygon class="cls-1" points="252.89 78.72 250.56 88.66 257.57 79.7 252.89 78.72"/><polygon class="cls-10" points="113.4 383.82 209.45 400.18 300.63 384.01 209.84 370.37 179.25 374.86 113.4 383.82"/><polygon class="cls-11" points="137.17 217.63 123.14 260.49 124.89 264.78 136.97 268.87 142.04 267.7 157.04 245.49 155.09 234 141.46 216.46 137.17 217.63"/><polygon class="cls-12" points="158.02 182.76 153.73 167.17 137.17 217.63 157.04 245.49 162.3 230.88 158.02 182.76"/><polygon class="cls-13" points="174.97 176.52 179.06 169.31 186.66 159.77 194.45 158.41 201.66 175.35 205.75 179.64 205.94 248.02 203.02 250.56 173.8 250.17 172.24 246.27 174.97 176.52"/><polygon class="cls-14" points="212.18 159.19 201.66 175.35 202.05 203.41 203.6 206.33 202.24 209.45 203.02 250.56 229.91 250.56 230.88 243.15 230.68 175.16 227.37 166.98 218.6 160.35 212.18 159.19"/><polygon class="cls-15" points="197.76 207.89 202.24 212.18 206.72 207.89 202.05 203.41 197.76 207.89"/><polygon class="cls-12" points="262.25 171.46 271.4 163.08 299.07 218.61 294 221.92 264.19 220.94 256.4 214.9 262.25 171.46"/><polygon class="cls-16" points="241.79 379.53 241.98 387.52 280.17 387.52 280.17 379.53 273.94 376.22 245.88 376.41 241.79 379.53"/><polygon class="cls-17" points="246.47 357.32 241.79 379.53 280.17 379.53 272.57 357.32 268.68 353.81 251.14 353.42 246.47 357.32"/><polygon class="cls-9" points="205.94 292.83 206.92 285.82 226.4 270.04 261.66 352.64 260.3 357.32 246.47 357.32 205.94 292.83"/><polygon class="cls-18" points="235.75 264.19 226.4 270.04 224.45 278.22 260.3 357.32 272.57 357.32 263.02 282.7 256.6 277.64 235.75 278.42 235.75 264.19"/><polygon class="cls-16" points="125.67 375.63 125.67 382.26 179.25 382.26 179.25 374.86 173.8 371.54 133.86 373.1 125.67 375.63"/><polygon class="cls-17" points="150.03 354.79 125.67 375.63 179.25 374.86 178.86 354.4 174.58 349.33 156.65 349.33 150.03 354.79"/><polygon class="cls-9" points="163.28 354.4 159.96 349.72 183.15 271.99 204.19 285.82 205.94 292.83 178.86 354.4 163.28 354.4"/><polygon class="cls-18" points="154.31 281.92 150.42 354.4 163.28 354.4 184.71 279.2 183.15 271.99 173.21 265.17 169.12 275.88 154.31 281.92"/><polygon class="cls-9" points="169.51 254.45 173.8 250.17 229.91 250.56 235.75 255.43 237.89 266.53 235.56 269.45 205.94 292.83 172.82 273.74 169.12 266.73 169.51 254.45"/><polygon class="cls-7" points="170.48 254.06 173.21 261.47 194.25 261.66 196.4 254.84 193.86 248.02 173.99 248.02 170.48 254.06"/><polygon class="cls-7" points="211.01 248.02 205.36 255.04 211.2 261.86 232.63 262.25 232.63 254.45 229.32 248.02 211.01 248.02"/><polygon class="cls-12" points="193.86 248.02 211.01 248.02 211.01 252.12 208.67 254.84 211.01 257.96 211.2 261.86 194.25 261.66 193.86 248.02"/><polygon class="cls-19" points="199.32 252.31 211.01 252.12 211.01 257.96 199.51 257.77 199.32 252.31"/><polygon class="cls-11" points="154.31 281.92 165.42 283.09 172.82 273.74 173.99 248.02 164.83 254.65 156.26 257.57 154.31 281.92"/><polygon class="cls-11" points="153.73 167.17 157.04 245.49 158.79 247.63 169.51 249.39 173.99 248.02 168.34 177.5 182.56 155.87 153.73 167.17"/><polygon class="cls-12" points="156.26 257.57 165.03 259.13 173.99 248.02 157.04 245.49 156.26 257.57"/><polygon class="cls-11" points="240.62 284.07 229.71 274.13 229.32 248.02 243.54 255.04 254.45 251.34 260.1 253.67 263.02 282.7 240.62 284.07"/><polygon class="cls-12" points="243.54 259.13 229.32 248.02 235.36 242.37 252.89 236.34 258.93 239.45 260.1 253.67 243.54 259.13"/><polygon class="cls-11" points="247.44 192.11 229.32 248.02 258.93 239.45 271.4 163.08 238.09 151.98 247.44 192.11"/><path class="cls-20" d="M299.07,218.61c.78.19-45.2-3.9-45.2-3.9l-7.21,4.68-3.7,11.1L245.3,234,288,251.14Z"/><polygon class="cls-12" points="175.75 169.31 179.06 169.31 173.99 248.02 158.02 182.76 166.59 174.97 175.75 169.31"/><polygon class="cls-20" points="187.04 151 185.29 158.79 178.86 172.43 158.02 182.76 187.04 151"/><polygon class="cls-12" points="227.57 172.63 234.78 169.12 246.66 174.38 256.79 182.76 229.32 248.02 228.74 230.88 225.62 218.22 228.35 203.02 227.57 172.63"/><polygon class="cls-20" points="233.61 144.38 226.2 156.85 227.57 172.63 256.79 182.76 233.61 144.38"/><polygon class="cls-14" points="194.45 158.41 187.04 151 178.86 172.43 194.45 158.41"/><polygon class="cls-13" points="212.18 159.19 227.57 172.63 233.61 144.38 212.18 159.19"/><polygon class="cls-18" points="220.94 192.11 219.97 199.51 221.53 202.44 224.26 201.46 225.62 192.89 220.94 192.11"/><polygon class="cls-18" points="202.24 212.18 205.75 209.25 223.87 207.5 227.96 209.45 224.65 231.07 208.09 231.66 202.24 212.18"/><polygon class="cls-9" points="209.64 204.97 202.05 203.41 215.88 197.96 217.05 201.85 214.51 204.38 209.64 204.97"/><polygon class="cls-21" points="228.35 203.22 214.51 204.38 215.88 197.96 228.35 203.22"/><polygon class="cls-22" points="202.05 203.41 202.24 212.18 223.67 211.79 228.35 209.45 228.35 203.22 202.05 203.41"/><polygon class="cls-2" points="223.67 211.79 228.35 203.02 243.74 213.93 241.98 221.53 238.28 228.74 236.53 230.49 224.65 231.07 221.14 222.5 223.67 211.79"/><polygon class="cls-23" points="209.84 225.03 208.67 211.98 228.35 203.22 224.65 231.07 209.84 225.03"/><polygon class="cls-13" points="253.87 214.71 245.3 234 236.53 230.49 243.74 213.93 253.87 214.71"/><polygon class="cls-15" points="197.18 179.64 201.85 183.93 206.14 179.84 201.66 175.35 197.18 179.64"/><path class="cls-24" d="M194.45,158.41l11.1,10.71-3.89,6.23-7.21-16.94ZM172.82,273.74l33.12,19.09,18.51-14.61,5.26-4.09-.19-11.88-56.31-.78ZM229.32,248l-21.24-16.36,20.66-.78.58,17.14Zm-50.46-75.59L174,248h7.21Z"/><polygon class="cls-15" points="198.34 239.06 203.02 243.35 207.31 239.06 202.82 234.58 198.34 239.06"/><polygon class="cls-18" points="110.87 314.85 107.56 324.2 107.56 328.68 99.57 328.88 99.37 283.09 108.33 277.64 114.57 282.31 110.87 314.85"/><polygon class="cls-2" points="111.26 305.11 120.8 305.11 119.64 296.34 111.06 294.78 111.26 305.11"/><path class="cls-9" d="M129.57,292.44l6.24-1.55.58-14.81-8.57-2.14-16.17,10.13-3.7,8.57-.39,31.56,4.28-.39.39-9.74,8.38-1.75,1.36-7.8,7.6-12.08Zm-17.34,17.34.2-11.69,5.84,1.37-.39,9.54Z"/><path class="cls-18" d="M130.55,290.69,129,285.82l-.2-2.73-14.61,3.12-1.17,6,.2,1.95,4.67-.39s8.18.78,9,1.36C127.62,295.56,130.55,290.69,130.55,290.69Z"/><polygon class="cls-6" points="129.96 268.29 120.8 267.7 108.33 277.64 114.18 286.21 118.27 282.31 136.39 276.08 129.96 268.29"/><polygon class="cls-2" points="108.33 277.64 107.95 292.64 113.21 294.2 118.27 282.31 108.33 277.64"/><polygon class="cls-2" points="121.97 304.52 135.81 290.89 128.99 285.82 117.88 293.81 121.97 304.52"/><polygon class="cls-13" points="120.8 267.7 136.39 276.08 142.04 267.7 123.14 260.49 120.8 267.7"/></g></svg>