<svg id="Layer_1" data-name="Layer 1" xmlns="http://www.w3.org/2000/svg" viewBox="0 0 400 400"><defs><style>.cls-1,.cls-10,.cls-9{fill:#2b2b2b;}.cls-1{fill-opacity:0.1;}.cls-2{fill:#a8836c;}.cls-3{fill:#b48a00;}.cls-4{fill:#846400;}.cls-5{fill:#9d7700;}.cls-6{fill:#eed2c1;}.cls-7{fill:#cfae95;}.cls-8{fill:#a09160;}.cls-9{opacity:0.2;}.cls-11{fill:#c1b274;}.cls-12{fill:#e2d086;}.cls-13{fill:#f6e5db;}.cls-14{fill:#4f5253;}.cls-15{fill:#474747;}.cls-16{fill:#9ca0a1;}.cls-17{fill:#ebebea;}.cls-18{fill:none;}</style></defs><title>explorers_ISTP_famous_real_daniel_craig</title><g id="Layer_1-2" data-name="Layer_1"><g id="_867866896" data-name=" 867866896"><polygon class="cls-1" points="200.86 398.86 97.58 383.68 221.17 367 302.43 379.62 200.86 398.86"/><polygon class="cls-2" points="168.78 337.06 203.85 356.95 217.53 353.1 209.19 338.77 195.3 321.67 189.52 318.46 168.78 337.06"/><polygon class="cls-3" points="167.93 295.79 158.52 276.76 166.21 258.37 211.33 237.42 221.6 257.95 221.6 265.43 221.81 282.32 214.54 300.71 189.74 312.48 167.93 295.79"/><polygon class="cls-4" points="202.78 252.17 202.35 265.86 196.36 298.79 201.07 303.49 208.34 300.07 216.89 281.68 215.4 265.64 215.4 257.95 212.4 248.75 202.78 252.17"/><path class="cls-4" d="M200,253.88l.21,12.19-6,32.72-2.14,2.56-1.71-3,6-32.72-.21-11.54h4.06Zm19.88,8.56,1.93,3L224,282.75l-9,18.18-3.85,1.71-.64-2.14,9.19-18.39-1.92-16.68,2.35-3Z"/><polygon class="cls-5" points="166.64 266.93 163.22 262.22 166.21 258.37 191.66 247.68 217.11 248.97 221.6 257.95 221.6 265.43 166.64 266.93"/><polygon class="cls-4" points="215.4 265.64 208.98 270.14 202.35 265.86 202.78 252.17 212.4 248.75 215.4 257.95 215.4 265.64"/><path class="cls-4" d="M216.89,249h.22l4.49,9v7.48l-.86,3.85-3.21-3.64v-7.91Zm-16.68,17.1-.85.86-3.21-.86-.21-12.19H200Z"/><polygon class="cls-6" points="168.35 319.53 159.8 300.29 159.8 300.29 167.93 295.79 214.54 300.71 195.3 321.67 186.53 330.44 168.35 319.53"/><polygon class="cls-7" points="169.21 368.28 168.57 330.65 164.93 324.02 168.57 319.31 195.3 321.67 198.72 343.91 187.6 369.57 184.18 375.98 169.21 368.28"/><polygon class="cls-5" points="150.18 292.38 153.6 263.72 153.38 257.52 166.21 258.37 167.93 295.79 159.59 303.71 150.18 292.38"/><polygon class="cls-4" points="153.6 263.72 153.38 257.52 166.21 258.37 166.64 266.93 153.6 263.72"/><polygon class="cls-2" points="168.78 337.06 153.17 329.15 158.73 313.33 168.35 318.89 168.78 337.06"/><polygon class="cls-6" points="132.43 159.37 148.47 153.17 145.26 172.63 148.9 189.52 144.19 220.1 129.01 220.31 119.6 202.35 119.17 179.69 132.43 159.37"/><polygon class="cls-7" points="139.06 168.78 145.26 172.63 148.9 189.52 147.83 196.58 144.19 224.38 126.87 257.09 134.36 220.31 128.37 188.45 139.06 168.78"/><polygon class="cls-6" points="119.6 202.35 134.36 220.31 126.87 257.09 117.89 268.86 106.98 259.44 112.33 215.4 119.6 202.35"/><polygon class="cls-6" points="132.64 201.5 139.06 168.78 148.47 153.17 152.1 151.68 165.57 146.33 219.03 144.62 242.12 152.53 254.31 173.27 251.53 200.64 228.87 234.64 221.6 257.95 166.21 258.37 153.38 257.52 146.33 228.44 132.64 201.5"/><polygon class="cls-7" points="254.31 173.27 251.96 197.22 243.19 213.47 228.23 237.21 224.38 175.62 254.31 173.27"/><polygon class="cls-6" points="148.47 389.24 146.97 383.68 169.21 368.28 187.6 369.57 187.38 389.02 148.47 389.24"/><polygon class="cls-7" points="150.18 292.38 153.17 329.15 168.35 318.89 167.93 295.79 150.18 292.38"/><polygon class="cls-7" points="173.7 132.22 202.78 39.63 227.58 80.26 229.51 116.61 219.03 144.62 166.21 176.48 181.18 148.9 173.7 132.22"/><polygon class="cls-6" points="126.02 24.45 118.75 98.86 130.72 127.72 173.7 132.22 192.52 106.77 202.78 39.63 194.01 25.95 152.74 17.18 126.02 24.45"/><polygon class="cls-2" points="197 77.91 198.72 66.14 225.23 75.55 222.88 80.47 197 77.91"/><polygon class="cls-2" points="153.17 130.08 166.21 176.48 197.65 126.87 173.7 132.22 153.17 130.08"/><polygon class="cls-6" points="205.56 381.11 218.82 371.27 219.67 381.54 205.56 381.11"/><polygon class="cls-6" points="242.12 152.53 224.38 175.62 243.19 213.47 257.31 221.38 277.83 223.95 282.54 203 281.68 186.96 262.22 161.72 242.12 152.53"/><polygon class="cls-2" points="152.32 91.8 145.69 85.6 159.59 87.1 152.32 91.8"/><polygon class="cls-8" points="202.78 39.63 214.75 85.6 220.96 87.1 243.62 78.97 228.65 57.16 202.78 39.63"/><polygon class="cls-9" points="210.91 70.42 213.26 79.61 222.88 80.47 225.23 75.55 210.91 70.42"/><polygon class="cls-10" points="200.22 56.95 243.62 78.97 224.38 75.34 198.72 66.14 195.51 61.22 200.22 56.95"/><polygon class="cls-6" points="224.38 75.34 220.96 87.1 217.11 99.93 234.21 104.42 243.62 78.97 224.38 75.34"/><polygon class="cls-7" points="203.42 356.31 209.19 338.77 230.57 344.97 219.67 381.54 203.42 356.31"/><polygon class="cls-2" points="223.09 95.01 227.58 80.26 237.63 83.68 223.09 95.01"/><polygon class="cls-2" points="229.51 116.61 217.11 99.93 234.21 104.42 229.51 116.61"/><polygon class="cls-8" points="115.11 27.23 126.02 24.45 139.49 20.82 176.05 22.1 148.04 10.77 133.93 9.91 115.11 27.23"/><polygon class="cls-11" points="171.35 0.93 133.93 9.91 142.69 13.33 152.74 17.18 157.24 23.81 176.05 22.1 194.01 25.95 212.4 26.59 233.57 17.18 171.35 0.93"/><polygon class="cls-12" points="202.78 39.63 194.01 25.95 211.55 22.1 233.57 17.18 248.97 35.35 202.78 39.63"/><polygon class="cls-11" points="243.62 78.97 223.52 59.52 202.78 39.63 227.8 37.28 248.97 35.35 243.62 78.97"/><polygon class="cls-7" points="121.1 76.19 141.41 81.97 145.69 85.6 148.04 79.4 148.04 72.99 121.1 76.19"/><polygon class="cls-7" points="159.59 87.1 195.72 86.24 197 77.91 161.3 73.84 157.02 79.4 159.59 87.1"/><polygon class="cls-13" points="145.69 85.6 148.04 72.99 145.69 65.5 150.39 60.8 157.88 58.87 162.79 62.72 166.21 69.35 161.3 74.27 159.59 87.1 145.69 85.6"/><polygon class="cls-10" points="150.39 60.8 162.79 62.72 166.21 59.94 163.65 56.73 151.46 55.03 148.04 57.59 150.39 60.8"/><polygon class="cls-14" points="117.89 47.54 152.32 51.39 148.04 72.99 141.19 77.91 119.39 76.19 115.11 69.99 117.89 47.54"/><polygon class="cls-14" points="164.29 51.82 161.3 74.27 164.29 80.26 189.52 84.32 197 77.91 198.72 66.14 199.57 61.44 200.22 56.95 164.29 51.82"/><polygon class="cls-7" points="167.07 188.45 163.86 215.18 144.19 224.38 166 223.09 200.22 226.73 170.06 215.61 167.07 188.45"/><polygon class="cls-6" points="269.06 287.88 266.71 278.05 269.28 268 281.04 258.37 292.59 265.43 297.08 287.67 282.32 295.58 269.06 287.88"/><polygon class="cls-6" points="257.31 221.38 282.54 203 294.3 222.88 292.59 265.43 269.28 268 255.59 231.22 257.31 221.38"/><polygon class="cls-15" points="293.02 255.59 292.59 262.65 268.21 265.64 266.29 260.3 293.02 255.59"/><polygon class="cls-7" points="267.36 303.28 269.06 287.88 297.08 287.67 284.25 303.28 267.36 303.28"/><polygon class="cls-2" points="261.15 279.97 263.94 292.16 268.85 292.16 269.06 287.88 269.28 268 261.15 279.97"/><polygon class="cls-16" points="278.69 253.67 273.77 256.88 272.49 261.8 275.48 265.86 280.83 266.71 286.38 264.36 287.02 258.59 283.39 254.1 278.69 253.67"/><polygon class="cls-17" points="279.12 255.81 275.48 258.16 274.63 261.37 276.55 264.15 280.61 264.79 284.46 262.86 284.89 259.23 282.32 256.02 279.12 255.81"/><polygon class="cls-7" points="243.19 213.47 261.15 211.55 257.31 221.38 243.19 213.47"/><polygon class="cls-2" points="165.36 250.04 163.22 253.46 166.21 256.24 168.78 252.81 165.36 250.04"/><polygon class="cls-2" points="194.23 216.89 200.22 214.33 203.64 217.53 199.36 220.31 194.23 216.89"/><polygon class="cls-2" points="141.84 217.32 145.05 215.18 150.82 216.89 145.69 220.31 141.84 217.32"/><polygon class="cls-12" points="133.07 36.42 176.05 22.1 152.74 17.18 139.49 20.82 133.07 36.42"/><polygon class="cls-3" points="166.43 263.08 162.79 269.28 161.3 278.26 158.94 277.83 160.44 268.86 160.65 268.64 160.65 268.42 166.43 260.51 167.29 262.44 166.43 263.08"/><polygon class="cls-4" points="170.06 278.26 169.21 267.78 166.43 263.08 166.43 260.51 171.35 266.5 171.56 266.93 171.56 267.14 172.42 278.05 170.06 278.26"/><polygon class="cls-7" points="160.87 389.24 145.69 377.05 146.12 389.45 160.87 389.24"/><polygon class="cls-7" points="159.8 47.75 156.16 55.67 158.52 55.88 159.8 47.75"/><polygon class="cls-7" points="146.54 36.42 159.59 39.2 201.07 36.42 160.44 36.85 146.54 36.42"/><polygon class="cls-2" points="141.19 101.64 154.03 103.56 171.78 102.07 171.78 104.42 154.03 105.92 141.19 104.42 141.19 101.64"/><polygon class="cls-7" points="164.5 88.17 174.34 94.8 179.26 106.13 176.48 92.23 164.5 88.17"/><polygon class="cls-2" points="103.56 280.19 116.18 258.37 126.87 257.09 129.01 275.48 117.25 284.46 103.56 280.19"/><polygon class="cls-7" points="109.98 300.93 103.56 280.19 129.01 275.48 127.08 291.52 109.98 300.93"/><polygon class="cls-6" points="116.18 258.37 116.82 269.71 111.48 273.13 108.27 282.54 103.56 280.19 106.98 259.44 116.18 258.37"/></g><rect class="cls-18" x="0.5" y="0.5" width="399" height="399"/></g></svg>