<svg id="Layer_1" data-name="Layer 1" xmlns="http://www.w3.org/2000/svg" viewBox="0 0 400 400"><defs><style>.cls-1{fill:#33231b;opacity:0.1;}.cls-1,.cls-10,.cls-11,.cls-12,.cls-13,.cls-14,.cls-15,.cls-16,.cls-17,.cls-2,.cls-3,.cls-4,.cls-5,.cls-6,.cls-7,.cls-8,.cls-9{fill-rule:evenodd;}.cls-2{fill:#f4c9b2;}.cls-3{fill:#cbac14;}.cls-4{fill:#fce3d4;}.cls-5{fill:#c1907d;}.cls-6{fill:#bb8e2d;}.cls-7{fill:#e4c728;}.cls-8{fill:#5e4f45;}.cls-9{fill:#9d7700;}.cls-10{fill:#b48a00;}.cls-11{fill:#73665c;}.cls-12{fill:#8f7d73;}.cls-13{fill:#ffefe7;}.cls-14{fill:#846400;}.cls-15{fill:#2b2b2b;}.cls-16{fill:#f3d65d;}.cls-17{fill:#fff;}</style></defs><title>explorers_ISTP_famous_real_milla_jovovich</title><polygon class="cls-1" points="292.89 375.42 241.27 396.38 122.71 379.48 202.48 368.54 292.89 375.42"/><polygon class="cls-2" points="244.34 382.98 233.46 357.14 218.03 359.64 219.72 388.5 237.13 391.46 244.34 382.98"/><polygon class="cls-3" points="244.34 382.98 238.9 370.06 239.67 383.83 225.24 386.37 218.88 373.22 219.72 388.5 232.89 400.38 241.37 399.11 244.34 382.98"/><polygon class="cls-4" points="210.4 322.57 219.69 316.61 235.53 315.8 233.46 357.14 218.03 359.64 210.4 322.57"/><polygon class="cls-2" points="160.49 293.74 166.31 315.21 190.75 319.21 191.67 295.79 174.45 285.14 160.49 293.74"/><polygon class="cls-5" points="160.49 293.74 191.24 306.76 191.67 295.79 174.45 285.14 160.49 293.74"/><polygon class="cls-2" points="235.53 315.8 210.4 322.57 207.7 309.33 224.57 292.74 236.43 298.03 235.53 315.8"/><polygon class="cls-5" points="207.7 309.33 206.29 302.08 224.57 292.74 236.43 298.03 207.7 309.33"/><polygon class="cls-2" points="189.51 351.36 166.42 376.82 158.17 366.74 175.06 347.43 180.43 339.32 189.51 351.36"/><polygon class="cls-4" points="190.75 319.21 189.51 351.36 175.06 347.43 166.31 315.21 190.75 319.21"/><polygon class="cls-6" points="188.71 378.2 189.51 351.36 180.11 362.6 183.67 378.2 188.71 378.2"/><polygon class="cls-7" points="189.51 351.36 171.92 378.2 148.54 378.2 158.17 366.74 165.5 373.16 189.51 351.36"/><polygon class="cls-8" points="151.81 112.77 112.85 79.65 145.65 81.59 149.39 90.14 151.81 112.77"/><polygon class="cls-4" points="160.75 161.85 184.89 147.77 224.54 143.15 262.16 160.71 244.91 193.27 228.45 214.94 192.78 201.8 165.98 176.04 160.75 161.85"/><path class="cls-2" d="M173.93,188.55l-13.4-6.48.22-20.22L169,172.73l5.73,9.72s-.22,3-.76,6.1"/><polygon class="cls-9" points="178.56 151.46 184.89 147.77 179.53 171.23 175.77 173.42 174.83 166.22 178.56 151.46"/><polygon class="cls-9" points="232.68 146.94 236.62 148.79 233.02 168.73 231.45 178.43 223.63 174.36 232.68 146.94"/><polygon class="cls-10" points="174.83 166.22 157.12 185.85 181.53 206.81 192.78 201.8 179.53 171.23 174.83 166.22"/><polygon class="cls-10" points="223.63 174.36 192.78 201.8 200.29 213.69 244.91 193.27 233.02 168.73 223.63 174.36"/><polygon class="cls-9" points="171.51 231.83 165.57 224.32 162.13 201.49 157.12 185.85 192.78 201.8 244.91 193.27 222.82 234.96 195.6 241.84 171.51 231.83"/><polygon class="cls-10" points="174.45 285.14 163.04 279.42 162.61 260.67 171.51 231.83 222.82 234.96 222.19 257.48 200.95 276.23 189.66 285.32 174.45 285.14"/><polygon class="cls-3" points="160.49 293.74 168.07 251.22 200.95 276.23 218.12 290.13 206.29 302.08 160.49 293.74"/><polygon class="cls-9" points="236.43 298.03 206.29 302.08 200.95 276.23 222.82 234.96 237.68 259.25 236.43 298.03"/><polygon class="cls-2" points="244.91 193.27 262.16 160.71 273.78 208.38 250.88 207.57 244.91 193.27"/><polygon class="cls-2" points="161.83 251.3 162.23 202.18 171.51 231.83 168.07 251.16 164.94 254.35 161.83 251.3"/><polygon class="cls-2" points="154.81 274.72 161.83 251.31 167.29 250.92 164.98 268.55 161.79 286.46 154.81 274.72"/><polygon class="cls-4" points="161.05 267.3 161.83 251.31 168.07 251.22 164.98 268.55 161.05 267.3"/><polygon class="cls-2" points="224.54 143.15 193.18 167.28 183.02 131.28 186.53 123.17 227.89 27.19 259.36 47.09 224.54 143.15"/><polygon class="cls-4" points="157.71 22.85 147.58 61.56 144.73 91.16 156.52 128.23 186.36 132.58 210.08 106.22 227.89 27.19 157.71 22.85"/><polygon class="cls-5" points="193.18 167.28 177.14 131.23 186.36 132.58 204.24 135.42 193.18 167.28"/><polygon class="cls-5" points="226.81 91.94 222.46 105.33 228.98 108.95 231.32 124.45 242.72 95.2 226.81 91.94"/><polygon class="cls-8" points="248.15 108.95 263.41 51.8 258.15 54.83 242 97.73 248.15 108.95"/><polygon class="cls-11" points="256.9 26.84 263.41 51.8 253.4 73.27 242 97.73 235.69 73.18 243.44 39.49 256.9 26.84"/><polygon class="cls-12" points="220.29 48.6 234.04 27.91 256.9 26.84 235.69 73.18 226.81 91.94 220.29 48.6"/><polygon class="cls-11" points="225.83 18.02 256.9 26.84 220.29 48.6 212.69 20.32 225.83 18.02"/><polygon class="cls-12" points="172.02 33.03 220.29 48.6 225.83 18.02 204 1.38 172.23 15.33 172.02 33.03"/><polygon class="cls-11" points="147.58 61.56 152.39 56.42 155.18 53.45 204 1.38 155.07 4.88 147.83 39.26 147.58 61.56"/><polygon class="cls-12" points="121.37 82.72 144.73 91.16 147.58 61.56 155.07 4.88 130.94 55.04 121.17 59.75 121.37 82.72"/><polygon class="cls-11" points="112.85 79.64 121.37 82.72 127.32 64.81 122.98 57.22 114.29 54.32 105.97 47.45 112.85 79.64"/><polygon class="cls-8" points="130.94 55.04 114.29 54.32 127.32 64.81 130.94 55.04"/><polygon class="cls-2" points="153.01 61.34 160.05 67 168.1 82.46 171.43 87.31 171.23 90.9 175.7 90.44 192.02 74.69 203.73 69.56 197.81 64.47 181.14 66.28 177.43 68.53 173.76 70.21 172.04 68.12 170.4 65.03 158.65 57.88 153.01 61.34"/><polygon class="cls-13" points="172.04 68.12 171.4 73.75 166.33 89.14 175.7 90.44 176.17 73.86 177.43 68.53 172.04 68.12"/><polygon class="cls-5" points="170.05 95.26 166.33 89.14 175.7 90.44 170.05 95.26"/><polygon class="cls-8" points="181.28 64.97 181.14 66.28 197.22 65.65 203.73 69.56 199 62.55 181.28 64.97"/><polygon class="cls-8" points="170.94 63.29 170.4 65.03 157.88 59.24 153.01 61.34 158.52 56.07 170.94 63.29"/><polygon class="cls-14" points="236.71 289.25 216.37 277.3 237.36 282.58 236.71 289.25"/><path class="cls-15" d="M160.27,63.63a3.78,3.78,0,1,1-3.79,3.78,3.78,3.78,0,0,1,3.79-3.78"/><path class="cls-15" d="M192.81,69.17A3.78,3.78,0,1,1,189,73a3.78,3.78,0,0,1,3.78-3.78"/><polygon class="cls-7" points="218.85 264.07 246.58 266.74 270.38 279.19 261.29 288.17 232.3 281.45 216.37 277.3 218.85 264.07"/><polygon class="cls-16" points="218.85 264.07 227.28 256.64 270.06 267.34 270.38 279.19 218.85 264.07"/><polygon class="cls-4" points="247.2 248.19 250.88 207.57 273.78 208.38 260.62 255.9 247.2 248.19"/><polygon class="cls-2" points="237.34 269.5 247.2 248.19 260.62 255.9 259.83 276.1 237.34 269.5"/><polygon class="cls-4" points="232.3 281.45 237.34 269.5 259.83 276.1 247.93 285.07 232.3 281.45"/><polygon class="cls-5" points="247.2 248.19 237.7 259.2 241.72 260.16 247.2 248.19"/><polygon class="cls-7" points="237.7 259.2 234.57 268.69 237.34 269.51 241.72 260.16 237.7 259.2"/><polygon class="cls-3" points="232.3 281.45 234.57 268.69 237.34 269.5 232.3 281.45"/><polygon class="cls-4" points="235.69 73.18 226.81 91.94 242 97.73 251.03 78.37 235.69 73.18"/><polygon class="cls-5" points="233.54 88.34 237.01 78.33 244.79 81.14 233.54 88.34"/><path class="cls-16" d="M236.93,101l-4.34,6.51,1.45,7.6,3.61-6.88ZM238,90.14l-15.56,15.19,8.86,19.12L248.14,109,238,89.78Z"/><polygon class="cls-2" points="194.82 183.88 189.39 193.97 192.78 201.8 198.36 196.84 194.82 183.88"/><polygon class="cls-14" points="156.44 99.49 171.67 100.33 192.23 105.36 179.44 115.03 163.6 112.36 156.44 99.49"/><polygon class="cls-17" points="161.17 102.77 164.9 108.78 171.22 109.7 178.76 111.3 186.22 106.65 171.22 103.76 161.17 102.77"/></svg>