<svg id="illustration_layer_copy_4" data-name="illustration_layer copy 4" xmlns="http://www.w3.org/2000/svg" viewBox="0 0 400 400"><defs><style>.cls-1,.cls-13,.cls-19{fill:#2b2b2b;}.cls-1{opacity:0.1;}.cls-2{fill:#9d7700;}.cls-3{fill:#846400;}.cls-4{fill:#755800;}.cls-5{fill:#bb8e2d;}.cls-6{fill:#4f5253;}.cls-7{fill:#be8e00;}.cls-8{fill:#fce3d4;}.cls-9{fill:#f4c9b2;}.cls-10{fill:#c1907d;}.cls-11{fill:#ffefe7;}.cls-12{fill:#fff;}.cls-14{fill:#6f7173;}.cls-15{fill:#9ca0a1;}.cls-16{fill:#737373;}.cls-17{fill:#8c7c2f;}.cls-18{fill:#8e8e8e;}.cls-19{opacity:0.2;}.cls-20{fill:#e1a842;}.cls-21{fill:#c3c3c3;}</style></defs><title>explorers_ISTP_famous_real_clint_eastwood</title><polygon class="cls-1" points="109.15 384.73 201.38 371.81 292.66 386.03 195.28 400 109.15 384.73"/><polygon class="cls-2" points="250.56 309.16 274.31 296.21 266.99 272.04 247.02 271.86 250.56 309.16"/><polygon class="cls-3" points="170.12 279.64 164.17 323.8 176.25 346.54 197.93 337.26 213.96 308.4 181.35 273.86 170.12 279.64"/><polygon class="cls-2" points="204.53 309.11 212.17 336.21 230.89 354.57 248.32 339.05 252.67 286.56 234.71 264.02 204.53 309.11"/><polygon class="cls-4" points="240.42 273.89 204.53 309.11 189.76 293.53 167.88 272.04 214.18 270.3 240.42 268.3 240.42 273.89"/><polygon class="cls-2" points="261.62 176.5 291.51 245.79 271.18 240.19 252.67 236.98 261.62 176.5"/><polygon class="cls-5" points="176.57 173.79 144.62 200.31 158.27 226.82 173.25 201.72 176.57 173.79"/><polygon class="cls-6" points="228.03 166.71 190.15 172.54 173.25 211.11 173.61 262.81 245.13 260.43 228.03 166.71"/><polygon class="cls-7" points="135.71 12.8 220.24 0 158.67 31.84 135.71 12.8"/><polygon class="cls-4" points="214.97 64.21 241.39 55.35 272.99 44.7 282.38 66.13 248.29 93.48 231.63 79.8 214.97 64.21"/><polygon class="cls-8" points="131.84 95.4 133.39 116.22 153.5 163.16 179.77 161.91 193.56 173.12 187.37 189.08 198.5 218.31 218.8 177.47 227.61 171.69 248.29 93.48 233.73 86.17 214.97 64.21 131.84 95.4"/><polygon class="cls-9" points="214.97 64.21 212.74 126.27 200.9 160.52 183.28 163.31 186.91 172.69 197.03 190.96 218.8 177.47 231.05 171.38 230.9 163.81 240.91 129.58 241.06 120.84 243.76 115.65 248.29 93.48 233.73 86.17 214.97 64.21"/><polygon class="cls-9" points="192.1 89.66 169.3 120.84 138.44 94.77 192.1 89.66"/><polygon class="cls-9" points="131.84 95.4 214.22 87.55 225.85 83.52 225.85 73.86 214.97 64.21 130.33 74.99 131.84 95.4"/><polygon class="cls-10" points="243.76 115.65 231.34 114.19 240.91 129.58 243.76 115.65"/><polygon class="cls-10" points="179.77 161.91 223.3 158.69 191.28 180.57 179.77 161.91"/><polygon class="cls-11" points="168.07 91.92 169.3 120.84 162.19 121.34 159.25 92.77 168.07 91.92"/><polygon class="cls-10" points="169.3 120.84 166.14 126.42 162.19 121.34 169.3 120.84"/><polygon class="cls-9" points="182.8 102.18 188.25 110.73 194.96 109.57 182.8 102.18"/><polygon class="cls-9" points="150.12 104.48 147.37 113.23 141.43 113.52 150.12 104.48"/><polygon class="cls-9" points="160.39 121.89 154.84 122.96 154.36 132.4 160.39 121.89"/><polygon class="cls-10" points="186.24 135 158.67 134.27 159.14 143.23 185.09 140.63 186.24 135"/><polygon class="cls-12" points="183.28 137.02 161.04 136.63 162.19 140.58 183.28 138.75 183.28 137.02"/><ellipse class="cls-13" cx="184.4" cy="97.27" rx="3.9" ry="3.93"/><ellipse class="cls-13" cx="146.35" cy="100.56" rx="3.9" ry="3.93"/><polygon class="cls-14" points="192.1 89.66 168.07 91.92 168.07 87.9 190.41 86.02 192.1 89.66"/><polygon class="cls-14" points="159.25 92.77 158.67 88.97 139.05 90.74 138.44 94.77 159.25 92.77"/><polygon class="cls-10" points="235.65 109 237.55 98.88 243.76 98.88 235.65 109"/><polygon class="cls-15" points="227.54 71.14 225.85 83.52 223.3 106.63 231.34 109 233.73 93.34 248.29 93.48 245.5 81.05 227.54 71.14"/><polygon class="cls-16" points="225.85 83.52 245.5 81.05 242.16 66.13 214.97 64.21 225.85 83.52"/><polygon class="cls-7" points="92.41 71.14 159.25 83.52 241.39 55.35 164.27 59.29 136.84 54.38 132.24 42.63 115.77 44.95 92.41 71.14"/><polygon class="cls-2" points="130.33 59.97 92.41 71.14 115.77 40.32 132.24 42.63 135.39 50.68 130.33 59.97"/><polygon class="cls-2" points="135.71 12.8 157.37 23.25 164.27 35.23 159.25 66.13 132.24 42.63 135.71 12.8"/><polygon class="cls-4" points="157.37 23.25 220.24 0 233.18 35.23 159.25 66.13 157.37 23.25"/><polygon class="cls-4" points="132.24 42.63 158.56 48.79 161.04 56.4 159.25 66.13 130.33 59.97 132.24 42.63"/><polygon class="cls-2" points="158.56 48.79 233.18 35.23 241.39 55.35 159.25 66.13 158.56 48.79"/><polygon class="cls-2" points="159.09 208.13 147.02 171.23 130.33 172.97 129.72 231.41 157.78 242.33 159.09 208.13"/><polygon class="cls-10" points="147.02 171.23 152.66 146.15 123.2 148.76 132.85 165.28 147.02 171.23"/><polygon class="cls-9" points="147.02 171.23 123.2 148.76 130.33 172.97 147.02 171.23"/><polygon class="cls-9" points="123.2 148.76 149.04 150.87 158.79 138.61 143.07 133.69 123.2 148.76"/><polygon class="cls-10" points="147.02 171.23 155.73 161.79 159.05 144.62 151.86 150.1 144.68 159.1 147.02 171.23"/><polygon class="cls-17" points="161.04 136.63 145.21 150.55 145.89 153.55 148.62 155.15 163.29 140.58 161.04 136.63"/><polygon class="cls-6" points="145.21 150.55 140.74 154.83 144.68 159.1 148.62 155.15 145.21 150.55"/><polygon class="cls-18" points="221.13 269.88 207.59 270.68 198.58 270.3 191.42 271.63 177.35 272.04 173.25 261.91 190.84 261.2 199.22 262.61 206.83 260.43 244.15 258.07 221.13 269.88"/><polygon class="cls-19" points="187.37 189.08 170.34 190.26 185.81 183.53 187.37 189.08"/><polygon class="cls-5" points="228.03 171.71 223.31 206.21 206.83 236.98 221.13 269.88 240.42 273.89 257.45 268.65 259.14 236.56 261.62 176.5 228.03 171.71"/><polygon class="cls-20" points="242.63 173.79 245.64 208.31 206.83 236.98 231.34 162.31 242.63 173.79"/><polygon class="cls-19" points="234.71 192.97 213.48 188.16 218.8 177.47 234.71 192.97"/><polygon class="cls-18" points="218.8 177.47 234.71 192.97 231.34 162.31 218.8 177.47"/><polygon class="cls-20" points="259.14 236.56 240.42 273.89 245.64 281.39 256.06 283.72 291.51 245.79 259.14 236.56"/><path class="cls-21" d="M206.83,260.43l-16,.77.58,10.43,16.17-.95Zm-3,7.25-9.38.65v-4l9.38-.65Z"/><polygon class="cls-4" points="248.32 339.05 212.17 336.21 221.06 367.61 231.66 372.68 245.62 370.06 248.32 339.05"/><polygon class="cls-4" points="197.93 337.26 164.17 323.8 158.21 359.91 166.27 366.9 182.14 366.9 197.93 337.26"/><polygon class="cls-8" points="240.42 273.89 251.36 302.38 256.06 283.72 240.42 273.89"/><polygon class="cls-19" points="184.06 301.06 165.98 310.08 167.71 297.52 184.06 301.06"/><polygon class="cls-5" points="181.78 225.09 184.06 301.06 151.35 294.1 159.22 205.86 181.78 190.26 181.78 225.09"/><polygon class="cls-20" points="181.78 225.09 159.22 205.86 170.34 190.26 185.81 178.35 187.37 189.08 181.78 225.09"/><polygon class="cls-6" points="185.81 183.53 170.34 190.26 176.57 173.79 185.81 183.53"/><polygon class="cls-19" points="187.37 189.08 170.34 190.26 176.57 173.79 187.37 189.08"/><polygon class="cls-18" points="187.37 189.08 191.28 180.57 183.92 168.64 176.57 173.79 187.37 189.08"/><polygon class="cls-2" points="158.21 359.91 182.14 366.9 181.98 378.69 173.57 381.58 163.07 378.69 152.55 379.97 127.83 378.69 158.21 359.91"/><polygon class="cls-2" points="221.06 367.61 210.39 386.03 225.93 387.71 247.66 386.03 245.62 370.06 221.06 367.61"/><polygon class="cls-4" points="181.98 378.69 181.98 384.46 165.92 384.46 163.07 378.69 155.2 384.46 127.83 384.46 127.83 378.69 181.98 378.69"/><rect class="cls-4" x="210.39" y="386.03" width="37.27" height="6.06"/><polygon class="cls-10" points="214.22 87.55 214.97 64.21 225.85 83.52 214.22 87.55"/></svg>