<svg xmlns="http://www.w3.org/2000/svg" width="429" height="88" viewBox="0 0 429 88"><g fill="none" fill-rule="evenodd"><path fill="#4298B4" d="M43.93 14.365c-5.906 0-10.695 4.79-10.695 10.696 0 5.908 4.789 10.696 10.696 10.696 5.906 0 10.695-4.788 10.695-10.696 0-5.907-4.789-10.696-10.695-10.696"/><path fill="#88619A" d="M14.365 43.8c0 5.907 4.79 10.696 10.696 10.696 5.908 0 10.696-4.79 10.696-10.696 0-5.908-4.788-10.696-10.696-10.696-5.907 0-10.696 4.79-10.696 10.696"/><path fill="#E4AE3A" d="M73.417 43.8c0 5.907-4.79 10.696-10.696 10.696-5.907 0-10.696-4.79-10.696-10.696 0-5.908 4.789-10.696 10.696-10.696s10.696 4.79 10.696 10.696"/><path fill="#33A474" d="M43.93 73.418c-5.906 0-10.695-4.79-10.695-10.696 0-5.908 4.789-10.696 10.696-10.696 5.906 0 10.695 4.788 10.695 10.696 0 5.907-4.789 10.696-10.695 10.696"/><path fill="#4298B4" fill-rule="nonzero" d="M21.197 6.206c-2.367 0-4.293 1.926-4.293 4.293 0 2.368 1.926 4.294 4.293 4.294s4.292-1.926 4.292-4.294c0-2.366-1.925-4.293-4.292-4.293M35.558 0c-2.367 0-4.293 1.926-4.293 4.293 0 2.368 1.926 4.293 4.293 4.293s4.293-1.925 4.293-4.293C39.85 1.926 37.925 0 35.558 0m16.687 0c-2.367 0-4.292 1.926-4.292 4.293 0 2.368 1.925 4.293 4.292 4.293s4.293-1.925 4.293-4.293C56.538 1.926 54.612 0 52.245 0m14.34 6.206c-2.367 0-4.292 1.926-4.292 4.293 0 2.368 1.925 4.294 4.292 4.294s4.293-1.926 4.293-4.294c0-2.366-1.926-4.293-4.293-4.293"/><path fill="#33A474" fill-rule="nonzero" d="M21.197 72.991c-2.367 0-4.293 1.926-4.293 4.293 0 2.368 1.926 4.294 4.293 4.294s4.292-1.926 4.292-4.294c0-2.368-1.925-4.293-4.292-4.293m14.361 6.206c-2.367 0-4.293 1.926-4.293 4.293s1.926 4.294 4.293 4.294 4.293-1.927 4.293-4.294c0-2.367-1.926-4.293-4.293-4.293m16.687 0c-2.367 0-4.292 1.926-4.292 4.293s1.925 4.294 4.292 4.294 4.293-1.927 4.293-4.294c0-2.367-1.926-4.293-4.293-4.293m14.34-6.206c-2.367 0-4.292 1.926-4.292 4.293 0 2.368 1.925 4.294 4.292 4.294s4.293-1.926 4.293-4.294c0-2.368-1.926-4.293-4.293-4.293"/><path fill="#88619A" fill-rule="nonzero" d="M10.5 62.293c-2.367 0-4.293 1.926-4.293 4.293 0 2.368 1.926 4.295 4.293 4.295s4.293-1.927 4.293-4.295c-.001-2.368-1.927-4.293-4.293-4.293M8.586 52.225c0-2.366-1.925-4.293-4.292-4.293C1.926 47.932 0 49.86 0 52.225c0 2.367 1.926 4.294 4.294 4.294 2.366-.001 4.292-1.927 4.292-4.294M4.293 39.831c2.367 0 4.292-1.926 4.292-4.293 0-2.368-1.925-4.293-4.292-4.293S0 33.17 0 35.538c0 2.367 1.926 4.293 4.293 4.293M10.5 16.904c-2.367 0-4.293 1.926-4.293 4.293s1.926 4.294 4.293 4.294 4.293-1.927 4.293-4.294c-.001-2.367-1.927-4.293-4.293-4.293"/><path fill="#E4AE3A" fill-rule="nonzero" d="M77.282 62.293c-2.367 0-4.293 1.926-4.293 4.293 0 2.368 1.926 4.295 4.293 4.295s4.293-1.927 4.293-4.295-1.926-4.293-4.293-4.293m6.208-14.361c-2.368 0-4.293 1.926-4.293 4.293 0 2.368 1.925 4.294 4.292 4.294 2.368 0 4.293-1.926 4.293-4.294 0-2.367-1.925-4.293-4.293-4.293m-4.293-12.394c0 2.367 1.925 4.293 4.292 4.293 2.369 0 4.294-1.926 4.294-4.293s-1.925-4.292-4.294-4.292c-2.366-.001-4.292 1.924-4.292 4.292M77.282 25.49c2.367 0 4.293-1.925 4.293-4.292s-1.926-4.294-4.293-4.294-4.293 1.927-4.293 4.294c0 2.367 1.927 4.293 4.293 4.293"/><g fill-rule="nonzero"><path fill="#4E4D43" d="M363.3 30.696c.244 0 .437.049.535.096.192.097.29.58.29 1.4v4.634h3.878c.243 0 .63 0 1.068-.097.532-.048.872-.096 1.113-.096.34 0 .485.241.485.627v1.11c0 .676-.097.965-.825.965-.192 0-.34 0-.434-.047-.147 0-.971-.05-1.456-.05h-3.83v10.38c0 2.46.193 4.005.63 4.632.438.678 1.164 1.015 2.084 1.015.388 0 .874-.146 1.455-.337.63-.194 1.068-.339 1.31-.339.192 0 .34.05.437.096.049.049.145.097.243.194l.192.24c.145.146.194.34.194.532 0 .289-.145.578-.485.916-1.357 1.448-3.15 2.174-5.285 2.174-1.987 0-3.635-.628-4.992-1.884-.776-.724-1.261-1.64-1.505-2.752-.133-.582-.184-1.58-.19-2.919l-.002-11.319c0-.434-.29-.628-.872-.628h-1.698c-.776 0-1.164-.29-1.164-.868v-.339c0-.435.388-.82 1.164-1.062 2.667-.917 4.656-2.607 5.963-5.116.388-.772.874-1.159 1.406-1.159h.29zm-102.92 5.502c3.393 0 6.157 1.062 8.388 3.137 2.18 2.124 3.296 4.778 3.296 8.061 0 3.283-1.163 5.985-3.586 8.11-2.327 2.171-5.334 3.233-8.923 3.233-3.44 0-6.302-1.014-8.533-3.088-2.278-2.125-3.392-4.73-3.392-7.917 0-3.378 1.21-6.13 3.586-8.302 2.377-2.172 5.43-3.234 9.164-3.234zm54.25.001c1.796 0 3.396.434 4.704 1.351 1.696 1.159 2.522 3.185 2.522 6.082 0 .87-.05 1.64-.05 2.365l-.193 4.875c0 2.317.581 3.524 1.696 3.524.436 0 .969-.194 1.601-.531.34-.193.581-.29.775-.29.097 0 .29.097.437.242l.241.385c.147.194.194.338.194.386-.003.435-.633 1.207-1.894 2.173-1.647 1.303-3.198 1.93-4.556 1.93-1.065 0-1.891-.339-2.52-1.014-.39-.338-.776-1.015-1.115-1.98-.68.58-1.357 1.063-2.035 1.497-1.554 1.015-3.201 1.545-4.897 1.545-1.649 0-2.958-.482-4.025-1.399-1.066-.967-1.6-2.125-1.6-3.573 0-2.075 1.115-3.91 3.297-5.5 2.182-1.595 5.188-2.705 8.92-3.38v-1.255c0-2.944-1.453-4.44-4.411-4.44-1.795 0-2.765.53-2.909 1.64l-.146 1.16c-.094.771-.58 1.157-1.453 1.157-.436 0-.825-.29-1.116-.82l-.532-.966c-.194-.386-.29-.628-.29-.917 0-.917 1.357-1.979 4.12-3.137 1.746-.724 3.49-1.11 5.236-1.11zm111.74-.197c.194 0 .34.049.438.242l.192.241c.146.193.241.386.241.531 0 .145-.095.483-.241.917-.192.531-.291 1.207-.291 2.027 0 .097.049.434.049.966 0 .53.05.965.05 1.4v.192c0 .773-.34 1.159-.971 1.159l-.534.049c-.34 0-.582-.435-.729-1.304-.144-1.11-.774-2.028-1.792-2.752-.97-.771-2.134-1.158-3.444-1.158-2.228 0-3.78 1.11-3.78 2.655 0 .82.39 1.545 1.162 2.028.777.482 2.328 1.062 4.607 1.64 1.746.484 3.055.966 3.83 1.4 1.94 1.159 2.91 2.848 2.91 5.117.001 2.127-.825 3.864-2.474 5.263-1.647 1.4-3.684 2.075-6.157 2.075-1.162 0-2.376-.145-3.637-.435l-1.697-.385c-.29-.05-.532-.098-.872-.098-.29 0-.581.098-.775.241l-.484.387c-.193.145-.388.24-.582.24-.146 0-.29-.048-.436-.144l-.34-.242c-.242-.192-.39-.385-.39-.674 0-.242.147-.678.34-1.305.195-.531.29-1.11.244-1.64l-.195-2.8c0-.82.34-1.303.971-1.448l.388-.096c-.05 0 .049-.048.242-.048.486 0 .825.529.92 1.64.147 1.255.777 2.268 1.94 3.09 1.165.867 2.57 1.253 4.171 1.253 2.713 0 4.072-.964 4.072-2.799 0-.868-.34-1.544-.971-2.075-.63-.482-1.938-1.015-3.879-1.546-2.519-.723-4.315-1.495-5.38-2.364-1.407-1.11-2.085-2.607-2.085-4.44 0-2.028.678-3.669 2.131-4.924 1.456-1.254 3.347-1.882 5.625-1.882.486 0 1.165.048 2.086.193l2.036.29c.35.077.605.092.694.095h.033c.437 0 1.018-.096 1.6-.385.583-.242 1.02-.387 1.164-.387zm-28.262.245c2.762 0 5.042.82 6.836 2.557 1.747 1.69 2.667 3.862 2.667 6.468 0 .676-.146 1.112-.535 1.256-.192.097-.725.145-1.599.145h-11.733c-.581 0-.92.192-1.02.53-.095.192-.095.481-.095.82 0 1.884.679 3.524 2.034 4.971 1.359 1.4 2.912 2.125 4.753 2.125 1.793 0 3.395-.58 4.848-1.738l1.746-1.4c.192-.095.34-.193.532-.193.193 0 .34.099.485.193l.29.194h.05c.194.192.29.386.29.628.002.915-1.163 2.171-3.49 3.813-1.988 1.398-4.218 2.074-6.739 2.074-3.102 0-5.625-.964-7.612-2.943-1.938-1.98-2.958-4.537-2.958-7.578 0-3.333 1.116-6.179 3.248-8.448 2.185-2.316 4.85-3.474 8.002-3.474zm-203.223 0c2.763 0 5.043.82 6.835 2.557 1.748 1.69 2.667 3.862 2.667 6.468 0 .676-.144 1.112-.533 1.256-.193.097-.726.145-1.6.145h-11.731c-.581 0-.92.192-1.019.53-.097.192-.097.481-.097.82 0 1.884.68 3.524 2.036 4.971 1.359 1.4 2.91 2.125 4.752 2.125 1.794 0 3.395-.58 4.85-1.738l1.744-1.4c.194-.095.34-.193.534-.193.192 0 .34.099.484.193l.29.194h.05c.194.192.29.386.29.628 0 .915-1.163 2.171-3.49 3.813-1.988 1.398-4.219 2.074-6.74 2.074-3.103 0-5.624-.964-7.611-2.943-1.94-1.98-2.958-4.537-2.958-7.578 0-3.333 1.115-6.179 3.248-8.448 2.183-2.316 4.849-3.474 8-3.474zm47.85-.245c.194 0 .34.049.438.242l.192.241c.147.193.242.386.242.531 0 .145-.095.483-.242.917-.192.531-.29 1.207-.29 2.027 0 .097.049.434.049.966 0 .53.049.965.049 1.4v.192c0 .773-.34 1.159-.97 1.159l-.535.049c-.34 0-.581-.435-.728-1.304-.145-1.11-.774-2.028-1.792-2.752-.97-.771-2.135-1.158-3.444-1.158-2.23 0-3.78 1.11-3.78 2.655 0 .82.389 1.545 1.162 2.028.777.482 2.327 1.062 4.607 1.64 1.746.484 3.054.966 3.83 1.4 1.94 1.159 2.91 2.848 2.91 5.117 0 2.127-.827 3.864-2.475 5.263-1.647 1.4-3.684 2.075-6.157 2.075-1.163 0-2.376-.145-3.637-.435l-1.697-.385c-.29-.05-.532-.098-.871-.098-.29 0-.582.098-.776.241l-.485.387c-.193.145-.387.24-.581.24-.146 0-.29-.048-.436-.144l-.341-.242c-.242-.192-.388-.385-.388-.674 0-.242.146-.678.34-1.305.194-.531.29-1.11.243-1.64l-.195-2.8c0-.82.34-1.303.97-1.448l.388-.096c-.048 0 .05-.048.243-.048.484 0 .824.529.921 1.64.145 1.255.776 2.268 1.939 3.09 1.165.867 2.57 1.253 4.171 1.253 2.713 0 4.072-.964 4.072-2.799 0-.868-.341-1.544-.971-2.075-.63-.482-1.938-1.015-3.879-1.546-2.52-.723-4.315-1.495-5.38-2.364-1.407-1.11-2.087-2.607-2.087-4.44 0-2.028.68-3.669 2.134-4.924 1.454-1.254 3.345-1.882 5.624-1.882.486 0 1.164.048 2.085.193l2.037.29c.35.077.605.092.693.095h.034c.437 0 1.018-.096 1.6-.385.583-.242 1.018-.387 1.164-.387zm-26.91.389c.193.096.29.193.29.29 0 .097.05.29.05.676v2.751c.436-.531.92-1.062 1.356-1.544 1.357-1.497 2.764-2.22 4.219-2.22 1.019 0 1.89.336 2.667.964.824.627 1.211 1.4 1.211 2.22.002.58-.288 1.255-.919 1.98-1.066 1.207-1.892 1.835-2.474 1.835-.435 0-.873-.29-1.26-.82-.194-.242-.437-.58-.679-.87-.39-.434-.873-.627-1.454-.627-1.648 0-2.474 1.69-2.474 5.116v5.359c0 1.303.146 2.218.485 2.75.437.725 1.455 1.255 3.103 1.497.775.145 1.164.483 1.114 1.015l-.048.578c-.048.531-.437.772-1.164.772h-.388l-2.133-.145c-.971-.048-2.521-.097-4.703-.097-1.697 0-3.2.097-4.557.24h-.388c-.534 0-.824-.24-.824-.771v-.579c0-.435.29-.772.824-.869 1.163-.29 1.939-.725 2.327-1.256.388-.58.581-1.592.581-2.993v-6.371c0-.77 0-1.4-.047-1.737-.098-1.303-.728-2.028-1.891-2.173-1.02-.144-1.6-.29-1.745-.434-.098-.096-.146-.29-.146-.627v-.483c0-.676.34-.772 1.211-.772h.583c1.599 0 3.15-.531 4.605-1.64.922-.726 1.6-1.063 1.987-1.063h.39c.146 0 .24 0 .29.048zM171.811 25.58c3.538 0 6.351.869 8.485 2.557 2.132 1.69 3.2 3.91 3.2 6.71-.002 2.751-1.068 5.02-3.298 6.902-2.182 1.834-4.849 2.751-8.096 2.751-1.989 0-3.686-.387-5.14-1.158-.63-.338-.921-.676-.921-1.062 0-.144.049-.338.146-.531l.29-.628c.048-.241.194-.338.437-.338.29 0 .63.097 1.115.387.776.434 1.649.628 2.667.628 1.697 0 3.103-.628 4.12-1.835 1.019-1.206 1.552-2.847 1.552-4.826 0-2.124-.68-3.813-1.988-5.116-1.31-1.256-3.054-1.884-5.285-1.884-1.163 0-1.986.146-2.473.484-.435.29-.726.724-.872 1.302-.145.58-.243 1.69-.243 3.38l-.047 4.392v11.053c0 1.834.096 3.282.29 4.393.194 1.013.775 1.785 1.794 2.171.485.146 1.454.339 2.958.58.532.048.775.337.775.82v.627c0 .627-.145.773-.824.773 0 0-.873-.048-2.715-.146-1.213-.047-2.715-.096-4.509-.096-1.067 0-2.57.049-4.46.096-1.734.093-2.91.14-3.487.145h-.247c-.581 0-.872-.192-.872-.627v-.628c0-.579.63-.917 1.89-1.061 1.115-.098 1.843-.58 2.232-1.448.386-.87.581-2.462.581-4.73V34.32c-.003-1.154-.016-2.08-.097-2.804-.147-1.786-1.116-2.799-3.007-2.992-1.114-.096-1.648-.483-1.648-1.062v-.869c0-.434.388-.675 1.115-.675.775 0 1.552 0 2.376.096 1.649.097 2.958.193 3.927.193.63 0 2.375-.145 5.237-.338.673-.053 1.29-.1 1.85-.138l.645-.043c1.131-.072 1.984-.108 2.547-.108zm163.316-1.448c.033.005.18.021.444.096l.484.097c.34.096.535.29.535.58 0 .096 0 .337-.098.675-.147.82-.29 1.593-.34 2.365-.094 1.108-.142 3.187-.146 6.196v16.103c0 1.544.096 2.751.243 3.572.242 1.255 1.018 1.931 2.278 2.026.774.098 1.162.339 1.162.774v.482h.002c0 .868-.29.967-.97.967-.678 0-1.113-.05-1.453-.05-.923-.096-2.037-.145-3.345-.145-2.766 0-5.14.194-6.644.194-.532 0-.773-.145-.773-.483v-.58c0-.579.34-.965 1.064-1.061 1.988-.29 2.716-1.109 2.766-3.283l.049-2.606V35.137c0-2.559-.196-4.152-.535-4.73-.386-.628-1.211-.966-2.423-1.015-.63 0-.92-.385-.92-1.06v-.34c0-.482.29-.724.871-.724h.29c.099.048.29.048.532.048 2.328 0 4.025-.579 5.142-1.737l.823-.87c.344-.342.612-.533.872-.57l.09-.008zm-52.156 12.114l.437.049c.29 0 .438.338.438.965v2.654c.823-.964 1.6-1.688 2.325-2.123 1.648-1.013 3.395-1.545 5.285-1.545 2.376 0 4.267.821 5.675 2.51 1.356 1.593 2.036 4.054 2.036 7.289v5.598c0 1.98.29 3.186.871 3.62.29.241 1.02.483 2.182.725.486.097.728.29.728.58v.722h-.002c0 .49-.248.734-.743.769l-.123.003c-.056-.009-.793-.056-2.283-.144-.535 0-1.407-.049-2.524-.049-2.519 0-4.217.049-5.04.145-.292 0-.73.048-1.31.048-.532 0-.825-.242-.825-.773v-.528c0-.241.05-.388.146-.483.1-.048.63-.29 1.602-.627 1.065-.387 1.599-1.69 1.599-3.813V46.43c0-4.488-1.503-6.709-4.46-6.709-1.407 0-2.57.531-3.538 1.593-.97 1.062-1.457 2.558-1.457 4.538v6.709c0 1.834.63 2.896 1.891 3.185.923.194 1.358.483 1.358.87v.674c0 .531-.339.773-1.02.773-.63 0-1.16-.048-1.646-.048-1.406-.097-2.812-.145-4.267-.145-1.212 0-2.375.049-3.54.145-.388 0-.92.048-1.599.048-.437 0-.63-.193-.63-.58v-.579c0-.434.146-.771.533-.917.097-.047.533-.146 1.164-.241.97-.144 1.6-.772 1.842-1.786.146-.435.194-1.4.194-2.848v-5.26c0-1.641-.194-2.848-.63-3.62-.244-.435-.923-.725-2.086-.821-.68-.049-1.018-.386-1.018-.917v-.435c0-.627.242-.771 1.116-.771.92 0 1.938-.242 3.052-.677 1.165-.434 2.086-1.013 2.814-1.641.532-.483.97-.724 1.26-.724h.193zm97.59.095l.436.145c.29.097.437.386.437.87v.433c-.29 1.98-.437 4.586-.39 7.917l.05 5.26c0 1.931.192 3.186.532 3.717.34.531 1.067.966 2.23 1.207.728.144 1.067.434 1.067.87v.531c0 .53-.484.772-1.406.772-.63 0-1.164-.049-1.502-.049-1.068-.095-2.522-.144-4.317-.144-.823 0-1.89.049-3.199.095l-2.037.098c-.191 0-.34-.049-.434-.049-.196-.049-.245-.241-.245-.53v-.532c0-.529.34-.868 1.068-1.013 1.115-.242 1.842-.675 2.18-1.255.245-.436.389-1.256.389-2.462l.049-5.503c0-1.978-.146-3.426-.438-4.247-.29-.917-.968-1.352-1.938-1.352l-.192.048h-.196c-.823 0-.92-.096-.92-.82v-.483c0-.434.097-.724.244-.82.192-.097.676-.145 1.453-.145.727-.049 1.406-.193 2.086-.435.969-.338 1.744-.627 2.327-.965l1.6-1.061c.145-.145.339-.194.532-.194 0 0 .194 0 .533.096zm-30.784 0l.436.145c.291.097.438.386.438.87v.433c-.29 1.98-.438 4.586-.39 7.917l.05 5.26c0 1.931.192 3.186.532 3.717.34.531 1.067.966 2.23 1.207.727.144 1.067.434 1.067.87v.531c0 .53-.485.772-1.407.772-.63 0-1.164-.049-1.503-.049-1.067-.095-2.52-.144-4.316-.144-.823 0-1.89.049-3.2.095l-2.036.098c-.192 0-.34-.049-.434-.049-.196-.049-.245-.241-.245-.53v-.532c0-.529.34-.868 1.068-1.013 1.114-.242 1.842-.675 2.18-1.255.245-.436.389-1.256.389-2.462l.05-5.503c0-1.978-.147-3.426-.438-4.247-.29-.917-.969-1.352-1.939-1.352l-.191.048h-.196c-.823 0-.921-.096-.921-.82v-.483c0-.434.098-.724.245-.82.191-.097.676-.145 1.453-.145.727-.049 1.406-.193 2.086-.435.969-.338 1.744-.627 2.327-.965l1.6-1.061c.145-.145.339-.194.532-.194 0 0 .193 0 .533.096zm-90.366 2.27c-1.746 0-3.152.724-4.266 2.221-1.066 1.4-1.6 3.33-1.6 5.647 0 2.752.63 5.116 1.94 6.999 1.356 1.882 2.957 2.848 4.895 2.848 1.744 0 3.15-.725 4.22-2.173 1.112-1.448 1.646-3.33 1.646-5.695.001-2.75-.677-5.068-1.986-6.999-1.31-1.882-2.958-2.848-4.849-2.848zm56.718 8.688c-1.985.241-3.633.82-4.798 1.786-1.211.918-1.84 2.027-1.84 3.378 0 1.497 1.162 2.607 2.86 2.607.87 0 1.792-.337 2.715-1.061.725-.531 1.064-1.303 1.064-2.366v-4.344zm81.3-8.688c-1.212 0-2.327.531-3.248 1.545-.921 1.014-1.406 2.172-1.406 3.524 0 .386.194.578.58.675h6.595c.727 0 1.165-.048 1.358-.145.24-.097.388-.481.388-1.06.001-1.256-.437-2.27-1.31-3.187-.823-.917-1.794-1.352-2.957-1.352zm-203.222 0c-1.212 0-2.326.531-3.248 1.545-.921 1.014-1.406 2.172-1.406 3.524 0 .386.194.578.582.675h6.593c.728 0 1.165-.048 1.359-.145.241-.097.387-.481.387-1.06 0-1.256-.436-2.27-1.31-3.187-.823-.917-1.793-1.352-2.957-1.352zm153.87-11.92c1.552 0 2.326.675 2.326 2.075.001 1.013-.433 1.882-1.354 2.703-.923.771-1.938 1.158-3.056 1.158-1.599 0-2.424-.676-2.424-2.075 0-.966.484-1.883 1.406-2.655.921-.82 1.987-1.206 3.103-1.206zm30.784 0c1.551 0 2.325.675 2.325 2.075.001 1.013-.433 1.882-1.354 2.703-.923.771-1.938 1.158-3.056 1.158-1.6 0-2.424-.676-2.424-2.075 0-.966.485-1.883 1.406-2.655.922-.82 1.987-1.206 3.103-1.206z"/><path fill="#88619A" d="M145.308 24.802c.34 0 .534.143.727.433l.146.241c.05.097.097.241.097.339 0 .289-.243.578-.727.723l-1.794.627c-2.424.821-4.655 2.076-6.69 3.717-.776.627-1.553 1.4-2.328 2.268-1.068 1.207-2.036 2.8-2.908 4.78 1.503-.725 3.053-1.063 4.702-1.063 2.958 0 5.381 1.014 7.32 2.992 1.989 1.93 2.959 4.393 2.959 7.385 0 3.187-1.115 5.889-3.298 8.062-2.23 2.219-4.896 3.283-8.144 3.283-3.395 0-6.157-1.11-8.242-3.283-2.134-2.22-3.153-5.069-3.153-8.592 0-4.827 2.037-9.412 6.158-13.708 3.006-3.137 6.545-5.454 10.714-6.999 2.183-.82 3.686-1.205 4.461-1.205zm-28.167.484c.243 0 .486.048.728.145l.242.096c.29.144.437.29.437.628 0 .047-.048.193-.097.385-.486 2.076-.727 5.02-.727 8.833V49.66c0 2.461.241 4.007.63 4.682.581.868 1.94 1.352 4.121 1.4.823.048 1.212.29 1.212.87v.48c0 .82-.242 1.015-1.406 1.015-.388 0-1.067-.05-2.036-.05-3.153-.097-4.946-.144-5.284-.144l-4.316.096c-.97 0-2.085.05-3.346.099h-.29c-.824 0-1.212-.194-1.212-.628v-.725c0-.627.436-.965 1.356-1.013 1.988-.097 3.298-.579 3.831-1.4.389-.627.581-2.317.581-5.019V39.91c0-3.282-.047-5.261-.192-6.033-.147-.724-.486-1.11-1.067-1.11-.29 0-.776.096-1.503.241l-1.116.242c-.726.144-1.115.241-1.212.241-.436.001-.678-.241-.678-.772v-.58c0-.53.388-.965 1.164-1.206 3.926-1.304 6.786-2.896 8.676-4.731.631-.628 1.117-.917 1.503-.917zm16.87 14.382c-2.618 0-3.926 1.882-3.926 5.599 0 2.896.678 5.502 2.036 7.675 1.358 2.172 2.909 3.282 4.703 3.282 2.521 0 4.072-2.364 4.072-6.13 0-2.753-.679-5.166-2.084-7.29-1.358-2.074-3.007-3.136-4.8-3.136z"/></g></g></svg>